<svg xmlns="http://www.w3.org/2000/svg" viewBox="0 0 800 800" width="800" height="800" style="width: 100%; height: 100%; /*! transform: translate3d(0px, 0px, 0px); */" preserveAspectRatio="xMidYMid meet">
<defs><clipPath id="__lottie_element_7"><rect width="800" height="800" x="0" y="0"></rect></clipPath></defs><g clip-path="url(#__lottie_element_7)"><g style="display: block;" transform="matrix(1,0,0,1,0,0)" opacity="1"><g opacity="1" transform="matrix(0.9988144636154175,0.048679664731025696,-0.048679664731025696,0.9988144636154175,400.9150085449219,400.0799865722656)"><path fill="rgb(0,0,0)" fill-opacity="1" d=" M1.1729999780654907,336.0639953613281 C-1.3580000400543213,336.0639953613281 -3.885999917984009,335.093994140625 -5.828000068664551,333.1510009765625 C-5.828000068664551,333.1510009765625 -330.9880065917969,7.645999908447266 -330.9880065917969,7.645999908447266 C-332.8760070800781,5.75600004196167 -333.9410095214844,3.178999900817871 -333.9410095214844,0.4909999966621399 C-333.9410095214844,-2.197000026702881 -332.8789978027344,-4.77400016784668 -330.9880065917969,-6.663000106811523 C-330.9880065917969,-6.663000106811523 -5.828000068664551,-332.1679992675781 -5.828000068664551,-332.1679992675781 C-1.9320000410079956,-336.0639953613281 4.3420000076293945,-336.0480041503906 8.211000442504883,-332.1319885253906 C8.211000442504883,-332.1319885253906 330.052001953125,-6.626999855041504 330.052001953125,-6.626999855041504 C333.9410095214844,-2.697000026702881 333.9410095214844,3.678999900817871 330.052001953125,7.609000205993652 C330.052001953125,7.609000205993652 8.211000442504883,333.114013671875 8.211000442504883,333.114013671875 C6.269999980926514,335.0799865722656 3.7179999351501465,336.0639953613281 1.1729999780654907,336.0639953613281z M-309.83599853515625,0.4909999966621399 C-309.83599853515625,0.4909999966621399 1.1369999647140503,311.7980041503906 1.1369999647140503,311.7980041503906 C1.1369999647140503,311.7980041503906 308.9410095214844,0.4909999966621399 308.9410095214844,0.4909999966621399 C308.9410095214844,0.4909999966621399 1.1369999647140503,-310.81298828125 1.1369999647140503,-310.81298828125 C1.1369999647140503,-310.81298828125 -309.83599853515625,0.4909999966621399 -309.83599853515625,0.4909999966621399z"></path></g><g opacity="1" transform="matrix(1,-0.0002014933997998014,0.0002014933997998014,1,400.4289855957031,400.0350036621094)"><path fill="rgb(0,0,0)" fill-opacity="1" d=" M-160.9199981689453,292.4809875488281 C-162.64599609375,292.4809875488281 -164.35400390625,292.02801513671875 -165.8730010986328,291.1449890136719 C-168.16299438476562,289.8160095214844 -169.83900451660156,287.62200927734375 -170.5290069580078,285.0480041503906 C-170.5290069580078,285.0480041503906 -289.97601318359375,-161.26400756835938 -289.97601318359375,-161.26400756835938 C-290.6659851074219,-163.8509979248047 -290.3110046386719,-166.61199951171875 -288.9830017089844,-168.9340057373047 C-287.656005859375,-171.2570037841797 -285.46600341796875,-172.94400024414062 -282.9020080566406,-173.62899780273438 C-282.9020080566406,-173.62899780273438 158.38800048828125,-291.0790100097656 158.38800048828125,-291.0790100097656 C163.67300415039062,-292.48199462890625 169.08799743652344,-289.322998046875 170.52499389648438,-283.9909973144531 C170.52499389648438,-283.9909973144531 289.97198486328125,158.96299743652344 289.97198486328125,158.96299743652344 C290.6659851074219,161.54400634765625 290.3169860839844,164.2949981689453 289.0060119628906,166.61399841308594 C287.6919860839844,168.93299865722656 285.5190124511719,170.6280059814453 282.97100830078125,171.3260040283203 C282.97100830078125,171.3260040283203 -158.31900024414062,292.1319885253906 -158.31900024414062,292.1319885253906 C-159.1750030517578,292.36700439453125 -160.0469970703125,292.4809875488281 -160.9199981689453,292.4809875488281z M-268.1400146484375,-156.7429962158203 C-268.1400146484375,-156.7429962158203 -153.91299438476562,270.06500244140625 -153.91299438476562,270.06500244140625 C-153.91299438476562,270.06500244140625 268.1400146484375,154.5240020751953 268.1400146484375,154.5240020751953 C268.1400146484375,154.5240020751953 153.91200256347656,-269.07501220703125 153.91200256347656,-269.07501220703125 C153.91200256347656,-269.07501220703125 -268.1400146484375,-156.7429962158203 -268.1400146484375,-156.7429962158203z"></path></g><g opacity="1" transform="matrix(1,0,0,1,400.9159851074219,400.072998046875)"><path fill="rgb(0,0,0)" fill-opacity="1" d=" M1.1729999780654907,128.01400756835938 C-1.3289999961853027,128.01400756835938 -3.8340001106262207,127.06700134277344 -5.764999866485596,125.16500091552734 C-5.764999866485596,125.16500091552734 -125.21099853515625,7.715000152587891 -125.21099853515625,7.715000152587891 C-127.13999938964844,5.818999767303467 -128.22799682617188,3.2139999866485596 -128.22799682617188,0.4959999918937683 C-128.22799682617188,-2.2230000495910645 -127.13999938964844,-4.826000213623047 -125.21099853515625,-6.7230000495910645 C-125.21099853515625,-6.7230000495910645 -5.764999866485596,-124.1719970703125 -5.764999866485596,-124.1719970703125 C-1.8660000562667847,-128.01400756835938 4.364999771118164,-127.96499633789062 8.211000442504883,-124.0719985961914 C8.211000442504883,-124.0719985961914 124.33899688720703,-6.620999813079834 124.33899688720703,-6.620999813079834 C128.22799682617188,-2.690999984741211 128.22799682617188,3.684999942779541 124.33899688720703,7.614999771118164 C124.33899688720703,7.614999771118164 8.211000442504883,125.06500244140625 8.211000442504883,125.06500244140625 C6.269000053405762,127.03099822998047 3.7209999561309814,128.01400756835938 1.1729999780654907,128.01400756835938z M-103.99299621582031,0.4970000088214874 C-103.99299621582031,0.4970000088214874 1.0770000219345093,103.80899810791016 1.0770000219345093,103.80899810791016 C1.0770000219345093,103.80899810791016 103.22799682617188,0.4970000088214874 103.22799682617188,0.4970000088214874 C103.22799682617188,0.4970000088214874 1.0770000219345093,-102.81600189208984 1.0770000219345093,-102.81600189208984 C1.0770000219345093,-102.81600189208984 -103.99299621582031,0.4970000088214874 -103.99299621582031,0.4970000088214874z"></path></g></g></g>
</svg>