<svg xmlns="http://www.w3.org/2000/svg" viewBox="0 0 800 800" width="800" height="800" style="width: 100%; height: 100%; transform: translate3d(0px, 0px, 0px);" preserveAspectRatio="xMidYMid meet">
<defs><clipPath id="__lottie_element_2"><rect width="800" height="800" x="0" y="0"></rect></clipPath></defs><g clip-path="url(#__lottie_element_2)"><g style="display: block;" transform="matrix(1,0,0,1,40.480987548828125,32)" opacity="1"><g opacity="1" transform="matrix(1,0,0,1,307.80999755859375,354.75201416015625)"><path stroke-linecap="round" stroke-linejoin="round" fill-opacity="0" stroke="rgb(0,0,0)" stroke-opacity="1" stroke-width="14" d=" M-293.80999755859375,334.3240051269531 C-220.3090057373047,323.0159912109375 -38.027000427246094,258.33599853515625 103.09400177001953,90.07499694824219 C244.21600341796875,-78.18499755859375 290.4169921875,-267.6090087890625 293.80999755859375,-334.3240051269531"></path></g><g opacity="1" transform="matrix(1,0,0,1,580.52099609375,73.36599731445312)"><path stroke-linecap="round" stroke-linejoin="round" fill-opacity="0" stroke="rgb(0,0,0)" stroke-opacity="1" stroke-width="14" d=" M-105.16200256347656,22.049999237060547 C-105.16200256347656,22.049999237060547 23.746999740600586,-59.36600112915039 23.746999740600586,-59.36600112915039 C23.746999740600586,-59.36600112915039 105.16200256347656,59.36600112915039 105.16200256347656,59.36600112915039"></path></g><g opacity="1" transform="matrix(0.576800525188446,0,0,0.576800525188446,207.2480010986328,215.03399658203125)"><path stroke-linecap="round" stroke-linejoin="round" fill-opacity="0" stroke="rgb(0,0,0)" stroke-opacity="1" stroke-width="14" d=" M0,-88.20099639892578 C48.71200180053711,-88.20099639892578 88.20099639892578,-48.71200180053711 88.20099639892578,0 C88.20099639892578,48.71200180053711 48.71200180053711,88.20099639892578 0,88.20099639892578 C-48.71200180053711,88.20099639892578 -88.20099639892578,48.71200180053711 -88.20099639892578,0 C-88.20099639892578,-48.71200180053711 -48.71200180053711,-88.20099639892578 0,-88.20099639892578z"></path></g><g opacity="1" transform="matrix(0.17906253039836884,-0.8081627488136292,0.8081627488136292,0.17906253039836884,16.4599609375,999.1670532226562)"><g opacity="1" transform="matrix(1,0,0,1,618.6599731445312,607.6610107421875)"><path stroke-linecap="round" stroke-linejoin="round" fill-opacity="0" stroke="rgb(0,0,0)" stroke-opacity="1" stroke-width="14" d=" M-73.80899810791016,-80.59500122070312 C-73.80899810791016,-80.59500122070312 73.80799865722656,80.59400177001953 73.80799865722656,80.59400177001953"></path></g><g opacity="1" transform="matrix(1,0,0,1,618.6599731445312,608.072021484375)"><path stroke-linecap="round" stroke-linejoin="round" fill-opacity="0" stroke="rgb(0,0,0)" stroke-opacity="1" stroke-width="14" d=" M73.80899810791016,-81.00499725341797 C73.80899810791016,-81.00499725341797 -73.80799865722656,81.00499725341797 -73.80799865722656,81.00499725341797"></path></g></g></g></g>
</svg>