<svg xmlns="http://www.w3.org/2000/svg" viewBox="0 0 800 800" width="800" height="800" style="width: 100%; height: 100%; transform: translate3d(0px, 0px, 0px);" preserveAspectRatio="xMidYMid meet"><defs><clipPath id="__lottie_element_12"><rect width="800" height="800" x="0" y="0"></rect></clipPath></defs><g clip-path="url(#__lottie_element_12)"><g style="display: block;" transform="matrix(0.9886171221733093,0.037096478044986725,-0.037096478044986725,0.9886171221733093,19.3917236328125,-10.28546142578125)" opacity="1"><g opacity="1" transform="matrix(1,0,0,1,343.5690002441406,507.593994140625)"><path fill="rgb(0,0,0)" fill-opacity="1" d=" M269.9100036621094,152.656005859375 C269.9100036621094,152.656005859375 191.39999389648438,131.99400329589844 191.39999389648438,131.99400329589844 C186.58299255371094,130.72500610351562 181.64999389648438,133.60699462890625 180.38299560546875,138.42300415039062 C179.11500549316406,143.24000549316406 181.99200439453125,148.1699981689453 186.81100463867188,149.43899536132812 C186.81100463867188,149.43899536132812 242.48699951171875,164.08999633789062 242.48699951171875,164.08999633789062 C237.2760009765625,166.5399932861328 231.16299438476562,169.28599548339844 224.25100708007812,172.17599487304688 C199.6020050048828,182.4770050048828 164.8800048828125,194.58700561523438 124.56500244140625,201.84500122070312 C43.930999755859375,216.35499572753906 -58.22800064086914,211.37600708007812 -147.57699584960938,134.7899932861328 C-237.16099548339844,58.00600051879883 -259.5610046386719,-36.20500183105469 -259.5610046386719,-111.65399932861328 C-259.5610046386719,-149.43499755859375 -253.92999267578125,-182.43099975585938 -248.2949981689453,-205.97900390625 C-245.47999572753906,-217.7429962158203 -242.6699981689453,-227.11900329589844 -240.5780029296875,-233.52000427246094 C-239.53199768066406,-236.72000122070312 -238.66700744628906,-239.17300415039062 -238.07000732421875,-240.8070068359375 C-237.77200317382812,-241.62399291992188 -237.54100036621094,-242.23699951171875 -237.38900756835938,-242.63400268554688 C-237.31300354003906,-242.83299255371094 -237.25599670410156,-242.97799682617188 -237.2209930419922,-243.06900024414062 C-237.2030029296875,-243.11399841308594 -237.1909942626953,-243.14500427246094 -237.1840057373047,-243.16299438476562 C-237.17999267578125,-243.1719970703125 -237.17799377441406,-243.177001953125 -237.177001953125,-243.1790008544922 C-237.17799377441406,-243.177001953125 -237.1790008544922,-243.1750030517578 -245.5540008544922,-246.52499389648438 C-253.9290008544922,-249.875 -253.93099975585938,-249.86900329589844 -253.93299865722656,-249.86399841308594 C-253.9340057373047,-249.86099243164062 -253.93699645996094,-249.85400390625 -253.93899536132812,-249.84800720214844 C-253.94400024414062,-249.83599853515625 -253.9499969482422,-249.8209991455078 -253.95799255371094,-249.80099487304688 C-253.97300720214844,-249.76300048828125 -253.9929962158203,-249.71099853515625 -254.0189971923828,-249.64500427246094 C-254.0709991455078,-249.51300048828125 -254.1439971923828,-249.32699584960938 -254.23599243164062,-249.0850067138672 C-254.4219970703125,-248.6009979248047 -254.68600463867188,-247.89999389648438 -255.01699829101562,-246.99200439453125 C-255.67999267578125,-245.17599487304688 -256.6130065917969,-242.52999877929688 -257.72601318359375,-239.12399291992188 C-259.95098876953125,-232.3159942626953 -262.89898681640625,-222.468994140625 -265.8399963378906,-210.17799377441406 C-271.7179870605469,-185.61599731445312 -277.60101318359375,-151.17799377441406 -277.60101318359375,-111.65399932861328 C-277.60101318359375,-32.494998931884766 -253.94700622558594,67.375 -159.31700134277344,148.48899841308594 C-64.4520034790039,229.80099487304688 43.917999267578125,234.6909942626953 127.76100158691406,219.59800720214844 C169.68499755859375,212.05099487304688 205.68699645996094,199.48899841308594 231.20799255371094,188.8209991455078 C240.0070037841797,185.14100646972656 247.57400512695312,181.68099975585938 253.72300720214844,178.7220001220703 C253.72300720214844,178.7220001220703 238.23199462890625,237.58999633789062 238.23199462890625,237.58999633789062 C236.96299743652344,242.406005859375 239.83700561523438,247.3419952392578 244.66000366210938,248.60499572753906 C249.4770050048828,249.87399291992188 254.4080047607422,247.00100708007812 255.67599487304688,242.1840057373047 C255.67599487304688,242.1840057373047 276.3380126953125,163.67300415039062 276.3380126953125,163.67300415039062 C277.60101318359375,158.85699462890625 274.72698974609375,153.9250030517578 269.9100036621094,152.656005859375z"></path></g><g opacity="1" transform="matrix(1,0,0,1,451.23699951171875,281.2359924316406)"><path fill="rgb(0,0,0)" fill-opacity="1" d=" M282.4079895019531,99.45600128173828 C278.9320068359375,20.37299919128418 250.91600036621094,-78.36399841308594 152.81399536132812,-155.2429962158203 C54.47200012207031,-232.31199645996094 -54.00899887084961,-232.43699645996094 -137.10800170898438,-213.6790008544922 C-178.65899658203125,-204.2989959716797 -214.0780029296875,-190.16600036621094 -239.10299682617188,-178.38900756835938 C-247.73300170898438,-174.32699584960938 -255.13900756835938,-170.54100036621094 -261.1520080566406,-167.31399536132812 C-261.1520080566406,-167.31399536132812 -248.26100158691406,-226.80299377441406 -248.26100158691406,-226.80299377441406 C-247.20599365234375,-231.67100524902344 -250.2969970703125,-236.4739990234375 -255.1649932861328,-237.5290069580078 C-260.03399658203125,-238.58399963378906 -264.8370056152344,-235.49200439453125 -265.8919982910156,-230.62399291992188 C-265.8919982910156,-230.62399291992188 -283.0849914550781,-151.28500366210938 -283.0849914550781,-151.28500366210938 C-284.1400146484375,-146.41600036621094 -281.0480041503906,-141.61399841308594 -276.1789855957031,-140.5590057373047 C-276.1789855957031,-140.5590057373047 -196.83999633789062,-123.36599731445312 -196.83999633789062,-123.36599731445312 C-191.9720001220703,-122.31099700927734 -187.17100524902344,-125.40299987792969 -186.11500549316406,-130.27099609375 C-185.05999755859375,-135.13900756835938 -188.15199279785156,-139.94200134277344 -193.02000427246094,-140.9969940185547 C-193.02000427246094,-140.9969940185547 -249.2830047607422,-153.18899536132812 -249.2830047607422,-153.18899536132812 C-244.18499755859375,-155.86500549316406 -238.2010040283203,-158.875 -231.42100524902344,-162.0659942626953 C-207.24899291992188,-173.44200134277344 -173.0919952392578,-187.06199645996094 -133.13499450683594,-196.08200073242188 C-53.215999603271484,-214.1219940185547 49.0629997253418,-213.63099670410156 141.68899536132812,-141.04299926757812 C234.55999755859375,-68.26399993896484 261.0719909667969,24.871999740600586 264.385009765625,100.24800109863281 C266.0450134277344,137.99200439453125 261.864990234375,171.20399475097656 257.27099609375,194.9770050048828 C254.9739990234375,206.85299682617188 252.58099365234375,216.34100341796875 250.77099609375,222.8300018310547 C249.86300659179688,226.0709991455078 249.11099243164062,228.55999755859375 248.58200073242188,230.22000122070312 C248.322998046875,231.0500030517578 248.11900329589844,231.66900634765625 247.9810028076172,232.0780029296875 C247.91400146484375,232.27699279785156 247.86599731445312,232.427001953125 247.83599853515625,232.51699829101562 C247.8179931640625,232.56500244140625 247.80599975585938,232.59500122070312 247.8000030517578,232.61300659179688 C247.8000030517578,232.61900329589844 247.79400634765625,232.625 247.79400634765625,232.63099670410156 C247.79400634765625,232.625 247.8000030517578,232.62399291992188 256.3089904785156,235.6009979248047 C264.8240051269531,238.58399963378906 264.8299865722656,238.57899475097656 264.8299865722656,238.572998046875 C264.8299865722656,238.56700134277344 264.8299865722656,238.55999755859375 264.83599853515625,238.5540008544922 C264.83599853515625,238.54200744628906 264.8420104980469,238.531005859375 264.85400390625,238.50599670410156 C264.8659973144531,238.47000122070312 264.8840026855469,238.41600036621094 264.9079895019531,238.35000610351562 C264.95001220703125,238.21800231933594 265.0159912109375,238.0240020751953 265.10101318359375,237.7779998779297 C265.26300048828125,237.29100036621094 265.4909973144531,236.5760040283203 265.7860107421875,235.656005859375 C266.3689880371094,233.80999755859375 267.1809997558594,231.1280059814453 268.14898681640625,227.67599487304688 C270.0740051269531,220.7790069580078 272.58099365234375,210.80999755859375 274.9809875488281,198.4010009765625 C279.77301025390625,173.6060028076172 284.1400146484375,138.9409942626953 282.4079895019531,99.45600128173828z"></path></g></g></g></svg>