<svg width="305" height="34" viewBox="0 0 305 34" fill="none" xmlns="http://www.w3.org/2000/svg">
<g clip-path="url(#clip0)">
<path d="M0 10.0465V9.2788L6.95909 3.22461H7.48265L7.82443 3.58289L7.48265 8.21128H11.9039L12.1729 8.50375V10.0465L11.9039 10.3244H7.48265V20.2319C7.41685 21.1196 7.67541 22.001 8.20983 22.7106C8.46052 22.981 8.76649 23.1935 9.10668 23.3336C9.44687 23.4738 9.8132 23.5381 10.1805 23.5222C11.5767 23.5222 12.5293 22.7326 13.0892 21.1386L13.4455 21.007L13.8164 21.1386L14.0054 21.4457C13.9169 21.8955 13.8028 22.3398 13.6637 22.7764C13.5233 23.2082 13.3303 23.6208 13.0892 24.0048C12.8376 24.4195 12.5093 24.7819 12.122 25.0724C11.6824 25.3979 11.1905 25.6452 10.6677 25.8035C9.97671 25.9975 9.26168 26.0911 8.54433 26.0814C7.80499 26.0881 7.06908 25.9796 6.3628 25.7597C5.71522 25.5431 5.11526 25.203 4.59576 24.7579C4.04665 24.2577 3.62729 23.6302 3.3741 22.93C3.05534 22.067 2.89757 21.1524 2.90871 20.2319V11.699C2.9072 11.5143 2.86765 11.3318 2.79256 11.1632C2.71747 10.9946 2.60846 10.8434 2.4724 10.7192C2.33955 10.5856 2.18032 10.4814 2.00498 10.4134C1.82963 10.3454 1.64206 10.3151 1.45435 10.3244H0.290871L0 10.0465Z" fill="white"/>
<path d="M14.9727 25.2916V23.7488L15.2417 23.4563H15.6707C16.0332 23.4323 16.3746 23.2766 16.6314 23.0184C16.8883 22.7601 17.043 22.4168 17.0669 22.0524V5.26446C17.064 5.08102 17.0238 4.90012 16.9487 4.73288C16.8737 4.56564 16.7654 4.41561 16.6306 4.29199C16.5076 4.15897 16.3592 4.05221 16.1943 3.9781C16.0294 3.90398 15.8514 3.86402 15.6707 3.86059H15.3144L14.9727 3.51693V2.44941L20.6301 0.255859H21.67L22.0335 0.614139L21.67 3.83866V10.3316C22.374 9.47464 23.2652 8.79264 24.2742 8.33862C25.2832 7.88461 26.3828 7.67083 27.4874 7.71392C29.1462 7.63034 30.7759 8.17568 32.0541 9.2421C32.6438 9.81778 33.1021 10.5155 33.3972 11.2869C33.6922 12.0583 33.817 12.8849 33.7629 13.7096V22.0524C33.7664 22.2347 33.8069 22.4143 33.882 22.5803C33.957 22.7463 34.0649 22.8951 34.1992 23.0176C34.3227 23.1525 34.472 23.2609 34.6382 23.3363C34.8044 23.4117 34.9841 23.4525 35.1664 23.4563H35.5809L35.8717 23.7488V25.2916L35.5809 25.5621H27.3347L27.0293 25.2916V23.7488L27.3201 23.4563H27.7346C27.9169 23.4525 28.0966 23.4117 28.2628 23.3363C28.429 23.2609 28.5783 23.1525 28.7018 23.0176C28.836 22.8951 28.944 22.7463 29.019 22.5803C29.0941 22.4143 29.1346 22.2347 29.1381 22.0524V13.8924C29.1682 13.4397 29.107 12.9854 28.9583 12.557C28.8096 12.1286 28.5765 11.7347 28.2727 11.3991C27.9531 11.0939 27.5745 10.8579 27.1605 10.7057C26.7465 10.5535 26.3058 10.4884 25.8658 10.5144C25.3117 10.5087 24.7625 10.6189 24.2531 10.8379C23.7436 11.0569 23.2849 11.38 22.9062 11.7866C22.4879 12.2319 22.163 12.7571 21.9506 13.3311C21.7383 13.9052 21.6428 14.5163 21.67 15.1281V22.0744C21.694 22.44 21.8498 22.7842 22.1082 23.0426C22.3665 23.301 22.7097 23.4559 23.0734 23.4782H23.4952L23.7715 23.7707V25.3135L23.4952 25.584H15.2708L14.9727 25.2916Z" fill="white"/>
<path d="M37.4425 16.7592C37.4319 15.1444 37.8647 13.558 38.6932 12.1747C39.5108 10.8108 40.6723 9.68832 42.06 8.92095C43.3477 8.22548 44.7726 7.82545 46.2324 7.74959C47.6921 7.67374 49.1504 7.92395 50.5026 8.48224C51.5489 8.92901 52.4721 9.62394 53.1931 10.5076C53.8736 11.3625 54.3958 12.3333 54.7347 13.3739C55.0955 14.4653 55.2749 15.6091 55.2656 16.7592L54.8075 17.0298L42.0528 18.1265C42.1272 18.7811 42.3292 19.4144 42.6474 19.9903C42.9656 20.5662 43.3937 21.0734 43.9071 21.4827C45.0264 22.3579 46.4168 22.8084 47.8338 22.7549C49.145 22.8047 50.4462 22.5066 51.6065 21.8905C52.7668 21.2744 53.7453 20.3621 54.4439 19.2452L54.8002 19.1063L55.1783 19.2452L55.3674 19.6035C54.8966 21.501 53.7915 23.178 52.2372 24.3535C50.6829 25.529 48.7739 26.1314 46.8303 26.0599C45.1301 26.0945 43.4504 25.6811 41.9582 24.8607C40.5589 24.079 39.4052 22.9189 38.6278 21.5119C37.8264 20.0591 37.4177 18.4204 37.4425 16.7592ZM41.9801 15.8672L42.0673 16.1085L49.1137 15.5455C49.3334 15.55 49.5519 15.5096 49.7556 15.4266C49.9594 15.3437 50.1442 15.2199 50.299 15.0629C50.5413 14.7754 50.6706 14.4087 50.6625 14.0319C50.7198 12.9118 50.3417 11.8132 49.6081 10.9683C49.2525 10.5903 48.8207 10.2931 48.3417 10.0964C47.8627 9.89967 47.3474 9.80804 46.8303 9.82761C46.1679 9.80476 45.5097 9.94228 44.9111 10.2286C44.3125 10.5149 43.7911 10.9416 43.3908 11.4728C42.4798 12.7556 41.9869 14.2909 41.9801 15.8672Z" fill="white"/>
<path d="M68.1353 16.8981C68.1188 15.5729 68.3481 14.2562 68.8116 13.0155C69.1952 11.9563 69.8 10.9919 70.5852 10.1873C71.3704 9.38265 72.3178 8.75637 73.3637 8.35056C74.4229 7.93659 75.5505 7.72818 76.6869 7.73636C77.6982 7.7061 78.7051 7.88156 79.6473 8.25221C80.5895 8.62287 81.4475 9.18108 82.1698 9.89335V5.27227C82.1662 5.08965 82.1263 4.90959 82.0527 4.74261C81.979 4.57564 81.873 4.4251 81.7408 4.2998C81.6164 4.16656 81.4668 4.05974 81.3007 3.98564C81.1345 3.91155 80.9553 3.87168 80.7736 3.8684H80.4173L80.0756 3.52475V2.45722L85.733 0.263672H86.7729L87.1146 0.621952L86.7729 3.84647V22.0529C86.7969 22.4185 86.9527 22.7628 87.2111 23.0212C87.4694 23.2796 87.8126 23.4345 88.1763 23.4568H88.5835L88.8744 23.7493V25.2921L88.5835 25.5626H82.4607L82.1844 25.2921V23.7493C81.4824 24.5211 80.6202 25.1282 79.6588 25.5275C78.6975 25.9269 77.6605 26.1086 76.6215 26.0598C75.4832 26.0911 74.3514 25.8777 73.3018 25.4339C72.2522 24.99 71.3089 24.3259 70.535 23.486C68.9071 21.6913 68.0453 19.3255 68.1353 16.8981ZM73.0074 14.2585C72.8209 15.1257 72.7307 16.0109 72.7383 16.8981C72.7307 17.7852 72.8209 18.6705 73.0074 19.5377C73.1717 20.3152 73.4434 21.0659 73.8146 21.7678C74.157 22.4405 74.678 23.0049 75.3198 23.3983C75.9981 23.798 76.7735 24.0005 77.5595 23.9832C78.3262 23.9927 79.0808 23.7904 79.7411 23.3983C80.3779 23.0102 80.902 22.4604 81.2608 21.8043C81.645 21.1027 81.9266 20.3492 82.0971 19.5669C82.4655 17.8267 82.4655 16.028 82.0971 14.2878C81.9253 13.5035 81.6438 12.7477 81.2608 12.043C80.8996 11.3906 80.3759 10.8438 79.7411 10.4564C79.0808 10.0643 78.3262 9.86194 77.5595 9.87142C76.7735 9.85417 75.9981 10.0567 75.3198 10.4564C74.682 10.8418 74.1614 11.3956 73.8146 12.0577C73.4448 12.7499 73.1731 13.4907 73.0074 14.2585Z" fill="white"/>
<path d="M90.4761 16.7591C90.461 15.1437 90.8941 13.556 91.7269 12.1745C92.5425 10.8091 93.7045 9.68616 95.0937 8.92077C96.3801 8.22544 97.8038 7.82545 99.2624 7.74959C100.721 7.67374 102.178 7.92389 103.529 8.48206C104.578 8.92497 105.502 9.62055 106.22 10.5074C106.9 11.3637 107.424 12.334 107.768 13.3737C108.123 14.4664 108.3 15.6096 108.292 16.7591L107.834 17.0296L95.0792 18.1264C95.2355 19.4463 95.9015 20.6517 96.9335 21.4825C98.0562 22.3566 99.4485 22.8068 100.867 22.7548C102.179 22.8045 103.48 22.5064 104.64 21.8903C105.8 21.2742 106.779 20.3619 107.478 19.2451L107.834 19.1061L108.212 19.2451L108.394 19.6034C107.926 21.5009 106.822 23.1785 105.269 24.3543C103.716 25.5301 101.807 26.1323 99.864 26.0597C98.1614 26.0943 96.4794 25.6809 94.9846 24.8606C93.5733 24.075 92.4094 22.9072 91.6251 21.4898C90.8426 20.039 90.4467 18.4092 90.4761 16.7591ZM95.0137 15.867L95.101 16.1083L102.14 15.5453C102.361 15.55 102.58 15.5096 102.785 15.4267C102.99 15.3438 103.177 15.2199 103.333 15.0627C103.572 14.7742 103.699 14.4076 103.689 14.0317C103.749 12.9112 103.371 11.8114 102.635 10.9681C102.28 10.5911 101.849 10.2944 101.371 10.0977C100.894 9.90106 100.38 9.80892 99.864 9.82744C99.2015 9.80459 98.5433 9.9421 97.9448 10.2284C97.3462 10.5147 96.8248 10.9414 96.4244 11.4726C95.5104 12.7539 95.0172 14.2902 95.0137 15.867Z" fill="white"/>
<path d="M110.065 24.1287L111.003 20.3412L111.36 19.9829H112.4L112.763 20.3412C112.704 21.3483 112.981 22.3465 113.549 23.1782C113.82 23.52 114.169 23.791 114.566 23.9679C114.964 24.1449 115.398 24.2226 115.832 24.1945C116.396 24.211 116.948 24.0243 117.388 23.668C117.778 23.3639 118.08 22.9598 118.261 22.4982C118.42 22.1097 118.511 21.6966 118.53 21.2771C118.537 20.9373 118.478 20.5995 118.355 20.2827C118.254 20.0194 118.115 19.773 117.941 19.5515C117.72 19.3116 117.456 19.1157 117.163 18.9739C116.834 18.7927 116.494 18.6339 116.145 18.4986C115.825 18.3743 115.374 18.2134 114.792 18.0233C113.593 17.6728 112.51 17.0034 111.658 16.0857C110.927 15.2666 110.525 14.2031 110.531 13.1025C110.511 12.3571 110.664 11.6173 110.978 10.942C111.293 10.2667 111.759 9.67447 112.342 9.21256C113.639 8.19954 115.252 7.68145 116.894 7.7502C118.477 7.71333 120.048 8.04621 121.482 8.72267L121.7 9.06633L121.853 12.9416L121.511 13.2853H120.457L120.115 12.9416C120.154 12.0637 119.881 11.2006 119.344 10.5068C119.077 10.1918 118.741 9.94285 118.363 9.77928C117.985 9.61572 117.574 9.5419 117.163 9.56353C116.476 9.52815 115.802 9.75249 115.272 10.1923C115.033 10.4073 114.843 10.6728 114.718 10.9698C114.592 11.2668 114.533 11.5881 114.545 11.9106C114.54 12.2911 114.622 12.6676 114.785 13.0111C114.947 13.3546 115.186 13.656 115.483 13.8921C116.315 14.5361 117.259 15.0173 118.268 15.3106C118.952 15.4847 119.621 15.7146 120.268 15.9979C120.789 16.2432 121.277 16.5526 121.722 16.9192C122.167 17.2823 122.516 17.7492 122.74 18.2792C122.991 18.9239 123.112 19.6124 123.096 20.3046C123.122 21.4406 122.774 22.5532 122.107 23.4706C121.467 24.3436 120.595 25.0177 119.591 25.4156C118.506 25.8361 117.351 26.0446 116.188 26.0298C114.099 26.0991 112.035 25.5636 110.24 24.487L110.065 24.1287Z" fill="white"/>
<path d="M124.063 25.2919V23.7491L124.34 23.4567H124.769C125.131 23.4326 125.473 23.277 125.73 23.0187C125.986 22.7605 126.141 22.4172 126.165 22.0528V13.2055C126.143 12.8397 125.989 12.4947 125.732 12.2349C125.475 11.9752 125.132 11.8185 124.769 11.7943H124.405L124.063 11.4506V10.3904L129.728 8.19686H130.768L131.124 8.55514L130.768 11.7797V22.0162C130.792 22.3807 130.947 22.7239 131.204 22.9822C131.46 23.2404 131.802 23.3961 132.164 23.4201H132.593L132.862 23.7126V25.2554L132.593 25.5259H124.347L124.063 25.2919ZM125.598 2.92503C125.592 2.53855 125.664 2.15488 125.809 1.79688C125.954 1.43887 126.169 1.11385 126.441 0.841163C126.704 0.570026 127.018 0.355594 127.366 0.211006C127.713 0.0664186 128.087 -0.00528032 128.463 0.000302706C128.848 -0.00428373 129.231 0.0698143 129.587 0.218114C129.943 0.366414 130.266 0.585834 130.535 0.863099C130.811 1.13009 131.029 1.45048 131.178 1.80489C131.327 2.1593 131.403 2.54037 131.401 2.92503C131.405 3.30569 131.33 3.68301 131.181 4.03297C131.032 4.38293 130.812 4.69787 130.535 4.95772C130.269 5.24097 129.948 5.46627 129.591 5.6197C129.235 5.77313 128.851 5.85143 128.463 5.84977C128.086 5.85527 127.712 5.78282 127.364 5.63691C127.017 5.491 126.703 5.27475 126.441 5.00159C126.165 4.73342 125.947 4.41025 125.802 4.05271C125.657 3.69517 125.587 3.3111 125.598 2.92503Z" fill="white"/>
<path d="M134.113 24.9261V22.9226L137.676 19.0693C136.834 18.5205 136.128 17.7852 135.611 16.9196C135.096 16.0514 134.829 15.057 134.84 14.0461C134.83 13.1938 135.006 12.3497 135.357 11.5737C135.707 10.7977 136.224 10.109 136.869 9.55662C138.256 8.32906 140.055 7.67812 141.901 7.73597C142.848 7.7321 143.787 7.89289 144.679 8.21124H149.442L149.711 8.50371V10.0465L149.442 10.3244H147.617C148.594 11.5115 149.065 13.0383 148.929 14.573C148.793 16.1077 148.06 17.5264 146.89 18.5209C145.506 19.7608 143.703 20.4225 141.85 20.3708C141.075 20.3714 140.305 20.2505 139.567 20.0125L138.222 21.4164H145.181C146.839 21.3113 148.479 21.8125 149.798 22.8276C150.332 23.2711 150.758 23.8306 151.046 24.4639C151.333 25.0971 151.473 25.7877 151.456 26.4835C151.486 27.9746 150.968 29.4244 150.002 30.5562C148.983 31.7316 147.677 32.6209 146.214 33.1373C144.62 33.7095 142.939 33.9942 141.247 33.9781C139.036 33.9781 137.34 33.5126 136.157 32.5816C135.611 32.1946 135.165 31.6822 134.857 31.087C134.548 30.4917 134.385 29.8309 134.382 29.1596C134.462 27.9727 134.981 26.8589 135.837 26.0375L136.564 25.1966H134.382L134.113 24.9261ZM136.906 28.9403C136.906 30.622 138.338 31.4629 141.203 31.4629C142.148 31.4688 143.087 31.3156 143.981 31.0095C144.772 30.7479 145.491 30.3048 146.083 29.7153C146.338 29.4636 146.541 29.1633 146.679 28.8319C146.818 28.5004 146.89 28.1445 146.89 27.785C146.902 27.4179 146.823 27.0534 146.659 26.7251C146.495 26.3967 146.252 26.115 145.952 25.9059C145.167 25.3791 144.233 25.1225 143.29 25.1747H139.422L137.778 27.0538C137.255 27.5453 136.943 28.2216 136.906 28.9403ZM139.618 10.9678C139.025 11.8798 138.737 12.9582 138.796 14.0461C138.739 15.1361 139.027 16.2164 139.618 17.1317C139.89 17.4839 140.238 17.769 140.637 17.9652C141.035 18.1613 141.472 18.2632 141.916 18.2632C142.359 18.2632 142.797 18.1613 143.195 17.9652C143.593 17.769 143.942 17.4839 144.214 17.1317C144.796 16.213 145.079 15.1341 145.021 14.0461C145.08 12.9582 144.792 11.8798 144.199 10.9678C143.927 10.6182 143.579 10.3355 143.183 10.1411C142.786 9.94667 142.35 9.84562 141.909 9.84562C141.467 9.84562 141.031 9.94667 140.635 10.1411C140.238 10.3355 139.89 10.6182 139.618 10.9678Z" fill="white"/>
<path d="M152.511 25.2914V23.7486L152.78 23.4562H153.209C153.571 23.4321 153.913 23.2765 154.17 23.0183C154.426 22.76 154.581 22.4167 154.605 22.0523V13.205C154.583 12.8392 154.429 12.4942 154.172 12.2344C153.915 11.9747 153.572 11.818 153.209 11.7938H152.853L152.511 11.4501V10.6458L152.78 10.2876L157.797 8.211H158.852L159.194 8.56928L158.852 10.8506C159.495 9.89515 160.358 9.11004 161.368 8.56196C162.444 7.9979 163.644 7.71385 164.858 7.73573C166.488 7.64803 168.088 8.1924 169.33 9.25659C169.911 9.83845 170.361 10.5393 170.648 11.3115C170.935 12.0837 171.054 12.909 170.996 13.7314V22.0523C171.019 22.4167 171.174 22.76 171.431 23.0183C171.688 23.2765 172.029 23.4321 172.392 23.4562H172.821L173.09 23.7486V25.2914L172.821 25.562H164.582L164.306 25.2914V23.7486L164.582 23.4562H165.004C165.367 23.4338 165.711 23.279 165.969 23.0206C166.227 22.7621 166.383 22.4179 166.407 22.0523V13.8923C166.439 13.4313 166.375 12.9688 166.218 12.5343C166.061 12.0999 165.816 11.7032 165.498 11.3697C164.847 10.7792 163.989 10.4717 163.113 10.5142C162.585 10.5018 162.06 10.6075 161.577 10.8237C161.094 11.0399 160.665 11.3613 160.321 11.7645C159.542 12.705 159.145 13.906 159.208 15.128V22.0742C159.232 22.4387 159.387 22.7819 159.644 23.0402C159.9 23.2984 160.242 23.4541 160.604 23.4781H161.033L161.31 23.7706V25.3134L161.033 25.5839H152.78L152.511 25.2914Z" fill="white"/>
<path d="M185.364 31.6686L185.641 31.3981H186.062C186.428 31.3754 186.773 31.2185 187.032 30.957C187.291 30.6956 187.445 30.3478 187.466 29.9796V13.2209C187.443 12.854 187.288 12.508 187.03 12.248C186.771 11.9881 186.427 11.8322 186.062 11.8097H185.706L185.364 11.4734V10.6617L185.641 10.3035L190.673 8.21229H191.727L192.069 8.57788L191.727 10.8738C192.361 9.90838 193.226 9.11884 194.243 8.57788C195.282 8.01629 196.445 7.72709 197.624 7.73702C198.757 7.69148 199.886 7.88384 200.94 8.30182C201.995 8.71979 202.951 9.3542 203.747 10.1645C205.318 11.7805 206.103 14.0325 206.103 16.8987C206.121 18.2288 205.892 19.5505 205.427 20.7959C205.049 21.8555 204.447 22.8201 203.663 23.6229C202.878 24.4258 201.929 25.0479 200.882 25.4463C199.823 25.8602 198.695 26.0686 197.559 26.0605C196.494 26.0738 195.439 25.8516 194.469 25.4097C193.574 25.0123 192.761 24.452 192.069 23.7572V29.9796C192.072 30.163 192.112 30.3439 192.187 30.5112C192.262 30.6784 192.37 30.8285 192.505 30.9521C192.627 31.0874 192.775 31.1962 192.94 31.2717C193.105 31.3472 193.284 31.3877 193.465 31.3908H193.894L194.163 31.6613V33.2041L193.894 33.4966H185.641L185.364 33.2041V31.6686ZM192.134 14.2592C191.949 15.1266 191.859 16.0117 191.865 16.8987C191.86 17.783 191.948 18.6653 192.127 19.531C192.292 20.3129 192.569 21.0665 192.949 21.7684C193.293 22.4397 193.814 23.0035 194.454 23.399C195.114 23.7903 195.869 23.9926 196.636 23.9839C197.428 23.9991 198.21 23.7969 198.897 23.399C199.535 23.0135 200.055 22.4597 200.402 21.7977C200.775 21.0973 201.045 20.3461 201.202 19.5676C201.38 18.6993 201.465 17.8144 201.457 16.928C201.465 16.0415 201.38 15.1567 201.202 14.2884C201.045 13.5099 200.775 12.7586 200.402 12.0583C200.055 11.3963 199.535 10.8425 198.897 10.457C198.21 10.059 197.428 9.85682 196.636 9.87207C195.876 9.85644 195.127 10.0533 194.472 10.4406C193.817 10.8279 193.282 11.3905 192.927 12.0656C192.563 12.7565 192.297 13.4947 192.134 14.2592Z" fill="white"/>
<path d="M207.704 25.2921V23.7493L207.98 23.4568H208.402C208.768 23.4424 209.115 23.2898 209.374 23.0296C209.632 22.7694 209.784 22.4206 209.798 22.0529V13.2056C209.786 12.8366 209.635 12.4861 209.376 12.2243C209.117 11.9626 208.769 11.809 208.402 11.7944H208.046L207.704 11.4508V10.6465L207.98 10.2882L213.005 8.21164H214.067L214.409 8.56992L214.067 11.1656C214.482 10.1835 215.137 9.32317 215.972 8.66498C216.809 8.03292 217.835 7.70549 218.881 7.73638C219.649 7.70839 220.396 7.98702 220.961 8.51143C221.228 8.75773 221.441 9.05861 221.584 9.394C221.727 9.72938 221.797 10.0916 221.79 10.4564C221.801 10.8082 221.742 11.1588 221.617 11.4877C221.493 11.8166 221.304 12.1172 221.062 12.3721C220.82 12.6151 220.53 12.8055 220.211 12.9312C219.892 13.057 219.55 13.1156 219.208 13.1033C218.861 13.1103 218.517 13.0436 218.197 12.9075C217.878 12.7714 217.59 12.569 217.354 12.3136C217.113 12.058 216.925 11.7573 216.8 11.4285C216.676 11.0998 216.617 10.7496 216.627 10.3979C215.902 10.8967 215.347 11.6058 215.034 12.4306C214.603 13.4264 214.39 14.5035 214.409 15.5893V22.0895C214.423 22.4572 214.575 22.806 214.834 23.0662C215.092 23.3264 215.439 23.4789 215.805 23.4934H216.227L216.503 23.7858V25.3286L216.227 25.5992H207.973L207.704 25.2921Z" fill="white"/>
<path d="M223.614 16.8983C223.6 15.6562 223.848 14.4253 224.341 13.2862C224.819 12.1863 225.508 11.1924 226.37 10.3615C227.24 9.5312 228.263 8.87819 229.38 8.43847C231.732 7.50228 234.351 7.50228 236.703 8.43847C237.823 8.87818 238.847 9.53113 239.721 10.3615C240.584 11.1905 241.274 12.1849 241.75 13.2862C242.258 14.4215 242.518 15.6532 242.513 16.8983C242.527 18.5382 242.084 20.1492 241.233 21.5486C240.397 22.9407 239.207 24.0839 237.786 24.8608C236.333 25.6442 234.709 26.0541 233.06 26.0541C231.411 26.0541 229.787 25.6442 228.333 24.8608C226.91 24.0868 225.72 22.9429 224.886 21.5486C224.038 20.1484 223.598 18.5375 223.614 16.8983ZM229.475 11.78C228.571 13.3272 228.133 15.1056 228.217 16.8983C228.133 18.6909 228.571 20.4693 229.475 22.0165C229.875 22.6047 230.413 23.0858 231.04 23.4182C231.667 23.7506 232.365 23.9243 233.074 23.9243C233.783 23.9243 234.482 23.7506 235.109 23.4182C235.736 23.0858 236.273 22.6047 236.674 22.0165C237.584 20.4714 238.024 18.692 237.939 16.8983C238.024 15.1045 237.584 13.3251 236.674 11.78C236.273 11.1918 235.736 10.7107 235.109 10.3783C234.482 10.0459 233.783 9.87217 233.074 9.87217C232.365 9.87217 231.667 10.0459 231.04 10.3783C230.413 10.7107 229.875 11.1918 229.475 11.78Z" fill="white"/>
<path d="M242.302 31.1851C242.295 30.8437 242.356 30.5043 242.481 30.1867C242.606 29.8691 242.792 29.5797 243.03 29.3353C243.279 29.0872 243.578 28.894 243.906 28.7681C244.234 28.6423 244.584 28.5864 244.935 28.6041C245.283 28.5888 245.631 28.6509 245.952 28.7862C246.274 28.9214 246.562 29.1264 246.796 29.3864C247.292 29.9552 247.552 30.6929 247.523 31.4484C248.382 30.8927 248.818 29.8836 248.818 28.4359L248.542 28.0411L246.513 27.2075L246.236 26.9004V13.2054C246.224 12.8364 246.073 12.4858 245.814 12.224C245.555 11.9623 245.207 11.8087 244.84 11.7942H244.484L244.142 11.4505V10.3903L249.807 8.19676H250.876L251.232 8.55504L250.876 11.7942V28.1361C250.895 29.0871 250.732 30.0329 250.396 30.9219C250.134 31.6348 249.693 32.2672 249.116 32.7572C248.616 33.1724 248.044 33.492 247.429 33.7004C246.821 33.9005 246.185 34.0017 245.546 34.0002C244.701 34.0366 243.872 33.758 243.219 33.2178C242.924 32.9695 242.689 32.658 242.531 32.3062C242.372 31.9544 242.294 31.5713 242.302 31.1851ZM245.676 2.92493C245.673 2.54264 245.745 2.16344 245.888 1.80944C246.032 1.45543 246.244 1.1337 246.513 0.862996C246.774 0.586986 247.089 0.367959 247.438 0.219531C247.787 0.071103 248.163 -0.00355401 248.542 0.000200615C248.927 -0.00438582 249.309 0.0697122 249.666 0.218012C250.022 0.366312 250.345 0.585732 250.614 0.862996C250.888 1.13035 251.106 1.45097 251.253 1.80541C251.401 2.15985 251.475 2.54073 251.472 2.92493C251.477 3.30511 251.404 3.68224 251.256 4.03224C251.108 4.38223 250.89 4.6974 250.614 4.95762C250.348 5.24087 250.026 5.46617 249.67 5.6196C249.313 5.77303 248.929 5.85133 248.542 5.84966C248.162 5.85336 247.786 5.77795 247.437 5.6282C247.087 5.47845 246.773 5.25759 246.513 4.97956C246.24 4.71327 246.026 4.39339 245.882 4.03987C245.738 3.68636 245.668 3.30681 245.676 2.92493Z" fill="white"/>
<path d="M254.185 16.7592C254.169 15.1438 254.603 13.5562 255.435 12.1747C256.253 10.8108 257.414 9.68832 258.802 8.92095C260.09 8.22548 261.515 7.82545 262.975 7.74959C264.434 7.67374 265.893 7.92395 267.245 8.48224C268.29 8.92721 269.211 9.62254 269.928 10.5076C270.608 11.3639 271.132 12.3342 271.477 13.3739C271.834 14.4661 272.014 15.6094 272.008 16.7592L271.542 17.0298L258.788 18.1265C258.944 19.4465 259.61 20.6518 260.642 21.4827C261.765 22.3568 263.157 22.807 264.576 22.7549C265.887 22.8047 267.188 22.5066 268.349 21.8905C269.509 21.2744 270.487 20.3621 271.186 19.2452L271.542 19.1063L271.92 19.2452L272.11 19.6035C271.639 21.501 270.534 23.178 268.979 24.3535C267.425 25.529 265.516 26.1314 263.572 26.0599C261.87 26.0934 260.188 25.6801 258.693 24.8607C257.295 24.0768 256.142 22.9173 255.363 21.5119C254.566 20.0574 254.16 18.4194 254.185 16.7592ZM258.722 15.8672L258.809 16.1085L265.849 15.5455C266.07 15.551 266.289 15.5111 266.494 15.4281C266.7 15.3451 266.886 15.2208 267.041 15.0629C267.281 14.7744 267.408 14.4077 267.397 14.0319C267.458 12.9114 267.079 11.8116 266.343 10.9683C265.988 10.5913 265.558 10.2946 265.08 10.0979C264.602 9.90123 264.088 9.80909 263.572 9.82761C262.91 9.80476 262.252 9.94228 261.653 10.2286C261.055 10.5149 260.533 10.9416 260.133 11.4728C259.219 12.754 258.726 14.2904 258.722 15.8672Z" fill="white"/>
<path d="M274.597 20.7945C274.105 19.5833 273.858 18.2859 273.87 16.9777C273.856 15.6477 274.121 14.3297 274.648 13.1097C275.127 11.9936 275.841 10.9956 276.742 10.185C277.624 9.41023 278.64 8.80323 279.738 8.39361C281.16 7.8817 282.675 7.68208 284.18 7.80821C285.685 7.93433 287.146 8.38327 288.464 9.1248L288.719 9.52695L288.886 13.914L288.617 14.1846H287.235L286.944 13.914V13.2852C286.961 12.83 286.88 12.3765 286.705 11.956C286.531 11.5356 286.267 11.1584 285.934 10.8504C285.197 10.2097 284.245 9.87734 283.272 9.92179C282.513 9.90353 281.764 10.095 281.107 10.4754C280.449 10.8557 279.908 11.4103 279.542 12.0788C279.159 12.764 278.882 13.5036 278.72 14.2723C278.566 15.062 278.495 15.8659 278.509 16.6706C278.495 17.7496 278.711 18.8192 279.142 19.8074C279.553 20.7317 280.213 21.5219 281.047 22.0887C281.929 22.6785 282.969 22.9822 284.028 22.9588C285.085 22.9936 286.129 22.7183 287.033 22.1664C287.937 21.6146 288.662 20.8102 289.119 19.8512L289.417 19.7416L289.795 19.8805L289.962 20.2315C289.74 21.0047 289.438 21.7522 289.06 22.4616C288.689 23.1363 288.224 23.7543 287.679 24.2968C287.062 24.8997 286.315 25.3524 285.497 25.6203C283.963 26.1509 282.314 26.2536 280.727 25.9176C279.139 25.5815 277.672 24.8193 276.48 23.7119C275.654 22.8848 275.012 21.8903 274.597 20.7945Z" fill="white"/>
<path d="M291.002 10.0465V9.2788L297.961 3.22461H298.485L298.826 3.58289L298.485 8.21128H302.899L303.175 8.50375V10.0465L302.899 10.3244H298.485V20.2319C298.419 21.1196 298.677 22.001 299.212 22.7106C299.466 22.9849 299.776 23.1997 300.122 23.3399C300.468 23.4802 300.839 23.5424 301.212 23.5222C302.6 23.5222 303.56 22.7326 304.12 21.1386L304.484 21.007L304.855 21.1386L305.044 21.4457C304.955 21.8955 304.841 22.3398 304.702 22.7764C304.557 23.2089 304.359 23.6215 304.113 24.0048C303.861 24.4195 303.533 24.7819 303.146 25.0724C302.705 25.3965 302.214 25.6437 301.692 25.8035C301.001 25.9975 300.285 26.0911 299.568 26.0814C298.829 26.0893 298.093 25.9808 297.387 25.7597C296.739 25.5431 296.139 25.203 295.62 24.7579C295.066 24.2615 294.646 23.6328 294.398 22.93C294.085 22.0736 293.935 21.1659 293.954 20.2539V11.699C293.953 11.5143 293.913 11.3318 293.838 11.1632C293.763 10.9946 293.654 10.8434 293.518 10.7192C293.393 10.5873 293.243 10.4819 293.077 10.409C292.911 10.3362 292.732 10.2975 292.551 10.2951H291.366L291.002 10.0465Z" fill="white"/>
</g>
<defs>
<clipPath id="clip0">
<rect width="305" height="34" fill="white"/>
</clipPath>
</defs>
</svg>
