<svg width="494" height="494" viewBox="0 0 494 494" fill="none" xmlns="http://www.w3.org/2000/svg">
<path fill-rule="evenodd" clip-rule="evenodd" d="M471.556 0.525269H466.624V22.7103H422.235V0.525269H417.303V22.7103H372.914V0.525269H367.982V22.7103H323.593V0.525269H318.661V22.7103H274.272V0.525269H269.34V22.7103H224.951V0.525269H220.019V22.7103H175.63V0.525269H170.698V22.7103H126.309V0.525269H121.377V22.7103H76.9877V0.525269H72.0556V22.7103H27.6666V0.525269H22.7345V22.7103H0.540039V27.6403H22.7345V72.0103H0.540039V76.9403H22.7345V121.31H0.540039V126.24H22.7345V170.61H0.540039V175.54H22.7345V219.91H0.540039V224.84H22.7345V269.21H0.540039V274.14H22.7345V318.51H0.540039V323.44H22.7345V367.81H0.540039V372.74H22.7345V417.11H0.540039V422.04H22.7345V466.41H0.540039V471.34H22.7345V493.525H27.6666V471.34H72.0556V493.525H76.9877V471.34H121.377V493.525H126.309V471.34H170.698V493.525H175.63V471.34H220.019V493.525H224.951V471.34H269.34V493.525H274.272V471.34H318.661V493.525H323.593V471.34H367.982V493.525H372.914V471.34H417.303V493.525H422.235V471.34H466.624V493.525H471.556V471.34H493.751V466.41H471.556V422.04H493.751V417.11H471.556V372.74H493.751V367.81H471.556V323.44H493.751V318.51H471.556V274.14H493.751V269.21H471.556V224.84H493.751V219.91H471.556V175.54H493.751V170.61H471.556V126.24H493.751V121.31H471.556V76.9403H493.751V72.0103H471.556V27.6403H493.751V22.7103H471.556V0.525269ZM422.235 72.0103H466.624V27.6403H422.235V72.0103ZM422.235 121.31H466.624V76.9403H422.235V121.31ZM422.235 170.61H466.624V126.24H422.235V170.61ZM422.235 219.91H466.624V175.54H422.235V219.91ZM422.235 269.21H466.624V224.84H422.235V269.21ZM422.235 318.51H466.624V274.14H422.235V318.51ZM422.235 367.81H466.624V323.44H422.235V367.81ZM422.235 417.11H466.624V372.74H422.235V417.11ZM422.235 466.41H466.624V422.04H422.235V466.41ZM72.0556 422.04H27.6666V466.41H72.0556V422.04ZM72.0556 372.74H27.6666V417.11H72.0556V372.74ZM72.0556 323.44H27.6666V367.81H72.0556V323.44ZM72.0556 274.14H27.6666V318.51H72.0556V274.14ZM72.0556 224.84H27.6666V269.21H72.0556V224.84ZM72.0556 175.54H27.6666V219.91H72.0556V175.54ZM72.0556 126.24H27.6666V170.61H72.0556V126.24ZM72.0556 76.9403H27.6666V121.31H72.0556V76.9403ZM72.0556 27.6403H27.6666V72.0103H72.0556V27.6403ZM372.914 72.0103H417.303V27.6403H372.914V72.0103ZM372.914 121.31H417.303V76.9403H372.914V121.31ZM372.914 170.61H417.303V126.24H372.914V170.61ZM372.914 219.91H417.303V175.54H372.914V219.91ZM372.914 269.21H417.303V224.84H372.914V269.21ZM372.914 318.51H417.303V274.14H372.914V318.51ZM372.914 367.81H417.303V323.44H372.914V367.81ZM372.914 417.11H417.303V372.74H372.914V417.11ZM121.377 372.74H76.9877V417.11H121.377V372.74ZM121.377 323.44H76.9877V367.81H121.377V323.44ZM121.377 274.14H76.9877V318.51H121.377V274.14ZM121.377 224.84H76.9877V269.21H121.377V224.84ZM121.377 175.54H76.9877V219.91H121.377V175.54ZM121.377 126.24H76.9877V170.61H121.377V126.24ZM121.377 76.9403H76.9877V121.31H121.377V76.9403ZM323.593 121.31H367.982V76.9403H323.593V121.31ZM323.593 170.61H367.982V126.24H323.593V170.61ZM323.593 219.91H367.982V175.54H323.593V219.91ZM323.593 269.21H367.982V224.84H323.593V269.21ZM323.593 318.51H367.982V274.14H323.593V318.51ZM323.593 367.81H367.982V323.44H323.593V367.81ZM170.698 323.44H126.309V367.81H170.698V323.44ZM170.698 274.14H126.309V318.51H170.698V274.14ZM170.698 224.84H126.309V269.21H170.698V224.84ZM170.698 175.54H126.309V219.91H170.698V175.54ZM170.698 126.24H126.309V170.61H170.698V126.24ZM274.272 170.61H318.661V126.24H274.272V170.61ZM274.272 219.91H318.661V175.54H274.272V219.91ZM274.272 269.21H318.661V224.84H274.272V269.21ZM274.272 318.51H318.661V274.14H274.272V318.51ZM220.019 274.14H175.63V318.51H220.019V274.14ZM220.019 224.84H175.63V269.21H220.019V224.84ZM220.019 175.54H175.63V219.91H220.019V175.54ZM224.951 219.91H269.34V175.54H224.951V219.91ZM224.951 269.21H269.34V224.84H224.951V269.21ZM269.34 274.14H224.951V318.51H269.34V274.14ZM224.951 170.61H269.34V126.24H224.951V170.61ZM175.63 170.61H220.019V126.24H175.63V170.61ZM220.019 323.44H175.63V367.81H220.019V323.44ZM269.34 323.44H224.951V367.81H269.34V323.44ZM318.661 323.44H274.272V367.81H318.661V323.44ZM274.272 121.31H318.661V76.9403H274.272V121.31ZM224.951 121.31H269.34V76.9403H224.951V121.31ZM175.63 121.31H220.019V76.9403H175.63V121.31ZM126.309 121.31H170.698V76.9403H126.309V121.31ZM170.698 372.74H126.309V417.11H170.698V372.74ZM220.019 372.74H175.63V417.11H220.019V372.74ZM269.34 372.74H224.951V417.11H269.34V372.74ZM318.661 372.74H274.272V417.11H318.661V372.74ZM367.982 372.74H323.593V417.11H367.982V372.74ZM323.593 72.0103H367.982V27.6403H323.593V72.0103ZM274.272 72.0103H318.661V27.6403H274.272V72.0103ZM224.951 72.0103H269.34V27.6403H224.951V72.0103ZM175.63 72.0103H220.019V27.6403H175.63V72.0103ZM126.309 72.0103H170.698V27.6403H126.309V72.0103ZM76.9877 72.0103H121.377V27.6403H76.9877V72.0103ZM121.377 422.04H76.9877V466.41H121.377V422.04ZM170.698 422.04H126.309V466.41H170.698V422.04ZM220.019 422.04H175.63V466.41H220.019V422.04ZM269.34 422.04H224.951V466.41H269.34V422.04ZM318.661 422.04H274.272V466.41H318.661V422.04ZM367.982 422.04H323.593V466.41H367.982V422.04ZM417.303 422.04H372.914V466.41H417.303V422.04Z" fill="#E0EAF3"/>
</svg>