<svg width="337" height="56" viewBox="0 0 337 56" fill="none" xmlns="http://www.w3.org/2000/svg">
<g clip-path="url(#clip0)">
<path d="M74 21.146V20.504L80.0008 15.4414H80.4523L80.747 15.741L80.4523 19.6113H84.2647L84.4967 19.8559V21.146L84.2647 21.3784H80.4523V29.6632C80.3955 30.4055 80.6185 31.1425 81.0793 31.7359C81.2955 31.962 81.5593 32.1398 81.8526 32.2569C82.146 32.3741 82.4619 32.4279 82.7786 32.4146C83.9825 32.4146 84.8039 31.7543 85.2867 30.4214L85.594 30.3113L85.9138 30.4214L86.0768 30.6782C86.0005 31.0543 85.9021 31.4258 85.7821 31.791C85.6611 32.152 85.4947 32.497 85.2867 32.8182C85.0698 33.1649 84.7867 33.468 84.4528 33.7109C84.0737 33.983 83.6495 34.1898 83.1987 34.3223C82.6029 34.4845 81.9863 34.5627 81.3677 34.5546C80.7302 34.5603 80.0956 34.4695 79.4866 34.2856C78.9282 34.1045 78.4109 33.8201 77.9629 33.4479C77.4894 33.0296 77.1278 32.5049 76.9095 31.9194C76.6346 31.1978 76.4986 30.4329 76.5082 29.6632V22.5278C76.5069 22.3734 76.4728 22.2208 76.408 22.0798C76.3433 21.9388 76.2493 21.8124 76.1319 21.7085C76.0174 21.5968 75.8801 21.5096 75.7289 21.4528C75.5777 21.3959 75.4159 21.3706 75.2541 21.3784H74.2508L74 21.146Z" fill="black"/>
<path d="M86.9102 33.8962V32.6061L87.1422 32.3615H87.5121C87.8246 32.3414 88.119 32.2113 88.3405 31.9953C88.562 31.7794 88.6954 31.4923 88.716 31.1876V17.1492C88.7135 16.9958 88.6788 16.8445 88.6141 16.7047C88.5494 16.5649 88.4561 16.4394 88.3398 16.336C88.2338 16.2248 88.1058 16.1355 87.9636 16.0735C87.8214 16.0116 87.6678 15.9781 87.5121 15.9753H87.2049L86.9102 15.6879V14.7952L91.7885 12.9609H92.6852L92.9987 13.2605L92.6852 15.9569V21.3864C93.2923 20.6698 94.0608 20.0995 94.9308 19.7199C95.8009 19.3402 96.7491 19.1615 97.7015 19.1975C99.1319 19.1276 100.537 19.5836 101.639 20.4754C102.148 20.9568 102.543 21.5402 102.798 22.1853C103.052 22.8303 103.16 23.5216 103.113 24.2112V31.1876C103.116 31.34 103.151 31.4902 103.216 31.629C103.28 31.7678 103.373 31.8922 103.489 31.9947C103.596 32.1075 103.724 32.1981 103.868 32.2612C104.011 32.3242 104.166 32.3583 104.323 32.3615H104.681L104.931 32.6061V33.8962L104.681 34.1224H97.5699L97.3065 33.8962V32.6061L97.5573 32.3615H97.9147C98.0719 32.3583 98.2268 32.3242 98.3701 32.2612C98.5135 32.1981 98.6422 32.1075 98.7487 31.9947C98.8645 31.8922 98.9576 31.7678 99.0223 31.629C99.087 31.4902 99.1219 31.34 99.1249 31.1876V24.3641C99.1509 23.9854 99.0982 23.6056 98.9699 23.2474C98.8417 22.8891 98.6406 22.5598 98.3787 22.2791C98.1031 22.0239 97.7767 21.8265 97.4197 21.6993C97.0627 21.572 96.6827 21.5175 96.3032 21.5393C95.8255 21.5345 95.3519 21.6267 94.9126 21.8098C94.4733 21.993 94.0778 22.2631 93.7512 22.6031C93.3905 22.9755 93.1103 23.4147 92.9272 23.8947C92.7441 24.3747 92.6618 24.8857 92.6852 25.3974V31.2059C92.706 31.5117 92.8403 31.7995 93.0631 32.0156C93.2859 32.2317 93.5818 32.3612 93.8954 32.3799H94.2591L94.4974 32.6244V33.9146L94.2591 34.1408H87.1672L86.9102 33.8962Z" fill="black"/>
<path d="M106.286 26.7599C106.277 25.4096 106.65 24.0831 107.365 22.9263C108.07 21.7858 109.071 20.8471 110.268 20.2054C111.378 19.6239 112.607 19.2894 113.866 19.2259C115.124 19.1625 116.382 19.3717 117.548 19.8386C118.45 20.2122 119.246 20.7933 119.868 21.5322C120.455 22.2471 120.905 23.0589 121.197 23.929C121.508 24.8417 121.663 25.7982 121.655 26.7599L121.26 26.9862L110.262 27.9033C110.326 28.4507 110.5 28.9803 110.774 29.4619C111.049 29.9434 111.418 30.3675 111.86 30.7098C112.826 31.4417 114.025 31.8184 115.246 31.7736C116.377 31.8153 117.499 31.566 118.5 31.0508C119.5 30.5356 120.344 29.7727 120.946 28.8388L121.254 28.7226L121.58 28.8388L121.743 29.1384C121.337 30.7251 120.384 32.1274 119.043 33.1104C117.703 34.0934 116.057 34.5971 114.381 34.5373C112.915 34.5663 111.467 34.2206 110.18 33.5346C108.973 32.8808 107.979 31.9108 107.308 30.7342C106.617 29.5193 106.265 28.149 106.286 26.7599ZM110.199 26.014L110.274 26.2158L116.35 25.745C116.54 25.7488 116.728 25.715 116.904 25.6456C117.079 25.5762 117.239 25.4727 117.372 25.3414C117.581 25.101 117.693 24.7944 117.686 24.4793C117.735 23.5427 117.409 22.624 116.776 21.9174C116.47 21.6014 116.098 21.3528 115.684 21.1884C115.271 21.0239 114.827 20.9472 114.381 20.9636C113.81 20.9445 113.242 21.0595 112.726 21.2989C112.21 21.5383 111.76 21.8951 111.415 22.3393C110.63 23.412 110.205 24.6959 110.199 26.014Z" fill="black"/>
<path d="M132.754 26.8748C132.739 25.7667 132.937 24.6656 133.337 23.6281C133.668 22.7424 134.189 21.936 134.866 21.2631C135.543 20.5903 136.36 20.0666 137.262 19.7272C138.175 19.3811 139.148 19.2068 140.128 19.2136C141 19.1883 141.868 19.335 142.68 19.645C143.493 19.9549 144.233 20.4217 144.855 21.0173V17.1531C144.852 17.0004 144.818 16.8498 144.754 16.7102C144.691 16.5706 144.599 16.4447 144.486 16.3399C144.378 16.2285 144.249 16.1392 144.106 16.0772C143.963 16.0153 143.808 15.9819 143.652 15.9792H143.344L143.05 15.6918V14.7991L147.928 12.9648H148.825L149.119 13.2644L148.825 15.9608V31.1854C148.845 31.4911 148.98 31.779 149.203 31.9951C149.425 32.2112 149.721 32.3407 150.035 32.3593H150.386L150.637 32.6039V33.894L150.386 34.1202H145.106L144.868 33.894V32.6039C144.263 33.2493 143.519 33.757 142.69 34.0909C141.861 34.4248 140.967 34.5768 140.071 34.536C139.09 34.5622 138.114 34.3837 137.209 34.0126C136.304 33.6414 135.49 33.0861 134.823 32.3838C133.419 30.883 132.676 28.9046 132.754 26.8748ZM136.955 24.6676C136.794 25.3927 136.716 26.133 136.723 26.8748C136.716 27.6167 136.794 28.3569 136.955 29.0821C137.096 29.7323 137.331 30.36 137.651 30.9469C137.946 31.5095 138.395 31.9814 138.949 32.3104C139.534 32.6446 140.202 32.814 140.88 32.7995C141.541 32.8075 142.192 32.6383 142.761 32.3104C143.31 31.9858 143.762 31.5262 144.072 30.9775C144.403 30.3908 144.646 29.7607 144.793 29.1065C145.11 27.6513 145.11 26.1472 144.793 24.692C144.645 24.0362 144.402 23.4042 144.072 22.8149C143.76 22.2694 143.309 21.8121 142.761 21.4881C142.192 21.1603 141.541 20.9911 140.88 20.999C140.202 20.9846 139.534 21.1539 138.949 21.4881C138.399 21.8105 137.95 22.2736 137.651 22.8272C137.332 23.406 137.098 24.0255 136.955 24.6676Z" fill="black"/>
<path d="M152.017 26.7598C152.004 25.409 152.377 24.0814 153.095 22.9261C153.799 21.7843 154.801 20.8453 155.999 20.2053C157.108 19.6238 158.336 19.2894 159.593 19.2259C160.851 19.1625 162.107 19.3717 163.272 19.8384C164.176 20.2088 164.973 20.7905 165.592 21.5321C166.179 22.2481 166.631 23.0595 166.928 23.9289C167.234 24.8426 167.386 25.7986 167.379 26.7598L166.984 26.986L155.986 27.9032C156.121 29.0069 156.695 30.0149 157.585 30.7096C158.553 31.4406 159.754 31.8171 160.977 31.7735C162.108 31.8151 163.23 31.5658 164.23 31.0506C165.231 30.5355 166.075 29.7726 166.677 28.8387L166.984 28.7225L167.31 28.8387L167.467 29.1383C167.064 30.725 166.112 32.1279 164.773 33.1111C163.433 34.0943 161.787 34.5979 160.112 34.5372C158.644 34.566 157.194 34.2204 155.905 33.5344C154.688 32.8775 153.684 31.901 153.008 30.7157C152.333 29.5025 151.992 28.1397 152.017 26.7598ZM155.93 26.0139L156.005 26.2156L162.075 25.7448C162.265 25.7488 162.454 25.715 162.631 25.6457C162.808 25.5763 162.968 25.4728 163.103 25.3413C163.31 25.1 163.419 24.7935 163.41 24.4792C163.462 23.5422 163.136 22.6225 162.501 21.9173C162.195 21.6021 161.824 21.3539 161.412 21.1895C161 21.025 160.557 20.948 160.112 20.9635C159.541 20.9444 158.973 21.0593 158.457 21.2988C157.941 21.5382 157.491 21.895 157.146 22.3392C156.358 23.4106 155.933 24.6953 155.93 26.0139Z" fill="black"/>
<path d="M168.908 32.9237L169.717 29.7565L170.024 29.4569H170.921L171.235 29.7565C171.184 30.5987 171.422 31.4334 171.912 32.1288C172.145 32.4147 172.446 32.6413 172.789 32.7893C173.132 32.9373 173.507 33.0022 173.881 32.9787C174.367 32.9925 174.843 32.8364 175.223 32.5385C175.559 32.2842 175.819 31.9463 175.975 31.5602C176.112 31.2354 176.19 30.89 176.207 30.5391C176.213 30.255 176.162 29.9725 176.056 29.7076C175.969 29.4875 175.849 29.2814 175.699 29.0962C175.508 28.8956 175.281 28.7317 175.028 28.6131C174.745 28.4617 174.452 28.3289 174.15 28.2157C173.874 28.1118 173.486 27.9772 172.984 27.8183C171.95 27.5252 171.016 26.9654 170.281 26.198C169.651 25.513 169.304 24.6238 169.31 23.7034C169.292 23.0801 169.424 22.4615 169.695 21.8967C169.966 21.332 170.369 20.8368 170.871 20.4506C171.99 19.6035 173.381 19.1702 174.796 19.2277C176.162 19.1969 177.516 19.4752 178.753 20.0409L178.941 20.3283L179.073 23.5689L178.778 23.8562H177.869L177.574 23.5689C177.607 22.8347 177.372 22.113 176.909 21.5328C176.679 21.2694 176.389 21.0613 176.063 20.9245C175.737 20.7877 175.383 20.726 175.028 20.7441C174.436 20.7145 173.855 20.9021 173.398 21.2699C173.191 21.4496 173.028 21.6716 172.92 21.92C172.811 22.1684 172.76 22.437 172.771 22.7067C172.767 23.0249 172.837 23.3397 172.978 23.627C173.118 23.9142 173.324 24.1663 173.58 24.3637C174.297 24.9022 175.112 25.3046 175.981 25.5499C176.571 25.6954 177.148 25.8877 177.706 26.1246C178.155 26.3297 178.576 26.5885 178.96 26.895C179.343 27.1986 179.644 27.5891 179.838 28.0323C180.054 28.5714 180.159 29.1471 180.145 29.7259C180.167 30.6758 179.867 31.6063 179.292 32.3734C178.74 33.1034 177.988 33.6671 177.122 33.9998C176.187 34.3515 175.191 34.5258 174.188 34.5134C172.387 34.5714 170.606 34.1236 169.059 33.2233L168.908 32.9237Z" fill="black"/>
<path d="M180.979 33.8956V32.6055L181.217 32.3609H181.587C181.899 32.3408 182.194 32.2107 182.415 31.9948C182.637 31.7788 182.77 31.4917 182.791 31.187V23.7887C182.772 23.4829 182.639 23.1944 182.417 22.9771C182.195 22.7599 181.9 22.6289 181.587 22.6087H181.273L180.979 22.3213V21.4347L185.863 19.6004H186.76L187.067 19.9L186.76 22.5964V31.1564C186.78 31.4612 186.914 31.7482 187.135 31.9642C187.357 32.1801 187.651 32.3103 187.964 32.3304H188.334L188.566 32.5749V33.865L188.334 34.0913H181.223L180.979 33.8956ZM182.302 15.1921C182.297 14.8689 182.359 14.548 182.484 14.2487C182.609 13.9493 182.794 13.6775 183.029 13.4495C183.255 13.2228 183.526 13.0434 183.826 12.9225C184.126 12.8016 184.448 12.7417 184.772 12.7463C185.105 12.7425 185.434 12.8045 185.741 12.9285C186.049 13.0525 186.327 13.236 186.559 13.4678C186.797 13.6911 186.985 13.959 187.114 14.2554C187.242 14.5517 187.307 14.8704 187.305 15.1921C187.309 15.5104 187.244 15.8259 187.116 16.1185C186.987 16.4112 186.798 16.6745 186.559 16.8918C186.329 17.1287 186.052 17.3171 185.745 17.4454C185.438 17.5737 185.106 17.6392 184.772 17.6378C184.447 17.6424 184.125 17.5818 183.825 17.4598C183.525 17.3378 183.254 17.1569 183.029 16.9285C182.791 16.7043 182.603 16.434 182.478 16.135C182.352 15.8361 182.292 15.5149 182.302 15.1921Z" fill="black"/>
<path d="M189.645 33.5886V31.9133L192.717 28.691C191.991 28.2321 191.381 27.6172 190.936 26.8934C190.492 26.1674 190.262 25.3359 190.272 24.4905C190.262 23.7778 190.414 23.0719 190.717 22.4231C191.019 21.7742 191.464 21.1983 192.021 20.7364C193.217 19.7099 194.768 19.1655 196.36 19.2139C197.176 19.2107 197.987 19.3451 198.755 19.6113H202.863L203.095 19.8559V21.146L202.863 21.3784H201.289C202.131 22.3711 202.538 23.6478 202.42 24.9311C202.303 26.2145 201.671 27.4008 200.662 28.2325C199.468 29.2693 197.914 29.8226 196.316 29.7794C195.648 29.7798 194.984 29.6787 194.347 29.4798L193.187 30.6537H199.188C200.618 30.5658 202.032 30.9849 203.17 31.8338C203.63 32.2046 203.997 32.6725 204.245 33.202C204.493 33.7316 204.614 34.3091 204.599 34.8909C204.625 36.1378 204.178 37.3502 203.345 38.2966C202.466 39.2794 201.341 40.0231 200.079 40.4549C198.705 40.9334 197.255 41.1715 195.796 41.158C193.89 41.158 192.427 40.7688 191.407 39.9902C190.936 39.6667 190.552 39.2381 190.286 38.7404C190.019 38.2426 189.879 37.6901 189.877 37.1287C189.945 36.1362 190.393 35.2048 191.131 34.5179L191.758 33.8148H189.877L189.645 33.5886ZM192.052 36.9453C192.052 38.3516 193.288 39.0547 195.758 39.0547C196.573 39.0597 197.382 38.9316 198.153 38.6756C198.835 38.4569 199.456 38.0863 199.966 37.5934C200.186 37.383 200.361 37.1318 200.48 36.8547C200.6 36.5775 200.661 36.2799 200.662 35.9792C200.673 35.6722 200.604 35.3675 200.463 35.0929C200.322 34.8183 200.112 34.5828 199.853 34.4079C199.176 33.9674 198.37 33.7528 197.558 33.7964H194.222L192.805 35.3678C192.354 35.7788 192.084 36.3443 192.052 36.9453ZM194.391 21.9164C193.88 22.679 193.632 23.5808 193.683 24.4905C193.633 25.402 193.881 26.3054 194.391 27.0707C194.626 27.3653 194.926 27.6037 195.27 27.7677C195.613 27.9317 195.99 28.017 196.373 28.017C196.755 28.017 197.132 27.9317 197.476 27.7677C197.819 27.6037 198.12 27.3653 198.354 27.0707C198.857 26.3026 199.1 25.4003 199.05 24.4905C199.101 23.5808 198.853 22.679 198.342 21.9164C198.107 21.6241 197.807 21.3877 197.465 21.2251C197.123 21.0625 196.747 20.978 196.366 20.978C195.986 20.978 195.61 21.0625 195.268 21.2251C194.926 21.3877 194.626 21.6241 194.391 21.9164Z" fill="black"/>
<path d="M205.51 33.8951V32.605L205.742 32.3604H206.112C206.424 32.3403 206.719 32.2102 206.94 31.9942C207.162 31.7782 207.295 31.4912 207.316 31.1864V23.7882C207.297 23.4823 207.164 23.1938 206.942 22.9766C206.72 22.7594 206.425 22.6284 206.112 22.6081H205.804L205.51 22.3207V21.6482L205.742 21.3486L210.068 19.6121H210.978L211.272 19.9117L210.978 21.8194C211.532 21.0204 212.276 20.3639 213.147 19.9056C214.076 19.4339 215.11 19.1964 216.157 19.2147C217.562 19.1414 218.942 19.5966 220.013 20.4865C220.514 20.973 220.902 21.5591 221.149 22.2048C221.397 22.8505 221.499 23.5407 221.449 24.2284V31.1864C221.47 31.4912 221.603 31.7782 221.825 31.9942C222.046 32.2102 222.341 32.3403 222.653 32.3604H223.023L223.255 32.605V33.8951L223.023 34.1213H215.919L215.68 33.8951V32.605L215.919 32.3604H216.282C216.596 32.3417 216.892 32.2122 217.115 31.9961C217.337 31.78 217.472 31.4922 217.493 31.1864V24.3629C217.52 23.9774 217.464 23.5906 217.329 23.2274C217.194 22.8641 216.983 22.5323 216.709 22.2535C216.147 21.7597 215.408 21.5025 214.652 21.5381C214.196 21.5277 213.744 21.6161 213.328 21.7969C212.911 21.9777 212.541 22.2464 212.244 22.5837C211.573 23.3701 211.23 24.3744 211.285 25.3962V31.2048C211.305 31.5095 211.439 31.7966 211.66 32.0125C211.882 32.2285 212.176 32.3586 212.489 32.3787H212.859L213.097 32.6233V33.9134L212.859 34.1396H205.742L205.51 33.8951Z" fill="black"/>
<path d="M233.84 39.2284L234.078 39.0022H234.442C234.757 38.9832 235.055 38.852 235.278 38.6334C235.501 38.4147 235.634 38.1239 235.652 37.816V23.8021C235.633 23.4953 235.499 23.206 235.276 22.9886C235.053 22.7713 234.756 22.6409 234.442 22.6221H234.135L233.84 22.3408V21.6621L234.078 21.3625L238.417 19.6138H239.326L239.621 19.9196L239.326 21.8394C239.873 21.0321 240.619 20.3719 241.496 19.9196C242.392 19.4499 243.395 19.2081 244.412 19.2164C245.388 19.1783 246.362 19.3392 247.271 19.6887C248.18 20.0382 249.004 20.5687 249.691 21.2464C251.046 22.5976 251.723 24.4808 251.723 26.8776C251.738 27.9898 251.541 29.095 251.14 30.1365C250.814 31.0226 250.295 31.8291 249.618 32.5005C248.942 33.1718 248.124 33.6921 247.221 34.0252C246.308 34.3713 245.335 34.5456 244.355 34.5388C243.437 34.5499 242.527 34.3641 241.69 33.9946C240.919 33.6623 240.218 33.1938 239.621 32.6128V37.816C239.624 37.9694 239.658 38.1207 239.723 38.2605C239.788 38.4004 239.881 38.5259 239.997 38.6292C240.102 38.7424 240.23 38.8334 240.372 38.8965C240.515 38.9596 240.669 38.9935 240.825 38.9961H241.195L241.427 39.2223V40.5124L241.195 40.757H234.078L233.84 40.5124V39.2284ZM239.678 24.6703C239.518 25.3957 239.44 26.1358 239.446 26.8776C239.441 27.617 239.517 28.3548 239.671 29.0787C239.813 29.7325 240.052 30.3628 240.38 30.9497C240.677 31.511 241.126 31.9825 241.678 32.3132C242.247 32.6405 242.898 32.8096 243.559 32.8023C244.243 32.8151 244.917 32.646 245.509 32.3132C246.059 31.9909 246.508 31.5278 246.807 30.9742C247.129 30.3885 247.361 29.7603 247.497 29.1093C247.65 28.3832 247.724 27.6433 247.716 26.9021C247.724 26.1608 247.65 25.4209 247.497 24.6948C247.361 24.0438 247.129 23.4156 246.807 22.8299C246.508 22.2763 246.059 21.8132 245.509 21.4909C244.917 21.1581 244.243 20.989 243.559 21.0018C242.904 20.9887 242.258 21.1533 241.694 21.4772C241.129 21.8011 240.668 22.2715 240.361 22.8361C240.048 23.4138 239.818 24.0311 239.678 24.6703Z" fill="black"/>
<path d="M253.102 33.8969V32.6068L253.34 32.3622H253.704C254.019 32.3501 254.318 32.2226 254.541 32.005C254.764 31.7874 254.895 31.4958 254.907 31.1883V23.79C254.897 23.4814 254.766 23.1883 254.543 22.9694C254.32 22.7505 254.02 22.6221 253.704 22.6099H253.396L253.102 22.3226V21.65L253.34 21.3504L257.673 19.6139H258.588L258.883 19.9135L258.588 22.0841C258.946 21.2629 259.511 20.5434 260.231 19.993C260.953 19.4645 261.837 19.1907 262.739 19.2165C263.401 19.1931 264.046 19.4261 264.533 19.8646C264.763 20.0706 264.947 20.3222 265.07 20.6026C265.193 20.8831 265.254 21.186 265.247 21.491C265.257 21.7852 265.207 22.0784 265.099 22.3534C264.991 22.6284 264.829 22.8798 264.62 23.093C264.411 23.2962 264.161 23.4554 263.886 23.5606C263.611 23.6657 263.317 23.7147 263.021 23.7044C262.722 23.7103 262.425 23.6545 262.15 23.5407C261.874 23.4269 261.626 23.2577 261.422 23.0441C261.215 22.8303 261.053 22.5788 260.945 22.304C260.838 22.0291 260.787 21.7362 260.795 21.4421C260.171 21.8592 259.692 22.4522 259.422 23.1419C259.051 23.9746 258.867 24.8753 258.883 25.7832V31.2188C258.895 31.5263 259.026 31.818 259.249 32.0356C259.472 32.2531 259.771 32.3807 260.087 32.3928H260.45L260.689 32.6373V33.9275L260.45 34.1537H253.334L253.102 33.8969Z" fill="black"/>
<path d="M266.821 26.8762C266.809 25.8376 267.023 24.8083 267.448 23.8558C267.86 22.936 268.454 22.1048 269.197 21.41C269.948 20.7157 270.83 20.1697 271.793 19.802C273.821 19.0191 276.079 19.0191 278.107 19.802C279.073 20.1697 279.957 20.7157 280.71 21.41C281.454 22.1032 282.049 22.9348 282.459 23.8558C282.898 24.8051 283.122 25.8351 283.118 26.8762C283.13 28.2475 282.747 29.5947 282.014 30.7649C281.293 31.929 280.267 32.885 279.042 33.5346C277.788 34.1897 276.388 34.5325 274.966 34.5325C273.544 34.5325 272.144 34.1897 270.89 33.5346C269.663 32.8874 268.637 31.9309 267.918 30.7649C267.187 29.5941 266.807 28.2469 266.821 26.8762ZM271.875 22.5962C271.095 23.89 270.718 25.3771 270.79 26.8762C270.718 28.3753 271.095 29.8624 271.875 31.1562C272.22 31.648 272.683 32.0503 273.224 32.3283C273.765 32.6063 274.367 32.7515 274.979 32.7515C275.59 32.7515 276.192 32.6063 276.733 32.3283C277.274 32.0503 277.737 31.648 278.082 31.1562C278.867 29.8641 279.246 28.3762 279.173 26.8762C279.246 25.3762 278.867 23.8883 278.082 22.5962C277.737 22.1044 277.274 21.7021 276.733 21.4241C276.192 21.1461 275.59 21.0009 274.979 21.0009C274.367 21.0009 273.765 21.1461 273.224 21.4241C272.683 21.7021 272.22 22.1044 271.875 22.5962Z" fill="black"/>
<path d="M282.936 38.8236C282.93 38.5381 282.982 38.2543 283.09 37.9887C283.198 37.7231 283.359 37.4811 283.563 37.2767C283.778 37.0693 284.036 36.9078 284.319 36.8025C284.601 36.6972 284.904 36.6505 285.206 36.6653C285.506 36.6525 285.806 36.7045 286.084 36.8176C286.361 36.9307 286.609 37.102 286.811 37.3195C287.238 37.7951 287.463 38.412 287.438 39.0437C288.178 38.5791 288.554 37.7353 288.554 36.5247L288.316 36.1945L286.567 35.4975L286.328 35.2407V23.7886C286.318 23.4801 286.187 23.1869 285.964 22.968C285.741 22.7492 285.441 22.6208 285.124 22.6086H284.817L284.522 22.3212V21.4346L289.407 19.6004H290.329L290.636 19.9L290.329 22.6086V36.274C290.346 37.0692 290.205 37.8601 289.915 38.6035C289.69 39.1996 289.309 39.7285 288.811 40.1382C288.38 40.4854 287.887 40.7527 287.357 40.9269C286.833 41.0943 286.284 41.1789 285.733 41.1776C285.004 41.2081 284.289 40.9751 283.726 40.5234C283.472 40.3158 283.27 40.0553 283.133 39.7611C282.996 39.4669 282.929 39.1465 282.936 38.8236ZM285.846 15.192C285.842 14.8723 285.905 14.5552 286.028 14.2592C286.152 13.9631 286.335 13.6941 286.567 13.4677C286.792 13.2369 287.063 13.0538 287.364 12.9297C287.665 12.8056 287.989 12.7431 288.316 12.7463C288.649 12.7424 288.978 12.8044 289.285 12.9284C289.593 13.0524 289.871 13.2359 290.103 13.4677C290.34 13.6913 290.527 13.9594 290.655 14.2558C290.782 14.5522 290.846 14.8707 290.843 15.192C290.848 15.5099 290.784 15.8252 290.657 16.1179C290.529 16.4106 290.341 16.6741 290.103 16.8917C289.873 17.1286 289.596 17.317 289.289 17.4453C288.982 17.5736 288.65 17.6391 288.316 17.6377C287.989 17.6408 287.664 17.5777 287.363 17.4525C287.062 17.3273 286.791 17.1426 286.567 16.9101C286.332 16.6874 286.147 16.4199 286.022 16.1243C285.898 15.8287 285.838 15.5113 285.846 15.192Z" fill="black"/>
<path d="M293.183 26.7599C293.169 25.4091 293.543 24.0815 294.261 22.9263C294.966 21.7858 295.968 20.8471 297.164 20.2054C298.275 19.6239 299.503 19.2894 300.762 19.2259C302.021 19.1625 303.278 19.3717 304.444 19.8386C305.346 20.2107 306.14 20.7921 306.758 21.5322C307.344 22.2483 307.797 23.0597 308.094 23.929C308.402 24.8424 308.556 25.7984 308.551 26.7599L308.15 26.9862L297.152 27.9033C297.287 29.0071 297.861 30.015 298.751 30.7098C299.719 31.4407 300.919 31.8172 302.143 31.7736C303.274 31.8153 304.396 31.566 305.396 31.0508C306.397 30.5356 307.24 29.7727 307.843 28.8388L308.15 28.7226L308.476 28.8388L308.639 29.1384C308.233 30.7251 307.28 32.1274 305.94 33.1104C304.6 34.0934 302.954 34.5971 301.278 34.5373C299.81 34.5653 298.359 34.2197 297.07 33.5346C295.865 32.879 294.871 31.9094 294.198 30.7342C293.512 29.5179 293.162 28.1482 293.183 26.7599ZM297.095 26.014L297.171 26.2158L303.24 25.745C303.431 25.7496 303.62 25.7162 303.797 25.6468C303.974 25.5774 304.134 25.4735 304.269 25.3414C304.475 25.1002 304.585 24.7936 304.576 24.4793C304.628 23.5423 304.302 22.6227 303.667 21.9174C303.361 21.6022 302.989 21.3541 302.578 21.1896C302.166 21.0252 301.722 20.9481 301.278 20.9636C300.706 20.9445 300.139 21.0595 299.623 21.2989C299.107 21.5383 298.657 21.8951 298.312 22.3393C297.524 23.4107 297.098 24.6954 297.095 26.014Z" fill="black"/>
<path d="M310.784 30.1361C310.36 29.1234 310.146 28.0384 310.157 26.9445C310.145 25.8323 310.373 24.7302 310.828 23.71C311.241 22.7767 311.857 21.9422 312.634 21.2643C313.394 20.6164 314.27 20.1089 315.217 19.7663C316.443 19.3383 317.749 19.1713 319.047 19.2768C320.345 19.3823 321.605 19.7577 322.741 20.3778L322.961 20.714L323.105 24.3826L322.873 24.6088H321.682L321.431 24.3826V23.8568C321.446 23.4761 321.375 23.0968 321.225 22.7453C321.074 22.3937 320.847 22.0783 320.559 21.8207C319.924 21.285 319.103 21.007 318.264 21.0442C317.61 21.0289 316.964 21.1891 316.397 21.5071C315.83 21.8252 315.363 22.289 315.048 22.8479C314.718 23.4209 314.479 24.0394 314.339 24.6822C314.206 25.3426 314.145 26.0148 314.157 26.6877C314.145 27.59 314.331 28.4843 314.703 29.3107C315.057 30.0836 315.626 30.7444 316.346 31.2184C317.106 31.7116 318.003 31.9656 318.916 31.946C319.828 31.9751 320.728 31.7448 321.508 31.2834C322.287 30.822 322.912 30.1493 323.306 29.3474L323.563 29.2557L323.889 29.3719L324.033 29.6653C323.842 30.3119 323.581 30.937 323.256 31.5302C322.935 32.0944 322.534 32.6112 322.064 33.0649C321.532 33.569 320.889 33.9475 320.183 34.1716C318.86 34.6152 317.439 34.7011 316.07 34.4201C314.701 34.1392 313.435 33.5018 312.408 32.5757C311.695 31.8841 311.141 31.0525 310.784 30.1361Z" fill="black"/>
<path d="M324.93 21.146V20.504L330.93 15.4414H331.382L331.677 15.741L331.382 19.6113H335.188L335.426 19.8559V21.146L335.188 21.3784H331.382V29.6632C331.325 30.4055 331.548 31.1425 332.009 31.7359C332.228 31.9653 332.496 32.1449 332.794 32.2622C333.092 32.3794 333.413 32.4315 333.733 32.4146C334.931 32.4146 335.759 31.7543 336.242 30.4214L336.555 30.3113L336.875 30.4214L337.038 30.6782C336.962 31.0543 336.863 31.4258 336.743 31.791C336.618 32.1526 336.448 32.4976 336.235 32.8182C336.018 33.1649 335.735 33.468 335.401 33.7109C335.021 33.9819 334.598 34.1886 334.147 34.3223C333.551 34.4845 332.935 34.5627 332.316 34.5546C331.679 34.5613 331.044 34.4705 330.435 34.2856C329.877 34.1045 329.359 33.8201 328.911 33.4479C328.434 33.0328 328.072 32.5071 327.858 31.9194C327.588 31.2032 327.459 30.4442 327.475 29.6815V22.5278C327.474 22.3734 327.44 22.2208 327.375 22.0798C327.311 21.9388 327.217 21.8124 327.099 21.7085C326.991 21.5982 326.862 21.51 326.719 21.4491C326.576 21.3882 326.422 21.3559 326.265 21.3539H325.243L324.93 21.146Z" fill="black"/>
</g>
<path d="M28 56C43.464 56 56 43.464 56 28C56 12.536 43.464 0 28 0C12.536 0 0 12.536 0 28C0 43.464 12.536 56 28 56Z" fill="black"/>
<path d="M34.0852 39.5928C34.4805 39.1975 35.0734 39.479 35.4448 38.886C35.5618 38.6816 35.616 38.4473 35.6005 38.2122C35.6005 37.6133 35.6005 37.0323 35.6005 36.4424V30.2135C35.6005 28.9378 35.6993 27.6171 35.6005 26.3414C35.5935 26.1963 35.5563 26.0543 35.4914 25.9243C35.4264 25.7944 35.3351 25.6794 35.2232 25.5868C34.9237 25.3203 31.1564 26.4612 30.851 26.3294C30.5455 26.1977 30.4946 25.7545 30.6024 25.479C30.7102 25.2035 30.9558 25.1795 31.1774 25.0807C31.6176 24.901 35.5616 23.7181 36.0018 23.5354C36.7534 23.236 37.5291 22.7419 38.3496 22.7419C38.7359 22.7419 38.9485 22.8586 38.8886 23.2629L38.679 24.6524C40.8651 21.3583 46.0848 21.8494 48.0882 25.0687C50.1216 28.3419 49.1034 33.5526 45.378 35.0858C43.1979 35.9842 40.6076 35.6129 38.9246 33.9059V37.1342C38.9246 37.5444 38.8946 37.9697 38.9246 38.3799C38.9375 38.5935 39.0119 38.7988 39.1389 38.9709C39.2659 39.1431 39.44 39.2748 39.6403 39.3502C39.8948 39.44 40.2572 39.2963 40.4099 39.5688C40.5626 39.8413 40.5507 40.6978 40.2901 40.8685C40.0985 40.9943 39.6912 40.9164 39.4666 40.9164H35.5526C35.2262 40.9164 34.5973 41.0422 34.2918 40.9164C33.8995 40.7487 34.0852 39.9192 34.0852 39.5928ZM38.9755 27.0871C38.5802 28.8539 38.676 31.046 39.6433 32.6242C39.8737 32.9776 40.1726 33.2812 40.5223 33.5173C40.872 33.7533 41.2654 33.9168 41.6793 33.9983C42.0933 34.0798 42.5193 34.0776 42.9324 33.9918C43.3455 33.906 43.7371 33.7383 44.0844 33.4986C45.6236 32.3906 45.8302 30.0159 45.7134 28.285C45.5966 26.554 44.9947 24.4997 43.1231 24.0176C42.6603 23.891 42.1751 23.8698 41.703 23.9553C41.2309 24.0408 40.7839 24.2309 40.3949 24.5117C39.5954 25.1226 39.1881 26.1288 38.9755 27.0871Z" fill="white"/>
<path d="M6.88816 24.6582C6.88816 24.3887 6.84024 24.212 6.98997 24.0174C7.19883 23.7973 7.42737 23.5969 7.67276 23.4184L10.0355 21.3761C10.6015 20.888 11.1735 20.2291 11.8114 19.8398C11.8894 19.7803 11.9839 19.7463 12.0821 19.7425C12.1802 19.7388 12.277 19.7654 12.3594 19.8189C12.6259 19.9836 12.5241 20.2441 12.5061 20.5106L12.2965 23.3346H20.1784C20.3869 23.303 20.5989 23.303 20.8073 23.3346C21.1367 23.4753 21.1068 24.3288 21.0229 24.6073C20.8852 25.0026 20.2832 24.8499 19.9508 24.8499H12.578C12.2336 24.8499 12.3115 24.8798 12.3115 25.2182V29.2311C12.3115 30.2403 12.1168 31.6268 12.56 32.5671C13.0032 33.5074 14.2191 33.8129 15.1384 33.3966C15.5176 33.2114 15.8311 32.9146 16.0368 32.5461C16.2135 32.2467 16.2674 31.6837 16.6986 31.7945C17.5102 31.9981 16.3992 33.8518 16.1297 34.2082C15.3451 35.1934 13.9406 35.442 12.7487 35.3851C11.5568 35.3282 10.353 34.876 9.67917 33.8668C9.18199 33.041 8.94025 32.0866 8.98441 31.1237C8.98441 29.7941 8.98441 28.4644 8.98441 27.1378C8.98441 26.5838 9.01735 25.7423 8.72987 25.2602C8.28366 24.5355 7.40024 25.1374 6.88816 24.6582Z" fill="white"/>
<path d="M18.1569 28.8063C18.1444 27.8498 18.3099 26.8993 18.645 26.0033C18.9233 25.2376 19.3627 24.5406 19.9336 23.9593C20.5045 23.3781 21.1935 22.9263 21.9541 22.6344C22.717 22.3344 23.5301 22.183 24.3498 22.1882C25.089 22.1632 25.8256 22.2886 26.5149 22.5568C27.2041 22.825 27.8318 23.2304 28.3597 23.7484V20.4123C28.3454 20.1475 28.2339 19.8971 28.0466 19.7093C27.8593 19.5214 27.6093 19.4092 27.3445 19.3942H27.084L26.8384 19.1456V18.376L30.9471 16.8008H31.7017L31.9503 17.0613L31.7017 19.3882V32.5287C31.72 32.7924 31.8332 33.0406 32.0204 33.2273C32.2076 33.4139 32.4561 33.5264 32.7199 33.5439H33.0194L33.229 33.7535V34.8675L33.0194 35.0652H28.5573L28.3597 34.8675V33.7535C27.3615 34.8675 26.0139 35.4245 24.3169 35.4245C23.4903 35.4477 22.6683 35.2935 21.9064 34.9722C21.1444 34.6509 20.4602 34.17 19.8998 33.5619C18.7379 32.3221 18.1569 30.7369 18.1569 28.8063ZM21.6906 26.9017C21.435 28.1586 21.435 29.4541 21.6906 30.7109C21.8147 31.2741 22.0163 31.8173 22.2895 32.3251C22.543 32.8019 22.9207 33.2013 23.3826 33.481C23.8751 33.7575 24.4304 33.9027 24.9952 33.9027C25.56 33.9027 26.1153 33.7575 26.6078 33.481C27.0641 33.2022 27.4407 32.8102 27.7009 32.343C27.9788 31.8352 28.1806 31.2894 28.2998 30.7229C28.5673 29.4673 28.5673 28.1694 28.2998 26.9137C28.1806 26.3473 27.9788 25.8014 27.7009 25.2936C27.4414 24.8198 27.0612 24.423 26.5988 24.1437C26.1063 23.8672 25.551 23.7219 24.9862 23.7219C24.4214 23.7219 23.8661 23.8672 23.3736 24.1437C22.9117 24.4234 22.534 24.8228 22.2805 25.2996C22.011 25.8039 21.8124 26.3431 21.6906 26.9017Z" fill="white"/>
<defs>
<clipPath id="clip0">
<rect width="263" height="28.4314" fill="white" transform="translate(74 12.7461)"/>
</clipPath>
</defs>
</svg>
