<svg width="48" height="48" viewBox="0 0 48 48" fill="none" xmlns="http://www.w3.org/2000/svg">
<path d="M24 48C37.2548 48 48 37.2548 48 24C48 10.7452 37.2548 0 24 0C10.7452 0 0 10.7452 0 24C0 37.2548 10.7452 48 24 48Z" fill="black"/>
<path d="M29.2151 33.9344C29.5539 33.5956 30.0621 33.8369 30.3804 33.3287C30.4807 33.1534 30.5271 32.9526 30.5139 32.7511C30.5139 32.2377 30.5139 31.7398 30.5139 31.2341V25.8951C30.5139 24.8016 30.5986 23.6696 30.5139 22.5761C30.5079 22.4518 30.476 22.33 30.4203 22.2186C30.3647 22.1072 30.2864 22.0087 30.1905 21.9293C29.9338 21.7008 26.7047 22.6788 26.4429 22.5659C26.181 22.4529 26.1374 22.073 26.2298 21.8369C26.3222 21.6007 26.5327 21.5802 26.7227 21.4955C27.1 21.3415 30.4805 20.3276 30.8578 20.171C31.5021 19.9143 32.1669 19.4908 32.8702 19.4908C33.2014 19.4908 33.3836 19.5909 33.3323 19.9374L33.1526 21.1284C35.0264 18.3049 39.5004 18.7259 41.2176 21.4852C42.9605 24.2908 42.0878 28.7571 38.8946 30.0713C37.026 30.8414 34.8056 30.5231 33.3631 29.06V31.827C33.3631 32.1787 33.3374 32.5432 33.3631 32.8949C33.3741 33.0779 33.4379 33.2538 33.5468 33.4014C33.6557 33.549 33.8049 33.6619 33.9766 33.7265C34.1947 33.8035 34.5053 33.6803 34.6362 33.9139C34.7671 34.1475 34.7569 34.8816 34.5336 35.0279C34.3693 35.1357 34.0202 35.069 33.8277 35.069H30.4728C30.193 35.069 29.654 35.1768 29.3922 35.069C29.0559 34.9252 29.2151 34.2142 29.2151 33.9344ZM33.4067 23.2153C33.0679 24.7297 33.15 26.6086 33.9791 27.9614C34.1766 28.2643 34.4328 28.5246 34.7326 28.7268C35.0323 28.9291 35.3695 29.0693 35.7243 29.1392C36.0791 29.2091 36.4443 29.2072 36.7984 29.1336C37.1524 29.06 37.4881 28.9163 37.7858 28.7109C39.1051 27.7612 39.2822 25.7257 39.1821 24.242C39.082 22.7584 38.5661 20.9975 36.9618 20.5843C36.5651 20.4758 36.1492 20.4576 35.7446 20.5308C35.3399 20.6041 34.9568 20.7671 34.6234 21.0078C33.938 21.5314 33.589 22.3939 33.4067 23.2153Z" fill="white"/>
<path d="M5.90274 21.1356C5.90274 20.9046 5.86167 20.7532 5.99001 20.5863C6.16903 20.3977 6.36492 20.2259 6.57525 20.073L8.60049 18.3224C9.08563 17.904 9.57589 17.3393 10.1226 17.0056C10.1895 16.9545 10.2706 16.9254 10.3547 16.9222C10.4387 16.919 10.5218 16.9418 10.5924 16.9876C10.8208 17.1288 10.7335 17.3521 10.7181 17.5805L10.5385 20.0011H17.2944C17.4731 19.974 17.6548 19.974 17.8334 20.0011C18.1158 20.1217 18.0901 20.8533 18.0182 21.092C17.9002 21.4308 17.3842 21.2999 17.0993 21.2999H10.7797C10.4846 21.2999 10.5513 21.3256 10.5513 21.6156V25.0552C10.5513 25.9202 10.3844 27.1087 10.7643 27.9147C11.1442 28.7207 12.1864 28.9825 12.9744 28.6257C13.2994 28.4669 13.5681 28.2125 13.7444 27.8967C13.8959 27.64 13.9421 27.1574 14.3117 27.2524C15.0073 27.427 14.055 29.0158 13.824 29.3213C13.1515 30.1658 11.9477 30.3788 10.9261 30.3301C9.90445 30.2813 8.87258 29.8937 8.29504 29.0287C7.86888 28.3209 7.66168 27.5028 7.69953 26.6775C7.69953 25.5378 7.69953 24.3981 7.69953 23.261C7.69953 22.7861 7.72777 22.0648 7.48135 21.6516C7.09889 21.0304 6.34167 21.5463 5.90274 21.1356Z" fill="white"/>
<path d="M15.5631 24.6889C15.5524 23.8691 15.6942 23.0543 15.9815 22.2864C16.2199 21.63 16.5966 21.0325 17.0859 20.5344C17.5753 20.0362 18.1659 19.6489 18.8178 19.3987C19.4717 19.1416 20.1687 19.0117 20.8713 19.0162C21.5049 18.9948 22.1362 19.1023 22.727 19.3322C23.3178 19.5621 23.8558 19.9095 24.3083 20.3535V17.4941C24.296 17.267 24.2005 17.0525 24.04 16.8914C23.8794 16.7304 23.6651 16.6343 23.4381 16.6213H23.2148L23.0043 16.4083V15.7486L26.5261 14.3984H27.1729L27.386 14.6218L27.1729 16.6162V27.8795C27.1885 28.1056 27.2856 28.3183 27.4461 28.4783C27.6065 28.6383 27.8195 28.7347 28.0456 28.7497H28.3023L28.482 28.9294V29.8842L28.3023 30.0536H24.4777L24.3083 29.8842V28.9294C23.4527 29.8842 22.2976 30.3617 20.8431 30.3617C20.1345 30.3816 19.43 30.2493 18.7769 29.9739C18.1238 29.6985 17.5373 29.2863 17.057 28.7651C16.061 27.7024 15.5631 26.3437 15.5631 24.6889ZM18.5919 23.0564C18.3729 24.1337 18.3729 25.2441 18.5919 26.3214C18.6983 26.8041 18.8711 27.2697 19.1053 27.705C19.3226 28.1137 19.6463 28.456 20.0422 28.6958C20.4643 28.9328 20.9403 29.0572 21.4245 29.0572C21.9086 29.0572 22.3846 28.9328 22.8067 28.6958C23.1978 28.4568 23.5206 28.1208 23.7436 27.7204C23.9818 27.2851 24.1548 26.8172 24.257 26.3317C24.4863 25.2554 24.4863 24.1429 24.257 23.0667C24.1548 22.5812 23.9818 22.1133 23.7436 21.678C23.5212 21.2718 23.1953 20.9318 22.799 20.6923C22.3769 20.4553 21.9009 20.3309 21.4168 20.3309C20.9326 20.3309 20.4566 20.4553 20.0345 20.6923C19.6386 20.9321 19.3149 21.2744 19.0976 21.6831C18.8666 22.1154 18.6964 22.5775 18.5919 23.0564Z" fill="white"/>
</svg>
