<svg width="26" height="25" viewBox="0 0 26 25" fill="none" xmlns="http://www.w3.org/2000/svg"><path fill-rule="evenodd" clip-rule="evenodd" d="M13.0004 15.628C12.5896 15.628 12.1828 15.5471 11.8033 15.3899C11.4238 15.2327 11.0789 15.0023 10.7885 14.7118C10.498 14.4213 10.2676 14.0765 10.1104 13.697C9.95318 13.3175 9.87227 12.9107 9.87227 12.4999C9.87227 12.0891 9.95318 11.6823 10.1104 11.3028C10.2676 10.9233 10.498 10.5785 10.7885 10.288C11.0789 9.99751 11.4238 9.76709 11.8033 9.60989C12.1828 9.45269 12.5896 9.37178 13.0004 9.37178C13.83 9.37178 14.6257 9.70135 15.2123 10.288C15.7989 10.8746 16.1285 11.6703 16.1285 12.4999C16.1285 13.3295 15.7989 14.1252 15.2123 14.7118C14.6257 15.2985 13.83 15.628 13.0004 15.628ZM13.0004 7.68115C11.7224 7.68115 10.4967 8.18884 9.59302 9.09253C8.68933 9.99622 8.18164 11.2219 8.18164 12.4999C8.18164 13.7779 8.68933 15.0036 9.59302 15.9073C10.4967 16.811 11.7224 17.3187 13.0004 17.3187C14.2784 17.3187 15.5041 16.811 16.4078 15.9073C17.3115 15.0036 17.8191 13.7779 17.8191 12.4999C17.8191 11.2219 17.3115 9.99622 16.4078 9.09253C15.5041 8.18884 14.2784 7.68115 13.0004 7.68115ZM19.221 7.59365C19.221 7.89575 19.101 8.18548 18.8874 8.39909C18.6738 8.61271 18.384 8.73271 18.082 8.73271C17.7799 8.73271 17.4901 8.61271 17.2765 8.39909C17.0629 8.18548 16.9429 7.89575 16.9429 7.59365C16.9429 7.29155 17.0629 7.00183 17.2765 6.78821C17.4901 6.5746 17.7799 6.45459 18.082 6.45459C18.384 6.45459 18.6738 6.5746 18.8874 6.78821C19.101 7.00183 19.221 7.29155 19.221 7.59365Z" fill="white"></path><rect x="2.72363" y="1.67896" width="21.2941" height="20.8001" rx="3.25" stroke="white" stroke-width="1.5"></rect></svg>