<svg xmlns="http://www.w3.org/2000/svg" fill="none" viewBox="0.5 21.77 325 236.16">
<rect x="0.5" y="21.7705" width="325" height="209.101" fill="#E0EAF3"/>
<path fill-rule="evenodd" clip-rule="evenodd" d="M265.246 162.167C262.506 162.435 259.765 162.703 257.024 162.971C243.899 163.969 230.779 166.055 217.755 167.307C217.43 166.781 216.795 166.868 216.41 167.233C215.11 167.12 213.654 166.13 212.477 167.159C212.438 167.154 212.4 167.148 212.361 167.144C210.265 163.137 208.816 158.864 207.41 154.585C206.512 151.954 205.305 149.407 203.073 147.641C199.265 145.008 190.538 139.669 186.066 139.893C185.992 139.096 185.619 138.274 185.006 137.743C186.357 135.45 180.956 133.954 180.575 134.219C180.819 126.557 177.2 119.904 169.22 118.378C162.071 116.894 151.902 116.645 148.057 124.085C147.634 124.038 143.314 124.016 142.896 124.062C142.246 123.242 135.109 131.01 138.034 133.715C111.88 145.236 97.0091 143.861 89.7701 176.252C88.7915 179.295 88.7202 182.624 87.6868 185.599C84.0103 194.149 81.0283 203.252 80.2861 212.555C78.4937 213.012 78.2875 216.159 80.3637 216.615C81.1568 216.789 81.82 217.027 82.3982 217.477C81.9462 225.101 83.7976 242.515 84.9641 242.462C87.3427 250 97.9525 252.128 105.464 249.479C104.169 251.905 105.464 253.43 105.464 254.726C132.492 255.745 162.044 255.158 189.064 256.555C192.521 256.506 196.156 257.4 199.565 256.885C201.644 256.389 201.648 253.133 199.539 252.731L208.754 250.738C208.548 250.66 212.552 248.008 215.578 243.051C218.395 237.507 216.478 230.814 217.755 224.783C227.724 223.971 237.858 223.624 247.718 221.942C249.063 225.948 254.882 221.157 256.732 219.23C256.73 219.227 256.728 219.224 256.725 219.221C257.621 218.977 258.339 218.142 258.363 217.152C258.99 216.259 259.122 215 258.52 214.137C261.28 198.279 265.487 182.088 267.007 166.081C267.545 165.963 268.051 165.728 268.48 165.367L268.445 165.332C269.173 164.525 269.314 163.131 268.102 162.445C267.124 161.891 266.307 162.063 265.246 162.167Z" fill="#EDB98A"/>
<path fill-rule="evenodd" clip-rule="evenodd" d="M161.017 221.518L163.128 222.856L180.401 228.399L190.956 229.736L199.593 228.399V243.115L201.32 256.877C200.553 258.278 193.259 258.278 179.441 256.877C170.632 255.983 138.438 255.55 131.108 255.359L130.693 255.348C122.079 255.1 113.571 255.1 105.167 255.348V250.187L129.157 238.337L150.653 226.296L161.017 221.518ZM148.777 122.883L150.364 124.062L146.9 129.729L163.773 143.32V154.176L169.114 159.208L172.168 154.176L176.47 148.479L179.527 139.242L178.486 133.158L180.58 132.961C180.59 133.377 180.588 133.797 180.575 134.219C180.956 133.954 186.357 135.45 185.006 137.743C185.619 138.274 185.992 139.096 186.066 139.893C190.538 139.669 199.265 145.008 203.073 147.641C205.305 149.407 206.513 151.954 207.41 154.585L207.621 155.227L207.84 155.885L208.059 156.544C209.274 160.163 210.585 163.749 212.362 167.144C212.4 167.148 212.438 167.154 212.477 167.159C213.654 166.13 215.111 167.119 216.41 167.233C216.787 166.876 217.401 166.785 217.731 167.271L217.755 167.307L201.562 170.483L190.879 207.8L181.576 200.28L176.583 201.019L163.396 205.756L148.059 209.723L113.047 219.336H108.588L82.6429 213.097L80.3047 212.328C81.0768 203.104 84.0402 194.079 87.6869 185.599C88.7202 182.624 88.7915 179.295 89.7702 176.252C97.0091 143.861 111.88 145.236 138.034 133.715C135.109 131.01 142.246 123.242 142.896 124.062L142.937 124.059L143.026 124.054L143.14 124.05C144.16 124.02 147.678 124.043 148.057 124.085C148.277 123.66 148.518 123.259 148.777 122.883Z" fill="#FF734F"/>
<path fill-rule="evenodd" clip-rule="evenodd" d="M267.834 163.3L267.352 165.977C267.237 166.014 267.121 166.046 267.002 166.072C266.851 167.668 266.673 169.265 266.472 170.864L263.481 187.462C262.966 190.398 262.476 193.341 261.99 196.284L261.346 199.446L260.947 201.411C260.086 205.667 259.249 209.909 258.515 214.127C258.626 214.286 258.712 214.458 258.775 214.639L258.718 214.877L258.679 215.035L258.639 215.192C258.06 217.409 257.052 219.559 254.677 220.212C252.885 220.704 250.92 220.748 249.07 220.942L248.865 220.965L216.495 224.59C212.584 225.028 208.675 225.479 204.766 225.935L201.377 226.331C196.654 226.875 191.903 227.304 187.25 228.29C187.079 228.326 186.937 228.394 186.821 228.484C187.759 224.951 188.656 221.423 189.469 217.855C190.384 213.838 191.252 209.814 192.231 205.813C194.203 197.751 196.413 189.742 198.833 181.802C199.341 180.136 199.86 178.472 200.391 176.813L200.764 175.653L201.05 174.729C201.494 173.32 202.043 171.871 203.344 171.094C204.867 170.184 206.943 170.033 208.67 169.719L209.84 169.5C211.589 169.175 213.341 168.862 215.095 168.562C223.493 167.123 231.938 165.969 240.415 165.103C249.235 164.201 258.086 163.614 266.948 163.328L267.834 163.3ZM187.492 218.64L187.575 218.647L186.366 228.273C186.172 228.138 185.927 228.055 185.627 228.056C181.661 228.068 177.859 226.805 174.182 225.418L173.622 225.205L172.061 224.607C170.474 224.002 168.879 223.41 167.253 222.919L166.596 222.721L166.262 222.623C165.032 222.265 163.738 221.94 162.458 221.859L162.283 221.85L162.656 221.655C162.71 221.626 162.758 221.594 162.801 221.56C163.505 221.612 164.211 221.598 164.954 221.465C166.352 221.214 167.711 220.73 168.959 220.056L169.516 219.755L169.744 219.634L169.895 219.557L170.045 219.481C171.117 218.949 172.141 218.616 173.495 218.899C175.031 219.221 176.377 220.046 177.762 220.742L178.007 220.864L178.173 220.944L178.341 221.023L178.512 221.1C180.384 221.939 183.364 222.845 184.083 220.31C184.371 219.291 184.145 218.337 183.645 217.501C184.577 217.42 186.244 218.515 187.492 218.64Z" fill="white"/>
<path fill-rule="evenodd" clip-rule="evenodd" d="M148.555 122.357C149.37 120.319 152.122 121.112 151.816 123.253C151.632 124.535 150.927 125.89 150.293 127.014C149.777 127.929 149.189 128.822 148.391 129.507C149.811 130.827 151.285 132.098 152.797 133.305C154.446 134.622 156.181 135.837 157.973 136.952C159.545 137.931 161.188 138.798 162.67 139.914C164.048 140.952 165.303 142.201 165.942 143.831C166.622 145.566 166.327 147.358 165.826 149.093L165.768 149.289C165.256 151.007 164.37 153.078 165.599 154.697C166.224 155.521 167.134 156.105 167.919 156.764C168.617 157.35 169.272 157.986 169.872 158.67C171.182 160.162 172.248 161.84 172.92 163.709L172.98 163.879C173.556 165.534 173.977 167.562 173.199 169.187C172.975 169.652 172.255 169.501 172.13 169.047C171.847 168.02 171.862 166.944 171.624 165.902C171.378 164.818 170.967 163.789 170.43 162.816C169.393 160.933 167.987 159.325 166.326 157.966L165.829 157.563C164.534 156.504 163.343 155.381 163.08 153.629C162.799 151.754 163.553 149.968 164.038 148.194C164.376 146.957 164.487 145.772 164.121 144.654C163.675 145.379 163.066 146.068 162.585 146.682C161.626 147.905 160.658 149.121 159.692 150.34C158.702 151.589 157.737 152.858 156.817 154.159C156.406 154.742 155.999 155.328 155.594 155.914C155.289 156.355 154.863 156.795 154.531 157.245C154.612 157.485 154.605 157.762 154.459 157.959C152.696 160.331 150.188 155.382 149.534 154.132C148.202 151.585 147.211 148.88 145.875 146.334C144.49 143.695 142.913 141.126 141.156 138.717C140.093 137.259 138.901 135.891 137.929 134.387C135.638 136.456 132.623 137.843 129.854 139.1C126.812 140.482 123.651 141.61 120.531 142.809L119.61 143.165C114.235 145.254 108.729 147.549 104.262 151.26C99.0121 155.62 95.9064 161.697 93.5943 167.99C90.9327 175.235 88.7308 182.675 86.6782 190.11C85.6278 193.915 84.6311 197.737 83.6942 201.57C82.8685 204.948 82.1841 208.359 81.2284 211.702C83.1668 211.634 85.3775 212.381 87.0325 212.597C94.5748 213.58 102.016 215.147 109.137 217.861C110.016 218.196 110.271 219.071 110.079 219.78C110.586 219.637 111.093 219.493 111.6 219.351C111.045 218.503 111.31 216.987 111.354 216.047L111.356 215.982C111.401 214.73 111.538 213.476 111.626 212.226C111.795 209.843 112.014 207.477 112.306 205.108L112.38 204.515C112.711 201.937 112.955 199.344 113.315 196.771L113.358 196.476C113.185 195.818 112.984 195.167 112.773 194.52C112.209 192.795 111.415 191.171 110.718 189.5C110.636 189.304 110.917 189.191 111.049 189.309C112.228 190.365 113.165 191.706 113.918 193.108C113.931 193.042 113.943 192.976 113.956 192.91L114.042 192.489C114.254 191.462 114.512 190.382 115.144 189.549C115.211 189.46 115.345 189.442 115.408 189.549C116.014 190.569 116.081 191.861 116.175 193.021C116.28 194.334 116.293 195.664 116.275 196.981C116.238 199.554 116.056 202.134 115.911 204.703C115.769 207.228 115.489 209.72 115.129 212.22L115.06 212.689C114.884 213.878 114.74 215.083 114.508 216.265L114.442 216.586C114.318 217.172 114.242 217.999 113.995 218.685C120.354 216.918 126.724 215.192 133.106 213.496C137.718 212.27 142.336 211.063 146.951 209.848C147.195 209.41 147.498 209.002 147.876 208.637C149.123 207.435 150.776 206.898 152.291 207.824C152.415 207.899 152.425 208.092 152.291 208.164C152.001 208.323 151.71 208.485 151.424 208.654L154.196 207.906C156.267 207.347 158.363 206.648 160.483 206.259C164.388 204.34 168.588 202.951 172.702 201.578L173.187 201.414C175.293 200.699 177.472 199.899 179.648 199.502C181.241 199.212 183.111 199.562 183.752 201.188C184.563 201.72 185.326 202.345 186.062 202.961C186.595 203.405 187.105 203.878 187.624 204.338L187.72 204.422C188.144 204.788 188.48 205.034 188.584 205.617C188.638 205.919 188.446 206.326 188.072 206.286C186.93 206.165 186.001 204.846 185.227 204.059C184.628 203.45 184.025 202.821 183.479 202.152C183.161 202.325 182.724 202.294 182.522 201.912C181.471 199.93 178.592 201.303 176.999 201.773L174.717 202.446C173.576 202.783 172.435 203.121 171.297 203.465C168.168 204.412 165.054 205.471 161.896 206.34C162.179 206.649 162.14 207.199 161.603 207.408C159.132 208.374 156.42 208.874 153.853 209.536C152.231 209.955 150.611 210.376 148.992 210.8C148.714 211.248 148.514 211.755 148.43 212.345C148.121 214.514 148.717 217.017 149.298 219.116L149.385 219.429C149.862 221.116 150.565 223.183 152.026 224.249C152.383 224.508 152.837 224.689 153.295 224.73C156.156 223.264 159.017 221.797 161.88 220.334C162.41 220.062 162.9 220.43 163.019 220.866C164.028 220.701 165.035 220.441 165.952 220.131C167.493 219.61 168.697 218.616 170.142 217.928C172.937 216.599 175.792 218.232 178.295 219.474L178.872 219.756C179.994 220.299 182.329 221.341 182.868 219.857C183.389 218.422 181.742 216.889 180.678 216.243C179.41 215.473 177.934 215.061 176.501 214.718C175.683 214.521 174.855 214.361 174.022 214.245C173.077 214.112 172.101 214.132 171.191 213.827C170.739 213.675 170.669 212.96 171.191 212.842C172.592 212.525 174.263 212.871 175.725 213.225L176.489 213.412C177.961 213.772 179.448 214.224 180.79 214.942C181.765 215.464 182.794 216.257 183.467 217.228C184.051 216.688 184.778 216.706 185.535 216.906L185.946 217.02C186.625 217.207 187.175 217.336 187.835 217.207C187.923 216.728 188.013 216.25 188.108 215.771C189.049 211.067 190.081 206.38 191.22 201.719C193.184 193.678 195.457 185.726 198.019 177.856L198.276 177.069C198.867 175.269 199.343 173.307 200.296 171.653C201.197 170.09 202.64 169.189 204.355 168.712C206.302 168.17 208.347 167.887 210.333 167.522C210.776 167.44 211.22 167.363 211.663 167.283C211.289 166.609 211.009 165.844 210.757 165.257L210.713 165.156C210.172 163.927 209.686 162.676 209.216 161.419L208.865 160.473C208.017 158.197 207.142 155.958 205.951 153.829C204.696 151.588 203.032 149.756 200.958 148.24C196.728 145.148 191.63 143.571 187.528 140.267C187.36 140.132 187.575 139.9 187.746 139.986C190.516 141.372 193.506 142.314 196.387 143.443L196.956 143.666C199.233 144.565 201.545 145.544 203.517 146.999C205.714 148.622 207.445 150.638 208.746 153.035C210.028 155.398 210.848 158.042 211.752 160.566L211.994 161.238C212.359 162.247 212.736 163.252 213.168 164.233C213.51 165.012 214.15 165.902 214.441 166.791C215.236 166.654 216.032 166.516 216.828 166.384C234.076 163.516 251.516 161.831 268.995 161.338C269.679 161.319 270.032 161.969 269.931 162.563C268.254 172.44 266.763 182.352 265.128 192.237C264.414 196.552 263.686 200.863 262.941 205.172C262.563 207.355 262.127 209.529 261.769 211.716C261.48 213.481 261.271 215.261 260.775 216.985C260.331 218.532 259.649 220.023 258.528 221.203C257.321 222.475 255.635 223.09 253.939 223.381C249.632 224.119 245.214 224.421 240.872 224.913L217.756 227.532C218.094 230.589 218.119 233.6 217.964 236.693L217.876 238.382C217.803 239.74 217.717 241.1 217.521 242.445C217.275 244.131 216.501 245.559 215.36 246.818C214.312 247.975 213.039 248.962 211.801 249.908C210.516 250.89 209.188 251.838 207.677 252.445L207.481 252.522C206.156 253.038 203.669 253.836 201.857 253.544C202.094 254.726 202.552 255.996 202.146 257.166C201.957 257.709 201.244 257.98 200.808 257.518C199.942 256.602 199.875 255.393 199.67 254.198C199.456 252.955 199.273 251.707 199.109 250.457C198.793 248.039 198.547 245.599 198.472 243.16C198.395 240.656 198.425 238.149 198.561 235.647C198.63 234.362 198.717 233.079 198.88 231.802C198.95 231.258 199.022 230.713 199.103 230.17C199.133 229.972 199.166 229.775 199.201 229.579L197.127 229.812C193.945 230.165 190.762 230.485 187.558 230.534C187.179 230.54 186.887 230.368 186.696 230.118C186.493 230.447 186.139 230.683 185.632 230.681C181.158 230.665 176.991 229.208 172.922 227.49C170.87 226.625 168.851 225.687 166.797 224.829C164.879 224.028 162.829 223.456 160.958 222.554L156.041 225.122C156.005 225.248 155.959 225.368 155.909 225.468C155.589 226.119 154.958 226.472 154.313 226.737C153.695 226.993 153.054 227.073 152.429 227.008C148.7 228.954 144.97 230.898 141.238 232.838L137.505 234.776C130.066 238.633 122.658 242.553 115.173 246.319L114.622 246.595C112.036 247.886 109.26 249.195 106.391 250.171C106.34 250.895 106.372 251.598 106.433 252.364L106.448 252.53C106.533 253.435 106.717 254.568 105.988 255.212C105.609 255.547 104.932 255.548 104.674 255.044C104.206 254.128 104.626 252.684 104.775 251.689C104.827 251.336 104.891 250.972 104.986 250.619C101.697 251.594 98.3081 252.067 94.961 251.52C91.7021 250.987 89.1782 248.942 87.1434 246.442C84.996 243.803 83.47 240.727 82.6513 237.43C81.7195 233.679 81.6587 229.805 81.6805 225.962C81.7038 221.87 81.8558 217.758 82.3555 213.694C81.808 213.566 81.2007 213.455 80.6474 213.493C80.3733 213.93 79.8417 214.114 79.3613 214.057C78.3167 215.204 80.9664 216.377 81.8131 216.67C82.1072 216.772 82.0757 217.248 81.7366 217.234L81.523 217.223C80.2146 217.154 78.8628 216.932 78.0935 215.721C77.477 214.75 77.6623 213.6 78.3971 212.809C78.8825 208.239 80.0429 203.788 81.1228 199.33C82.1826 194.954 83.3612 190.606 84.6104 186.28L85.1705 184.344C87.1373 177.561 89.1932 170.724 91.9064 164.21C93.2611 160.958 94.8218 157.766 96.9374 154.93C98.9094 152.287 101.238 150.025 103.914 148.093C108.903 144.491 114.757 142.314 120.509 140.241L120.766 140.148C123.747 139.074 126.721 137.988 129.667 136.824C132.273 135.795 134.77 134.491 137.364 133.447C137.28 133.294 137.198 133.14 137.12 132.984L137.072 133.025C137.064 133.031 137.055 133.037 137.047 133.043C136.786 133.223 136.402 133.135 136.187 132.933C135.58 132.363 135.785 131.729 136.191 131.138L136.243 131.063C136.739 130.371 137.181 129.641 137.638 128.924L137.925 128.476C138.692 127.279 139.499 126.075 140.523 125.086C140.997 124.627 141.516 124.284 142.065 124.029C142.018 123.93 142.431 123.727 142.548 123.829C144.29 123.194 146.294 123.327 148.193 123.502M216.637 227.658L214.215 227.932C211.551 228.234 208.885 228.526 206.219 228.815L200.428 229.442C200.413 229.771 200.373 230.092 200.366 230.341C200.328 231.621 200.3 232.901 200.273 234.181C200.22 236.748 200.278 239.317 200.448 241.878C200.613 244.36 200.829 246.843 201.166 249.308L201.235 249.801L201.274 250.06C201.549 250.086 201.819 250.216 202.043 250.483C202.533 251.066 204.307 250.5 204.999 250.254C206.138 249.851 207.211 249.169 208.201 248.485C209.167 247.817 210.038 247.038 210.874 246.218L211.558 245.544C212.239 244.871 212.921 244.153 213.338 243.306C213.903 242.157 213.976 240.746 214.142 239.494C214.346 237.955 214.589 236.416 214.846 234.884M146.326 211.5L146.074 211.565C136.948 213.98 127.836 216.467 118.682 218.775C114.152 219.917 109.6 220.977 105.064 222.097L104.33 222.28C100.752 223.181 97.1305 224.265 94.3904 226.849C94.2893 226.945 94.1424 226.798 94.2376 226.697C97.1907 223.567 101.391 222.241 105.423 221.092C106.169 220.88 106.915 220.673 107.661 220.462C102.177 218.514 96.6056 216.821 90.9061 215.612C89.4384 215.301 87.9537 215.073 86.4872 214.761C85.4645 214.543 84.4657 214.228 83.4538 213.966L82.6578 213.767L82.6472 216.272C82.634 219.82 82.6403 223.366 82.8221 226.914L82.8565 227.571C83.0686 231.519 83.3996 235.549 84.8066 239.272C85.9498 242.297 87.7721 245.147 90.1552 247.351C91.3611 248.465 92.6575 249.333 94.2601 249.762C95.7481 250.16 97.307 250.206 98.8367 250.1C106.174 249.59 112.705 245.621 119.078 242.335C129.503 236.96 139.929 231.587 150.364 226.233C150.082 226.041 149.816 225.82 149.574 225.571C148.175 224.132 147.437 222.162 146.952 220.254C146.436 218.223 146.128 216.046 146.092 213.949M159.603 228.308C159.695 228.259 159.802 228.32 159.806 228.424C159.839 229.218 159.398 230 159.069 230.715L159.034 230.792C158.635 231.678 158.197 232.551 157.744 233.411C156.839 235.13 155.899 236.83 154.917 238.506C152.943 241.878 150.75 245.107 148.158 248.043C147.572 248.706 146.609 247.856 146.985 247.142C148.797 243.7 150.909 240.45 153.083 237.228C154.171 235.615 155.259 234 156.358 232.394C156.816 231.724 157.281 231.056 157.758 230.399L158.046 230.006M267.839 163.31C258.681 163.585 249.534 164.18 240.419 165.112C231.943 165.979 223.498 167.133 215.1 168.571C213.346 168.871 211.594 169.184 209.844 169.509L208.795 169.706C207.045 170.036 204.907 170.172 203.349 171.103C201.706 172.085 201.262 174.136 200.716 175.827C200.073 177.817 199.447 179.812 198.838 181.812C196.418 189.752 194.208 197.76 192.236 205.822C191.257 209.824 190.388 213.848 189.473 217.864C188.66 221.432 187.763 224.96 186.826 228.493C186.942 228.404 187.083 228.336 187.254 228.299C191.908 227.313 196.659 226.885 201.382 226.34L201.839 226.287C206.725 225.715 211.611 225.147 216.5 224.599L248.87 220.974C250.779 220.76 252.824 220.731 254.682 220.221C257.84 219.354 258.581 215.837 259.11 213.036L259.126 212.951C260.724 204.49 261.996 195.954 263.486 187.471M187.579 218.656C186.323 218.574 184.603 217.428 183.649 217.51C184.15 218.346 184.376 219.3 184.087 220.319C183.284 223.154 179.654 221.687 177.905 220.821C176.471 220.111 175.087 219.241 173.499 218.909C171.701 218.532 170.483 219.244 168.963 220.065C167.716 220.739 166.357 221.223 164.959 221.474C164.216 221.607 163.51 221.621 162.805 221.569C162.763 221.604 162.715 221.636 162.661 221.664L162.288 221.859C163.973 221.936 165.69 222.454 167.258 222.928C168.883 223.419 170.479 224.011 172.066 224.617L173.627 225.214C177.478 226.683 181.464 228.078 185.632 228.065C185.932 228.065 186.177 228.147 186.37 228.282M180.548 209.774C181.79 209.623 182.936 209.785 183.928 210.59C185.124 211.56 185.928 213.17 187.648 213.276C188.15 213.306 188.266 214.009 187.768 214.155C186.487 214.533 185.451 213.843 184.578 212.947L183.992 212.337C183.13 211.448 182.335 210.761 180.872 210.814C179.306 210.871 177.737 211.232 176.18 211.415C174.417 211.623 172.655 211.8 170.886 211.952C170.804 211.959 170.79 211.831 170.867 211.812L172.848 211.321M179.35 204.719L179.555 204.699C181.357 204.525 183.006 204.518 184.616 205.484L184.925 205.67C186.377 206.548 187.957 207.584 188.865 209.006C189.013 209.239 188.768 209.513 188.519 209.454C186.775 209.037 185.499 207.762 184.032 206.808C182.385 205.737 180.684 205.914 178.807 206.08C176.989 206.241 175.172 206.462 173.372 206.764C171.68 207.048 169.983 207.495 168.275 207.637L168.275 207.634C168.08 207.633 167.969 207.342 168.168 207.243C169.902 206.38 171.91 205.972 173.796 205.578M117.616 155.899C117.613 155.757 117.814 155.704 117.884 155.827C119.057 157.882 119.67 160.401 120.295 162.665C120.95 165.037 121.478 167.433 121.953 169.847C122.914 174.734 123.426 179.593 123.461 184.575C123.466 185.286 122.302 185.475 122.188 184.746C121.433 179.901 120.709 175.051 119.948 170.207C119.564 167.77 119.119 165.343 118.692 162.914M129.228 159.479C129.142 159.195 129.556 159.1 129.662 159.359C132.016 165.114 132.814 171.636 131.302 177.707C131.071 178.636 129.705 178.233 129.879 177.316M159.594 154.365C159.582 154.153 159.859 154.12 159.963 154.266C161.078 155.831 161.541 157.927 163.498 158.736C164.475 159.14 165.575 159.069 166.438 159.751C167.015 160.208 167.458 160.928 167.024 161.619C166.885 161.842 166.494 161.954 166.304 161.711C166.027 161.358 165.881 160.935 165.505 160.67C164.975 160.296 164.259 160.273 163.651 160.097C162.865 159.87 162.172 159.473 161.604 158.882M178.229 128.26C178.344 128.202 178.455 128.239 178.528 128.338C178.633 128.479 178.62 128.616 178.492 128.713C178.663 129.063 178.866 129.938 178.895 130.066C179.013 130.583 179.138 131.096 179.268 131.61C179.532 132.645 179.763 133.688 180.027 134.724C180.307 135.822 180.64 136.908 181.011 137.979C181.035 138.048 181.061 138.119 181.089 138.191L181.131 138.299L181.142 138.283C181.217 138.164 181.374 138.247 181.356 138.372C181.338 138.487 181.315 138.6 181.295 138.715L181.334 138.817C181.577 139.467 181.743 140.152 181.298 140.726C181.131 140.941 180.948 141.068 180.72 141.106C180.353 142.308 179.894 143.488 179.402 144.621L179.258 144.952C178.534 146.605 177.763 148.237 176.611 149.644C175.353 151.181 173.623 152.23 172.527 153.914C172.017 154.697 171.662 155.521 171.375 156.405L171.266 156.741C171.062 157.367 170.826 157.973 170.237 158.34C170.049 158.457 169.767 158.42 169.615 158.26C168.407 156.987 169.672 154.61 170.401 153.377C171.414 151.663 172.88 150.567 174.348 149.274C175.93 147.88 176.94 146.015 177.916 144.178C178.514 143.053 179.091 141.903 179.699 140.773C179.064 140.214 178.861 139.104 178.646 138.332L178.626 138.263C178.27 137.027 177.988 135.759 177.809 134.485C177.638 133.261 177.566 132.054 177.611 130.823L177.624 130.509M180.59 134.088C180.45 133.896 180.682 133.679 180.875 133.719C182.045 133.96 183.189 134.666 184.24 135.236L184.352 135.297C185.191 135.747 186.034 136.299 186.475 137.174C186.953 138.124 186.914 139.22 186.849 140.253L186.842 140.349C186.762 141.589 186.75 142.876 186.486 144.093C186.351 144.715 185.785 144.891 185.301 144.744C184.725 146.555 183.106 147.89 181.924 149.32C180.417 151.142 180.7 153.603 180.858 155.798C180.922 156.687 179.812 156.94 179.24 156.466L177.922 155.376C177.703 155.194 177.484 155.012 177.265 154.829C177.078 154.672 176.892 154.514 176.708 154.354L176.434 154.112C176.312 154.003 175.774 153.405 175.617 153.381C175.236 153.32 174.332 154.32 174.022 154.633L173.983 154.672C173.4 155.241 172.874 155.853 172.384 156.503C172.293 156.622 172.117 156.523 172.181 156.385C172.621 155.448 173.132 154.552 173.738 153.713L173.861 153.546C174.265 153.004 174.806 152.048 175.519 151.888C176.389 151.693 177.257 152.561 177.89 153.043L177.93 153.074C178.231 153.299 178.529 153.528 178.826 153.758C178.795 152.124 179.002 150.472 179.85 149.064C180.447 148.071 181.342 147.335 182.108 146.481C182.961 145.531 183.406 144.363 184.178 143.373C184.278 143.246 184.415 143.177 184.563 143.155C184.593 142.359 184.71 141.556 184.801 140.769L184.828 140.533C184.92 139.678 185.137 138.633 184.716 137.832C184.319 137.075 183.408 136.541 182.733 136.028L182.182 135.602M142.606 125.044C142.254 125.247 141.924 125.5 141.626 125.815C140.685 126.809 140.012 128.045 139.358 129.235C139.006 129.876 138.666 130.523 138.311 131.162C138.156 131.441 137.997 131.716 137.837 131.99C137.762 132.117 137.542 132.368 137.432 132.523C137.554 132.693 137.68 132.86 137.808 133.025C137.857 133.088 141.231 136.749 142.407 138.181C144.208 140.375 145.818 142.693 147.194 145.174C148.542 147.604 149.568 150.176 150.816 152.652C151.441 153.892 152.139 155.123 153.028 156.196C153.063 156.238 153.099 156.278 153.134 156.319C153.474 155.405 154.344 154.427 154.771 153.866L154.811 153.813C155.78 152.512 156.803 151.25 157.849 150.01C158.804 148.878 159.783 147.77 160.786 146.68L161.163 146.272C161.862 145.52 162.75 144.396 163.773 143.859C163.663 143.664 163.536 143.472 163.39 143.282C162.432 142.034 161.077 141.129 159.74 140.312L158.873 139.787C155.605 137.804 152.388 135.729 149.551 133.152C148.05 131.788 146.57 130.36 145.308 128.77L144.862 128.207M148.059 124.062C146.529 124.19 144.876 124.16 143.462 124.656C144.719 125.84 145.914 127.118 147.142 128.322C147.251 127.508 147.474 126.703 147.664 125.91" fill="black"/>
<path fill-rule="evenodd" clip-rule="evenodd" d="M192.743 74.3753C192.952 72.4401 190.682 67.2774 190.737 68.3246C187.098 62.7248 179.996 60.5226 173.868 58.674C160.86 54.3885 150.702 59.5641 141.563 68.7369C136.167 73.7668 131.033 79.3854 128.324 86.3484C122.995 99.6315 130.983 114.778 143.129 121.123C144.109 121.653 145.178 122.155 146.111 122.795C151.132 125.69 157.028 126.691 162.624 127.951C173.091 130.339 186.238 129.201 192.406 119.256C196.59 112.197 195.479 103.641 195.151 95.8074C194.659 88.9442 193.796 81.1882 192.743 74.3753Z" fill="#EDB98A"/>
<path fill-rule="evenodd" clip-rule="evenodd" d="M136.792 54.7876C143.574 48.4609 153.597 45.3944 162.762 45.9307C167.725 46.2213 172.509 47.4624 176.995 49.5949C178.398 50.2617 179.765 51.0423 181.025 51.9614C181.875 52.3574 182.707 52.786 183.512 53.2519C187.546 55.5837 190.663 59.1156 192.659 63.3051C193.612 65.3047 194.363 67.4134 194.789 69.586L194.858 69.9436C195.075 71.0339 195.504 72.4703 194.961 73.4905C194.601 74.1669 193.846 74.5933 193.132 74.536C193.287 75.1629 193.473 75.7896 193.592 76.4205L193.915 78.1407C193.969 78.4274 194.022 78.7141 194.074 79.0008C194.387 80.7094 194.674 82.416 194.904 84.1381C195.384 87.7239 195.819 91.3171 196.202 94.916C196.477 97.4899 196.734 100.066 196.984 102.642L197.133 104.188C197.39 106.848 197.591 109.532 197.416 112.204C197.154 116.212 195.918 119.869 193.521 122.844C193.749 123.392 193.826 124.009 193.998 124.691C194.236 125.634 194.546 126.558 194.876 127.474C195.031 127.834 195.185 128.194 195.338 128.555L195.741 129.51L196.055 130.137C196.395 130.819 196.724 131.511 196.933 132.216C198.288 132.938 199.394 134.116 199.448 135.73C199.496 137.188 198.738 138.732 197.457 139.476C196.192 140.21 194.891 139.921 193.68 139.36C192.625 139.667 191.495 139.705 190.45 139.378C189.645 140.105 188.606 140.607 187.456 140.743C185.721 140.948 184.073 140.464 182.482 139.826L182.371 139.782C182.321 139.762 182.271 139.741 182.223 139.72C180.392 139.632 178.569 138.91 177.27 137.629C176.847 137.215 176.482 136.741 176.187 136.209C175.116 134.277 174.949 131.905 176.003 129.988C175.777 129.998 175.549 130.007 175.323 130.013C172.309 130.099 169.291 129.945 166.285 129.748L165.576 129.7C163.631 129.56 160.763 129.231 160.708 126.825C160.7 126.517 161.018 126.286 161.31 126.368C162.415 126.679 163.501 127.169 164.646 127.345C166.143 127.576 167.695 127.601 169.208 127.685L169.643 127.709C172.694 127.876 175.855 127.977 178.856 127.373C181.097 126.924 183.432 126.106 185.485 125.093C187.456 124.119 189.246 122.844 190.69 121.179C193.871 117.517 194.293 112.351 194.138 107.718C193.95 102.184 193.299 96.6591 192.931 91.1336L192.765 88.6513C192.628 86.5812 192.502 84.5083 192.45 82.4372C192.412 80.9254 192.437 79.4098 192.444 77.8979C192.448 77.143 192.439 76.3842 192.456 75.6292C192.466 75.2049 192.515 74.7902 192.552 74.3753C192.383 74.2875 192.226 74.165 192.085 74.0027C191.973 73.8747 191.887 73.739 191.828 73.6014C191.114 73.3929 190.782 73.1157 190.319 72.4871C189.928 71.9577 189.486 71.4684 189.013 71.0097C188.005 70.0349 186.854 69.2379 185.638 68.5439C183.123 67.1087 180.369 66.1493 177.592 65.3618C173.34 64.1577 168.924 63.5385 164.609 62.5712C163.42 64.2263 162.16 65.832 160.842 67.3859C156.73 72.2329 152.015 76.5541 146.963 80.4075C145.935 81.193 144.892 81.9671 143.835 82.718C142.443 84.8369 141.036 86.9457 139.607 89.0403L138.994 89.9371L138.984 89.9543C138.9 90.0824 138.819 90.2104 138.739 90.3385C138.569 90.6099 138.377 90.8717 138.174 91.1259C138.042 91.3188 137.908 91.5118 137.772 91.7051C138.033 91.8444 138.27 92.0013 138.456 92.1752C138.835 92.5325 138.772 93.1003 138.456 93.4634C137.437 94.637 135.824 93.1079 134.652 92.7008C133.382 93.0867 132.323 94.5949 131.797 95.7472C131.038 97.4083 130.734 99.4112 131.077 101.21C131.39 102.853 132.237 104.274 133.645 105.164C133.695 105.195 133.748 105.227 133.8 105.256C133.802 105.26 133.802 105.26 133.804 105.258C133.852 105.288 133.901 105.317 133.951 105.344C134.612 105.707 135.338 105.921 136.09 105.973C136.521 106.003 136.971 105.98 137.402 106.032C137.845 106.083 138.209 106.286 138.634 106.393C139.103 106.514 139.406 107.143 139.111 107.565C138.965 107.773 138.827 107.972 138.68 108.15C139.164 108.719 139.586 109.348 139.967 109.946C140.488 110.766 140.949 111.636 141.371 112.523C141.759 113.033 142.131 113.553 142.491 114.084C144.531 117.1 146.092 120.46 147.051 123.971C148.001 127.444 148.595 131.345 147.716 134.891C146.906 138.151 144.54 140.852 141.039 141.026C140.309 141.062 139.59 140.98 138.914 140.795C137.43 141.71 135.591 142.17 133.945 142.224C132.613 142.268 131.155 141.988 130.067 141.184C128.777 141.744 127.378 142.062 126.161 142.135C124.799 142.216 123.373 141.846 122.263 141.112C121.207 142.015 120.067 142.777 118.772 143.3C116.544 144.198 113.894 144.087 111.854 142.744C109.81 141.398 108.771 138.983 109.395 136.586C109.969 134.376 111.775 132.756 113.472 131.36L113.808 131.086C115.486 129.719 117.181 128.396 118.258 126.469C119.402 124.426 119.819 122.052 119.932 119.74C120.177 114.648 119.139 109.602 118.823 104.537C118.498 99.3062 118.68 94.0596 119.394 88.8666C120.783 78.779 124.437 68.8901 131.048 61.0268C132.004 59.8891 133.028 58.8046 134.107 57.7767C134.932 56.7003 135.823 55.6913 136.792 54.7876ZM224.732 112.385C224.769 112.387 224.803 112.389 224.836 112.402C224.858 112.412 224.876 112.426 224.893 112.442L225.054 112.603C225.112 112.66 225.108 112.748 225.054 112.806C225.007 112.858 224.922 112.859 224.867 112.819L224.851 112.806L224.684 112.639C224.666 112.619 224.65 112.598 224.642 112.571C224.635 112.544 224.635 112.513 224.633 112.485C224.631 112.433 224.681 112.385 224.732 112.385ZM134.876 96.77C136.412 96.3053 138.255 97.4103 139.17 98.5761C139.63 99.161 139.76 99.9618 139.17 100.537C138.668 101.026 137.688 101.116 137.203 100.537C136.654 99.8777 136.205 98.9639 135.42 98.5417C134.568 98.083 133.426 98.1977 133.225 99.3156C133.191 99.505 132.919 99.4418 132.907 99.2718C132.833 98.1404 133.827 97.0851 134.876 96.77Z" fill="black"/>
<path fill-rule="evenodd" clip-rule="evenodd" d="M175.907 116.001C174.617 115.477 173.466 114.602 172.624 113.486C172.332 113.097 172.256 112.687 172.317 112.312C172.386 111.891 172.637 111.509 172.978 111.252C173.321 110.995 173.75 110.868 174.164 110.933C174.524 110.989 174.883 111.185 175.166 111.593L175.226 111.674C175.726 112.348 176.378 112.901 177.121 113.258C177.837 113.601 178.638 113.762 179.466 113.668C181.045 113.491 182.133 112.641 183.289 111.486C183.432 111.341 183.576 111.19 183.72 111.038C183.811 110.899 183.937 110.81 184.077 110.764C184.233 110.712 184.409 110.715 184.57 110.771C184.726 110.825 184.865 110.927 184.958 111.064C185.047 111.193 185.097 111.353 185.081 111.538C184.975 112.734 184.347 113.802 183.455 114.64C182.464 115.571 181.151 116.215 179.914 116.441C178.552 116.69 177.164 116.512 175.907 116.001ZM180.557 97.5457C182.006 98.423 184.215 100.469 182.655 102.644C180.82 104.561 178.178 102.362 176.876 101.368C175.669 100.597 174.312 102.579 175.432 103.479C184.841 110.416 188.659 97.7751 181.29 96.5142C180.479 96.3752 180.177 97.2743 180.557 97.5457ZM163.696 89.4761C163.857 87.4967 166.884 87.0472 167.185 89.0059C167.454 90.7605 167.137 92.3722 166.343 93.9519C165.585 95.4611 163.679 94.757 163.535 93.3828C163.342 91.5407 163.597 90.7074 163.696 89.4761ZM186.739 88.5998C187.161 88.0493 187.771 87.6736 188.501 87.8859C190.782 88.5497 190.109 91.7746 189.308 93.3443C188.873 94.1968 187.466 94.4129 186.83 93.6624C185.794 92.4384 185.298 89.9941 186.615 88.7884C186.651 88.7261 186.691 88.6632 186.739 88.5998ZM166.311 80.8149L166.672 80.7521C167.786 80.5601 169.172 80.3757 169.961 81.2681C170.379 81.7413 170.523 82.6209 169.961 83.0739C168.972 83.8709 167.879 83.562 166.694 83.6295C165.717 83.6853 164.779 83.8462 163.838 84.114C161.775 84.7013 160.093 85.7736 158.331 86.9509C158.1 87.1053 157.863 86.8108 157.974 86.5954C158.991 84.6109 160.963 82.9808 162.938 81.9871C163.992 81.4567 165.145 81.0167 166.311 80.8149ZM184.66 79.926L184.936 79.9822C187.937 80.6069 191.836 81.8548 193.257 84.7905C193.311 85.2056 193.254 85.2945 193.208 85.3527L193.192 85.372C193.154 85.4216 193.123 85.4901 192.943 85.5466C192.892 85.5347 192.842 85.5221 192.791 85.5087C192.139 85.3387 191.624 85.1045 191.125 84.8614L190.584 84.596C189.956 84.2895 189.323 83.9942 188.652 83.7761C187.22 83.3109 185.747 82.9832 184.251 82.8082C183.926 82.7704 183.614 82.6614 183.368 82.4746C183.134 82.2973 182.955 82.0519 182.874 81.7256C182.769 81.3034 182.799 80.9838 183.026 80.6029C183.197 80.3168 183.442 80.1186 183.723 80.0047C184.01 79.8886 184.336 79.8613 184.66 79.926Z" fill="black"/>
<path d="M232.637 207.949C238.397 207.949 243.066 203.289 243.066 197.539C243.066 191.79 238.397 187.129 232.637 187.129C226.878 187.129 222.208 191.79 222.208 197.539C222.208 203.289 226.878 207.949 232.637 207.949Z" fill="black"/>
<path d="M234.904 201.849C235.051 201.702 235.272 201.807 235.41 201.586C235.454 201.51 235.474 201.423 235.468 201.336C235.468 201.113 235.468 200.897 235.468 200.678V198.362C235.468 197.888 235.505 197.397 235.468 196.922C235.466 196.868 235.452 196.815 235.428 196.767C235.403 196.719 235.369 196.676 235.328 196.642C235.216 196.543 233.813 196.967 233.699 196.918C233.585 196.869 233.566 196.704 233.607 196.602C233.647 196.499 233.738 196.49 233.821 196.454C233.985 196.387 235.454 195.947 235.618 195.879C235.898 195.768 236.187 195.584 236.492 195.584C236.636 195.584 236.715 195.627 236.693 195.778L236.615 196.294C237.429 195.07 239.373 195.252 240.119 196.449C240.877 197.666 240.498 199.603 239.11 200.173C238.298 200.507 237.333 200.369 236.706 199.735V200.935C236.706 201.088 236.695 201.246 236.706 201.398C236.711 201.478 236.739 201.554 236.786 201.618C236.833 201.682 236.898 201.731 236.973 201.759C237.068 201.792 237.203 201.739 237.26 201.84C237.316 201.942 237.312 202.26 237.215 202.323C237.144 202.37 236.992 202.341 236.908 202.341H235.45C235.329 202.341 235.095 202.388 234.981 202.341C234.835 202.279 234.904 201.97 234.904 201.849ZM236.725 197.2C236.578 197.856 236.614 198.671 236.974 199.258C237.06 199.39 237.171 199.502 237.301 199.59C237.432 199.678 237.578 199.739 237.732 199.769C237.887 199.799 238.045 199.799 238.199 199.767C238.353 199.735 238.499 199.672 238.628 199.583C239.201 199.171 239.278 198.288 239.235 197.645C239.191 197.001 238.967 196.238 238.27 196.058C238.098 196.011 237.917 196.003 237.741 196.035C237.565 196.067 237.399 196.138 237.254 196.242C236.956 196.469 236.804 196.843 236.725 197.2Z" fill="white"/>
<path d="M224.774 196.296C224.774 196.196 224.756 196.13 224.812 196.058C224.889 195.976 224.975 195.902 225.066 195.835L225.946 195.076C226.157 194.895 226.37 194.65 226.607 194.505C226.636 194.483 226.672 194.47 226.708 194.469C226.745 194.467 226.781 194.477 226.812 194.497C226.911 194.558 226.873 194.655 226.866 194.754L226.788 195.804H229.724C229.801 195.792 229.88 195.792 229.958 195.804C230.081 195.857 230.07 196.174 230.038 196.277C229.987 196.424 229.763 196.368 229.639 196.368H226.893C226.765 196.368 226.794 196.379 226.794 196.505V197.997C226.794 198.372 226.721 198.887 226.886 199.237C227.051 199.586 227.504 199.7 227.847 199.545C227.988 199.476 228.105 199.366 228.181 199.229C228.247 199.118 228.267 198.908 228.428 198.95C228.73 199.025 228.316 199.715 228.216 199.847C227.924 200.213 227.4 200.306 226.957 200.285C226.513 200.263 226.064 200.095 225.813 199.72C225.628 199.413 225.538 199.058 225.554 198.7C225.554 198.206 225.554 197.711 225.554 197.218C225.554 197.012 225.567 196.699 225.46 196.52C225.293 196.251 224.964 196.474 224.774 196.296Z" fill="white"/>
<path d="M228.971 197.839C228.966 197.483 229.028 197.13 229.153 196.797C229.256 196.512 229.42 196.253 229.633 196.037C229.845 195.821 230.102 195.653 230.385 195.544C230.669 195.433 230.972 195.376 231.278 195.378C231.553 195.369 231.827 195.416 232.084 195.515C232.341 195.615 232.574 195.766 232.771 195.958V194.718C232.766 194.619 232.724 194.526 232.655 194.457C232.585 194.387 232.492 194.345 232.393 194.339H232.296L232.204 194.247V193.961L233.735 193.375H234.016L234.108 193.472L234.016 194.337V199.223C234.023 199.321 234.065 199.413 234.135 199.482C234.204 199.552 234.297 199.594 234.395 199.6H234.507L234.585 199.678V200.092L234.507 200.166H232.845L232.771 200.092V199.678C232.399 200.092 231.897 200.299 231.265 200.299C230.957 200.308 230.651 200.251 230.367 200.131C230.084 200.012 229.829 199.833 229.62 199.607C229.187 199.146 228.971 198.557 228.971 197.839ZM230.287 197.131C230.192 197.598 230.192 198.08 230.287 198.547C230.333 198.756 230.408 198.958 230.51 199.147C230.605 199.324 230.745 199.473 230.917 199.577C231.101 199.68 231.308 199.734 231.518 199.734C231.728 199.734 231.935 199.68 232.119 199.577C232.289 199.473 232.429 199.327 232.526 199.154C232.629 198.965 232.704 198.762 232.749 198.551C232.848 198.085 232.848 197.602 232.749 197.135C232.704 196.925 232.629 196.722 232.526 196.533C232.429 196.357 232.287 196.209 232.115 196.105C231.932 196.002 231.725 195.948 231.515 195.948C231.304 195.948 231.097 196.002 230.914 196.105C230.742 196.209 230.601 196.358 230.507 196.535C230.406 196.722 230.333 196.923 230.287 197.131Z" fill="white"/>
</svg>