<svg width="26" height="25" viewBox="0 0 26 25" fill="none" xmlns="http://www.w3.org/2000/svg"><path d="M8.30556 6.37256C7.52141 6.37256 6.95215 6.91329 6.95215 7.65833C6.95215 8.40338 7.51007 8.94334 8.27868 8.94334C8.6463 8.95529 9.00364 8.82087 9.27225 8.56961C9.39326 8.44991 9.48875 8.30693 9.55296 8.1493C9.61717 7.99167 9.64877 7.82266 9.64586 7.65247C9.62789 6.89889 9.07685 6.37256 8.30556 6.37256Z" fill="white"></path><path d="M8.92275 8.21105C8.7472 8.36996 8.51604 8.45318 8.27948 8.44263C7.79404 8.44263 7.45508 8.12074 7.45508 7.65975C7.45508 7.19099 7.79735 6.87598 8.30649 6.87598C8.80441 6.87598 9.13318 7.18602 9.14439 7.65987C9.14642 7.76193 9.12784 7.86335 9.08975 7.95805C9.05167 8.05276 8.99487 8.13881 8.92275 8.21105Z" fill="white"></path><path d="M9.44867 9.36792H7.19238V17.6633H9.44867V9.36792Z" fill="white"></path><path d="M7.69629 9.86938H8.94856V17.1606H7.69629V9.86938Z" fill="white"></path><path d="M15.3991 9.36792C14.3528 9.36792 13.7122 9.72904 13.341 10.0685L13.2705 9.36792H10.7178V17.6632H13.2179V13.3033C13.2281 13.0719 13.2698 12.8429 13.3417 12.6227C13.6437 11.9722 14.0512 11.9722 14.6682 11.9722C15.3789 11.9722 15.9792 12.6387 15.9792 13.4274V17.6632H18.4895V12.9762C18.4895 10.497 16.8874 9.36792 15.3991 9.36792Z" fill="white"></path><path d="M17.9863 17.1606H16.4802V13.4269C16.4802 12.3659 15.6499 11.4695 14.6671 11.4695C14.0365 11.4695 13.3219 11.4695 12.8851 12.4107C12.7818 12.6972 12.7243 12.9981 12.7147 13.3024V17.1602H11.2188V9.86951H12.8155L12.9174 10.8847H13.3287L13.4022 10.766C13.5697 10.4965 14.0992 9.86938 15.3975 9.86938C16.644 9.86938 17.9857 10.8414 17.9857 12.9757V17.1605L17.9863 17.1606Z" fill="white"></path><rect x="1.25" y="0.882812" width="23.5" height="22.9582" rx="3.25" stroke="white" stroke-width="1.5"></rect></svg>