<svg xmlns="http://www.w3.org/2000/svg" fill="none" viewBox="0.5 -19.29 348 311.91">
<rect x="1" y="70.057" width="347" height="222.56" fill="#E0EAF3"/>
<g clip-path="url(#clip0_1249_13717)">
<path d="M309.803 42.9428C309.803 30.8736 299.928 21.0775 287.762 21.0775H60.8565C48.6901 21.0234 38.8152 30.8195 38.8152 42.9428V160.55H309.803V42.9428Z" fill="black"/>
<path d="M296.655 149.509V47.3264C296.655 40.3447 290.926 34.6619 283.888 34.6619H64.7301C57.6922 34.6619 51.9636 40.3447 51.9636 47.3264V149.509H296.655Z" fill="white"/>
<path d="M158.842 34.6619L212.527 87.918L229.712 34.6619L296.655 101.882V149.509H120.488L158.842 34.6619Z" fill="#FF734F"/>
<path d="M207.771 202.873C207.771 225.986 216.51 240.909 232.155 257.611H116.463C132.108 240.909 140.847 225.986 140.847 202.873V199.964H207.771V202.873Z" fill="#E0EAF3" stroke="black"/>
<path d="M39.3152 193.943V160.996H309.248V193.943C309.248 205.733 299.601 215.309 287.707 215.309H60.8565C48.9625 215.309 39.3152 205.733 39.3152 193.943Z" fill="#E0EAF3" stroke="black"/>
<path d="M183.057 184.905C183.057 189.706 179.132 193.606 174.282 193.606C169.432 193.606 165.507 189.706 165.507 184.905C165.507 180.103 169.432 176.204 174.282 176.204C179.132 176.204 183.057 180.103 183.057 184.905Z" fill="black" stroke="black"/>
<rect x="112.551" y="81.0127" width="123.897" height="37.25" fill="white"/>
<rect x="-0.5" y="0.5" width="124.897" height="38.25" transform="matrix(-1 0 0 1 236.449 80.0127)" stroke="black"/>
<path d="M214.644 100.776C214.839 100.581 214.839 100.264 214.644 100.069L211.462 96.8872C211.266 96.6919 210.95 96.6919 210.754 96.8872C210.559 97.0825 210.559 97.399 210.754 97.5943L213.583 100.423L210.754 103.251C210.559 103.446 210.559 103.763 210.754 103.958C210.95 104.154 211.266 104.154 211.462 103.958L214.644 100.776ZM205.45 100.923H214.29V99.9227H205.45V100.923Z" fill="black"/>
<path d="M143.993 99.9281C143.993 100.291 143.937 100.613 143.825 100.896C143.713 101.173 143.556 101.408 143.353 101.6C143.156 101.792 142.918 101.939 142.641 102.04C142.369 102.136 142.07 102.184 141.745 102.184C141.377 102.184 141.044 102.117 140.745 101.984C140.446 101.845 140.188 101.651 139.969 101.4C139.756 101.149 139.59 100.848 139.473 100.496C139.356 100.139 139.297 99.7387 139.297 99.2961C139.297 98.8694 139.358 98.4801 139.481 98.1281C139.604 97.7707 139.774 97.4667 139.993 97.2161C140.212 96.9601 140.473 96.7627 140.777 96.6241C141.081 96.4801 141.417 96.4081 141.785 96.4081C142.073 96.4081 142.326 96.4401 142.545 96.5041C142.769 96.5681 142.966 96.6614 143.137 96.7841C143.308 96.9067 143.454 97.0561 143.577 97.2321C143.705 97.4027 143.814 97.5947 143.905 97.8081L142.841 98.2481C142.788 98.1467 142.729 98.0507 142.665 97.9601C142.606 97.8694 142.534 97.7921 142.449 97.7281C142.369 97.6641 142.273 97.6134 142.161 97.5761C142.049 97.5387 141.918 97.5201 141.769 97.5201C141.561 97.5201 141.374 97.5654 141.209 97.6561C141.044 97.7414 140.905 97.8641 140.793 98.0241C140.681 98.1787 140.596 98.3654 140.537 98.5841C140.478 98.7974 140.449 99.0347 140.449 99.2961C140.449 99.5521 140.478 99.7894 140.537 100.008C140.596 100.227 140.681 100.416 140.793 100.576C140.91 100.736 141.052 100.861 141.217 100.952C141.382 101.043 141.569 101.088 141.777 101.088C141.969 101.088 142.132 101.067 142.265 101.024C142.398 100.981 142.505 100.923 142.585 100.848C142.67 100.773 142.734 100.685 142.777 100.584C142.825 100.477 142.857 100.363 142.873 100.24H141.985V99.1921H143.993V99.9281ZM145.179 102.096V96.4961H149.067V97.5921H146.299V98.5601H147.907V99.6481H146.299V101H149.187V102.096H145.179ZM152.75 97.6001V102.096H151.63V97.6001H150.022V96.4961H154.358V97.6001H152.75ZM161.861 100.4C161.861 100.667 161.818 100.909 161.733 101.128C161.648 101.347 161.514 101.536 161.333 101.696C161.152 101.851 160.922 101.971 160.645 102.056C160.373 102.141 160.045 102.184 159.661 102.184C159.192 102.184 158.765 102.093 158.381 101.912C157.997 101.731 157.698 101.483 157.485 101.168L158.293 100.448C158.49 100.677 158.709 100.843 158.949 100.944C159.194 101.04 159.453 101.088 159.725 101.088C160.061 101.088 160.306 101.04 160.461 100.944C160.621 100.848 160.701 100.693 160.701 100.48C160.701 100.389 160.685 100.312 160.653 100.248C160.621 100.179 160.56 100.115 160.469 100.056C160.384 99.9974 160.258 99.9414 160.093 99.8881C159.928 99.8347 159.714 99.7787 159.453 99.7201C159.197 99.6614 158.96 99.5921 158.741 99.5121C158.528 99.4321 158.344 99.3307 158.189 99.2081C158.034 99.0854 157.914 98.9307 157.829 98.7441C157.744 98.5574 157.701 98.3254 157.701 98.0481C157.701 97.7921 157.752 97.5627 157.853 97.3601C157.96 97.1574 158.104 96.9867 158.285 96.8481C158.466 96.7041 158.677 96.5947 158.917 96.5201C159.162 96.4454 159.424 96.4081 159.701 96.4081C160.138 96.4081 160.52 96.4854 160.845 96.6401C161.176 96.7947 161.474 97.0107 161.741 97.2881L160.933 98.0721C160.752 97.8854 160.557 97.7441 160.349 97.6481C160.146 97.5467 159.917 97.4961 159.661 97.4961C159.512 97.4961 159.386 97.5121 159.285 97.5441C159.184 97.5707 159.101 97.6081 159.037 97.6561C158.973 97.7041 158.928 97.7574 158.901 97.8161C158.874 97.8747 158.861 97.9361 158.861 98.0001C158.861 98.0907 158.877 98.1681 158.909 98.2321C158.946 98.2907 159.008 98.3441 159.093 98.3921C159.178 98.4401 159.293 98.4854 159.437 98.5281C159.581 98.5707 159.765 98.6187 159.989 98.6721C160.213 98.7254 160.434 98.7894 160.653 98.8641C160.877 98.9334 161.077 99.0321 161.253 99.1601C161.434 99.2881 161.581 99.4507 161.693 99.6481C161.805 99.8454 161.861 100.096 161.861 100.4ZM165.211 97.6001V102.096H164.091V97.6001H162.483V96.4961H166.819V97.6001H165.211ZM170.876 102.096L170.436 100.848H168.388L167.948 102.096H166.748L168.892 96.4961H169.98L172.108 102.096H170.876ZM169.692 98.7681C169.633 98.6027 169.577 98.4427 169.524 98.2881C169.476 98.1334 169.438 98.0027 169.412 97.8961C169.385 98.0027 169.345 98.1334 169.292 98.2881C169.244 98.4427 169.19 98.6027 169.132 98.7681L168.772 99.7841H170.052L169.692 98.7681ZM176.396 102.096L175.396 100.08H174.268V102.096H173.148V96.4961H175.756C176.017 96.4961 176.265 96.5334 176.5 96.6081C176.734 96.6774 176.94 96.7867 177.116 96.9361C177.292 97.0854 177.43 97.2721 177.532 97.4961C177.633 97.7147 177.684 97.9734 177.684 98.2721C177.684 98.6934 177.593 99.0401 177.412 99.3121C177.236 99.5787 176.969 99.7814 176.612 99.9201L177.684 102.096H176.396ZM176.532 98.2961C176.532 98.0401 176.46 97.8587 176.316 97.7521C176.177 97.6401 175.982 97.5841 175.732 97.5841H174.268V99.0241H175.732C176.265 99.0241 176.532 98.7814 176.532 98.2961ZM181.039 97.6001V102.096H179.919V97.6001H178.311V96.4961H182.647V97.6001H181.039ZM183.726 102.096V96.4961H187.614V97.5921H184.846V98.5601H186.454V99.6481H184.846V101H187.734V102.096H183.726ZM193.465 99.2961C193.465 99.7867 193.382 100.211 193.217 100.568C193.057 100.92 192.841 101.211 192.569 101.44C192.302 101.664 191.996 101.829 191.649 101.936C191.308 102.043 190.958 102.096 190.601 102.096H188.929V96.4961H190.681C191.081 96.4961 191.449 96.5467 191.785 96.6481C192.126 96.7441 192.42 96.9041 192.665 97.1281C192.916 97.3521 193.11 97.6427 193.249 98.0001C193.393 98.3521 193.465 98.7841 193.465 99.2961ZM192.313 99.2961C192.313 98.7254 192.182 98.2987 191.921 98.0161C191.66 97.7281 191.233 97.5841 190.641 97.5841H190.049V101.008H190.601C190.894 101.008 191.148 100.968 191.361 100.888C191.58 100.803 191.758 100.685 191.897 100.536C192.036 100.387 192.14 100.208 192.209 100C192.278 99.7867 192.313 99.5521 192.313 99.2961Z" fill="black"/>
<rect x="112.551" y="81.0127" width="123.897" height="37.25" stroke="black" stroke-width="2"/>
</g>
<path d="M1 257.815H348" stroke="black" stroke-linecap="round"/>
<defs>
<clipPath id="clip0_1249_13717">
<rect width="279.335" height="277.105" fill="white" transform="translate(34.8325 -19.2899)"/>
</clipPath>
</defs>
</svg>