<svg width="190" height="257" viewBox="0 0 190 257" fill="none" xmlns="http://www.w3.org/2000/svg">
<path fill-rule="evenodd" clip-rule="evenodd" d="M143.011 139.665C141.559 134.016 140.223 131.62 137.644 129.657C135.231 127.82 131.708 126.277 126.568 125.15C121.215 124.212 121.063 121.421 119.721 116.936C119.329 115.587 117.389 115.228 116.551 116.2C116.433 116.072 116.31 115.955 116.183 115.85C116.297 115.206 115.363 113.363 115.394 112.748C115.72 106.327 113.626 103.103 108.4 101.905C107.264 101.644 99.5438 101.49 98.4356 101.798C93.5911 103.141 88.822 107.407 89.5519 112.545C88.0311 114.538 86.5428 115.755 84.1967 116.397C80.5431 116.862 82.3785 168.779 88.7239 199.883C91.4465 213.228 156.546 190.514 153.604 183.83C154.021 182.605 153.261 181.259 153.604 179.993C153.852 179.078 154.488 178.699 154.808 177.793C155.258 176.517 154.769 174.805 154.262 173.503C154.054 172.855 154.644 172.156 154.808 171.494C155.586 168.371 153.805 168.646 152.52 166.559C152.539 166.552 152.873 165.062 152.872 165.069C153.068 164.005 152.576 162.642 152.146 161.754C151.856 161.154 151.234 160.778 150.616 160.847C151.238 158.727 152.025 156.963 152.872 154.921C154.369 151.322 155.793 147.556 157.943 144.298C158.823 142.963 158.112 141.736 156.687 141.645C152.076 141.352 147.515 140.686 143.011 139.665Z" fill="#D08B5B"/>
<path fill-rule="evenodd" clip-rule="evenodd" d="M135.813 140.102L125.286 157.971C125.286 157.971 127.783 158.221 128.794 158.708C129.805 159.195 134.445 165.113 134.445 165.113L135.182 168.371L133.435 170.998L134.117 172.647C134.117 172.647 134.603 171.53 135.813 170.662C137.023 169.795 139.692 168.371 139.692 168.371C139.692 168.371 138.805 167.895 138.805 167.336C138.805 166.777 138.024 164.393 139.692 163.493C141.36 162.592 149.981 160.485 149.981 160.485L158.718 142L135.813 140.102Z" fill="#AFAFAF"/>
<path fill-rule="evenodd" clip-rule="evenodd" d="M88.8524 116.519L122.278 122.403L137.643 129.657L140.152 131.595L125.285 157.972L102.33 162.173L96.4819 177.41L97.6757 194.586L135.019 190.12L151.127 188.2L154.914 203.534L154.23 209.842L153.235 213.04L113.302 223.855C113.302 223.855 92.9671 221.878 89.3624 221.878C85.7578 221.878 59.3293 224.51 59.3293 224.51L53.2144 223.855C53.2144 223.855 39.6854 209.552 37.587 204.461C35.4887 199.371 30.9512 168.427 30.9512 168.427L31.4508 163.673L43.1396 133.499C43.1396 133.499 44.7005 132.078 46.6683 129.657C48.6362 127.236 88.8524 116.519 88.8524 116.519Z" fill="#FF734F"/>
<path fill-rule="evenodd" clip-rule="evenodd" d="M149.349 160.104C146.328 160.258 143.304 160.979 140.572 162.284C139.454 162.819 138.441 163.591 138.144 164.861C137.994 165.51 138.031 166.18 138.111 166.836C138.171 167.332 138.186 167.965 138.616 168.301C138.689 168.358 138.767 168.402 138.849 168.433C137.841 168.89 136.881 169.438 136.028 170.003C135.248 170.519 134.447 171.315 134.087 172.213C134.057 172.111 134.027 172.016 133.997 171.925C133.384 170.107 132.439 168.617 130.951 167.616C130.782 166.998 128.969 164.34 127.285 164.44C125.44 164.549 123.957 164.684 122.289 165.535C121.681 165.522 121.074 165.53 120.474 165.557C120.371 165.56 120.376 165.701 120.474 165.712C120.961 165.774 121.447 165.842 121.934 165.923C123.09 166.108 124.243 166.344 125.371 166.636C126.724 166.988 128.124 167.34 129.388 167.954C131.841 169.146 133.359 172.261 133.047 174.972C132.996 175.417 132.824 176.761 132.209 176.622C131.689 176.505 131.483 175.417 131.301 175.014C130.815 173.944 129.938 173.246 128.887 172.773C127.652 172.216 126.331 171.84 125.051 171.402C124.327 171.153 123.602 170.904 122.875 170.656C122.132 170.401 121.426 170.048 120.634 170.227C120.156 170.335 120.101 170.907 120.369 171.235C120.778 171.735 121.384 171.882 121.972 172.087C122.749 172.358 123.524 172.629 124.298 172.9C125.496 173.317 126.751 173.67 127.919 174.182L127.882 174.265C127.787 174.238 127.675 174.334 127.694 174.451C127.869 175.532 128.112 176.782 127.842 177.866C127.629 178.725 126.877 179.676 125.901 179.423C126.054 179.283 126.111 179.041 126.008 178.817C125.621 177.988 120.556 174.715 120.105 175.93C120.09 175.973 120.136 176.005 120.173 175.999C120.558 175.918 121.203 176.577 121.511 176.786C121.955 177.087 122.407 177.381 122.847 177.69C123.329 178.028 123.798 178.382 124.257 178.748C124.617 179.036 124.888 179.335 125.301 179.48C125.085 179.584 124.913 179.776 124.84 180.022C124.653 180.662 124.293 181.205 123.668 181.488C123.014 181.782 122.276 181.596 121.586 181.668C120.646 181.764 119.826 182.212 119.141 182.852C117.704 184.199 116.982 186.573 114.971 187.209C113.77 187.589 112.437 187.35 111.221 187.178C109.863 186.985 108.54 186.833 107.172 187.034C105.862 187.226 104.624 187.681 103.428 188.236C102.306 188.755 101.067 189.344 100.072 190.119C99.8672 189.486 99.6606 188.859 99.5038 188.212C99.1341 186.683 98.9342 185.125 98.8857 183.554C98.8409 182.058 98.9242 180.555 99.0523 179.066C99.1158 178.322 99.2158 177.581 99.2791 176.838C99.2956 176.65 99.329 176.45 99.354 176.249C101.13 175.198 102.996 174.392 104.877 173.563C104.882 173.562 104.887 173.558 104.892 173.557C104.951 173.53 105.007 173.505 105.066 173.48C105.064 173.476 105.062 173.473 105.059 173.47C105.274 173.338 105.424 173.162 105.514 172.965C108.225 171.161 110.491 168.699 112.18 165.827C112.888 164.624 113.57 163.375 114.496 162.321C115.483 161.196 116.654 160.527 118.103 160.179C119.798 159.772 121.544 159.528 123.28 159.389C124.228 159.314 125.288 159.197 126.321 159.202C127.041 159.207 127.745 159.268 128.392 159.447C129.35 159.711 129.91 160.442 130.511 161.181C131.086 161.89 131.658 162.6 132.194 163.339C132.702 164.039 133.182 164.763 133.599 165.522C133.849 165.976 134.08 166.444 134.275 166.927C134.344 167.098 134.434 167.292 134.475 167.469C134.517 167.648 134.44 167.837 134.64 167.837C133.815 167.848 133.267 169.911 134.087 169.863C135.24 169.796 135.819 168.41 135.593 167.18C135.19 164.985 133.014 162.335 132.584 161.774C131.633 160.534 130.651 158.916 129.129 158.339C129.107 158.331 129.084 158.323 129.062 158.316C129.505 157.894 129.855 157.39 130.19 156.877C130.535 156.348 130.946 155.743 131.06 155.116C131.131 154.717 130.636 154.49 130.401 154.839C130.06 155.349 129.895 155.994 129.64 156.554C129.38 157.122 129.064 157.659 128.814 158.232C128.212 158.047 127.562 157.962 126.901 157.933C127.736 156.8 129.162 154.613 129.333 154.333C130.123 153.032 130.875 151.692 131.593 150.349C132.369 148.895 133.034 147.381 133.777 145.91C134.199 145.076 134.624 144.235 135.092 143.426C135.253 143.148 135.427 142.871 135.623 142.619C135.662 142.569 135.71 142.527 135.755 142.48C135.807 142.451 135.86 142.42 135.89 142.403C136.16 142.248 136.255 141.887 136.445 141.658C136.748 141.288 137.104 141.245 137.561 141.24C138.534 141.23 139.51 141.268 140.482 141.295C141.91 141.335 143.336 141.392 144.762 141.467C145.194 141.49 145.624 141.514 146.055 141.541C148.13 141.664 150.202 141.826 152.27 142.025C154.099 142.201 155.929 142.487 157.76 142.624C155.281 148.533 152.532 154.334 149.419 159.934C149.387 159.991 149.364 160.047 149.349 160.104ZM135.593 175.327C135.193 175.511 134.805 175.739 134.444 176C134.504 175.594 134.519 175.166 134.502 174.737C134.8 175.057 135.182 175.241 135.593 175.327ZM152.663 165.162C152.635 165.166 152.608 165.181 152.595 165.209C152.042 166.354 152.273 167.633 153.177 168.53C153.65 168.998 154.681 169.527 154.648 170.295C154.619 170.917 153.945 171.439 153.656 171.952C153.388 172.43 153.288 172.955 153.503 173.473C153.778 174.137 154.546 174.401 154.809 175.053C155.143 175.88 154.601 176.878 154.221 177.598C153.868 178.265 153.411 178.932 153.108 179.637C151.077 180.692 146.469 182.608 145.914 182.715C145.237 182.847 144.559 182.972 143.879 183.089C142.575 183.316 141.267 183.527 139.955 183.713C139.209 183.818 138.461 183.922 137.713 184.003C137.06 184.074 136.323 184.169 135.797 183.676C134.735 182.68 135.33 181.01 136.002 180.004C136.015 179.984 136.015 179.965 136.01 179.948C136.643 179.8 137.275 179.626 137.904 179.504C139.116 179.27 140.335 179.073 141.557 178.897C144.066 178.538 146.592 178.3 149.114 178.061C149.739 178.001 149.746 177.015 149.114 177.074C145.49 177.406 141.848 177.722 138.273 178.422C137.376 178.596 136.486 178.793 135.602 179.016C135.184 179.119 134.735 179.282 134.297 179.287C134.27 179.287 134.244 179.287 134.217 179.285C133.359 179.258 133.234 178.521 133.706 177.908C133.764 177.832 133.824 177.757 133.886 177.685C134.719 176.689 135.757 176.024 136.826 175.335C138.024 175.171 139.219 174.807 140.392 174.539C143.288 173.877 146.184 173.216 149.081 172.555C149.649 172.425 149.408 171.549 148.839 171.678C146.64 172.178 144.441 172.677 142.241 173.177L139.022 173.909C138.379 174.055 137.576 174.347 136.82 174.453C136.446 174.504 136.085 174.511 135.758 174.434C134.704 174.184 134.65 172.861 135.105 172.076C135.615 171.193 136.578 170.641 137.433 170.142C138.914 169.274 140.49 168.651 142.03 167.932C142.303 167.872 142.576 167.812 142.85 167.751C144.439 167.4 146.255 167.228 147.751 166.585C148.2 166.394 147.955 165.685 147.512 165.695C146.35 165.721 145.136 166.135 144.001 166.381C142.773 166.648 141.543 166.914 140.315 167.18C140.192 167.206 139.462 167.44 139.352 167.389C139.282 167.355 139.257 167.111 139.234 166.951C139.159 166.423 139.104 165.868 139.186 165.338C139.366 164.149 140.354 163.591 141.353 163.135C143.579 162.12 146.02 161.485 148.45 161.231C149.009 161.172 149.569 161.136 150.132 161.117C150.794 161.097 151.339 160.98 151.674 161.634C152.2 162.663 152.49 163.987 152.663 165.162ZM149.572 202.494C149.087 200.812 149.219 199.015 148.887 197.298C148.715 196.413 148.481 195.534 148.225 194.67C148.019 193.971 147.675 193.229 147.636 192.5C147.634 192.451 147.691 192.423 147.73 192.445C148.415 192.839 148.94 193.688 149.33 194.355C149.797 195.154 150.154 195.989 150.442 196.868C151.015 198.619 151.486 200.73 150.747 202.494C150.527 203.02 149.753 203.125 149.572 202.494ZM130.643 215.234C129.92 214.728 129.393 214.021 128.78 213.396C128.178 212.782 129.12 211.837 129.723 212.451C130.246 212.983 130.7 213.648 131.316 214.079C131.612 214.286 131.749 214.661 131.555 214.994C131.383 215.288 130.938 215.441 130.643 215.234ZM126.612 195.786C127.932 195.214 129.229 194.591 130.61 194.179C131.436 193.932 131.785 195.223 130.965 195.468C129.693 195.848 128.5 196.414 127.285 196.941C126.505 197.279 125.827 196.127 126.612 195.786ZM112.678 195.386C112.355 194.587 113.645 194.243 113.963 195.03C114.329 195.937 114.749 196.82 115.115 197.726C115.437 198.525 114.147 198.869 113.829 198.082C113.463 197.175 113.044 196.292 112.678 195.386ZM98.9247 211.335C98.7098 211.623 98.3514 211.778 98.0128 211.575C97.7292 211.405 97.5561 210.951 97.7737 210.66C98.409 209.811 99.0527 208.972 99.7973 208.214C100.401 207.6 101.343 208.547 100.74 209.16C100.075 209.836 99.4922 210.576 98.9247 211.335ZM96.958 121.845C97.5698 122.264 98.1058 122.773 98.6285 123.297C99.2361 123.906 98.2934 124.852 97.6858 124.243C97.2454 123.801 96.8012 123.353 96.2852 122.999C95.9871 122.795 95.8533 122.415 96.0461 122.084C96.2189 121.788 96.6606 121.641 96.958 121.845ZM116.967 143.363C116.621 144.058 116.31 144.739 116.29 145.529C116.269 146.389 114.936 146.389 114.958 145.529C114.983 144.495 115.363 143.599 115.816 142.688C116.2 141.917 117.349 142.595 116.967 143.363ZM124.308 126.081C125.025 125.602 125.691 126.76 124.981 127.235C124.405 127.62 123.829 128.006 123.254 128.391C122.537 128.87 121.871 127.711 122.581 127.236C123.157 126.851 123.732 126.466 124.308 126.081ZM92.4657 156.297C92.3434 157.147 91.0591 156.783 91.1802 155.942C91.3677 154.641 91.5964 153.357 91.9482 152.09C92.1784 151.261 93.4639 151.616 93.2334 152.446C92.8817 153.713 92.653 154.996 92.4657 156.297ZM87.7919 171.615C86.934 171.597 86.9338 170.259 87.7919 170.278C88.5683 170.294 89.3316 170.499 90.0805 170.687C90.9136 170.895 90.5584 172.185 89.7261 171.976C89.093 171.817 88.4484 171.629 87.7919 171.615ZM86.0672 202.471C85.7725 202.615 85.4701 202.744 85.1721 202.881C84.5755 203.155 83.9792 203.429 83.383 203.703C82.1411 204.275 80.8998 204.849 79.6596 205.425C77.177 206.578 74.6753 207.69 72.1867 208.83C69.6489 209.993 67.1179 211.172 64.5899 212.356C63.399 212.914 62.199 213.451 61.0013 213.994C59.9773 214.459 58.7115 215.271 57.5874 215.347C57.5295 215.351 57.5102 215.278 57.5432 215.24C57.9679 214.755 58.6454 214.474 59.2035 214.159C59.7737 213.837 60.3545 213.534 60.9327 213.227C62.138 212.586 63.3448 211.951 64.5618 211.333C66.9961 210.097 69.435 208.87 71.8744 207.645C74.3624 206.395 76.8471 205.137 79.3569 203.931C80.5385 203.364 81.7213 202.798 82.9048 202.234C83.546 201.928 84.1874 201.623 84.8289 201.319C85.106 201.187 85.3803 201.045 85.6635 200.928C86.0399 200.771 86.326 200.803 86.7142 200.707C87.3473 200.55 87.6214 201.358 87.1354 201.71C86.7352 201.999 86.5246 202.247 86.0672 202.471ZM77.1687 216.182C77.0319 215.849 77.3183 215.443 77.6342 215.36C78.0126 215.26 78.316 215.49 78.4541 215.827C78.8195 216.718 79.34 217.537 80.01 218.228C80.6088 218.845 79.6668 219.791 79.0674 219.173C78.2278 218.307 77.6247 217.295 77.1687 216.182ZM70.6222 194.718C70.0145 194.109 70.9572 193.163 71.5647 193.773L73.2922 195.506C73.8999 196.115 72.957 197.061 72.3496 196.451L70.6222 194.718ZM52.8985 191.893C51.6565 192.258 50.208 192.594 49.3612 193.657C49.3199 193.709 49.2504 193.642 49.2753 193.591C50.3593 191.336 53.468 190.545 55.6204 189.756C57.1427 189.197 58.7048 188.733 60.28 188.32C60.1225 186.517 60.5567 184.585 60.7077 182.791C60.8688 180.876 60.9999 178.955 61.0672 177.034C61.1361 175.074 61.1527 173.101 61.0884 171.141C61.0244 169.188 60.7717 167.259 60.661 165.312C60.6504 165.124 60.9116 165.115 60.9679 165.27C61.6221 167.077 61.9015 169.078 62.1144 170.982C62.3337 172.945 62.4065 174.901 62.3785 176.875C62.3495 178.904 62.2319 180.928 62.0704 182.951C61.994 183.91 61.9052 184.867 61.8214 185.825C61.7574 186.556 61.7277 187.282 61.5791 187.989C62.5291 187.756 63.4814 187.534 64.4306 187.319C67.4573 186.634 70.4968 185.998 73.5109 185.257C74.9904 184.894 76.4488 184.458 77.9217 184.071C79.3086 183.707 80.7725 183.265 82.1965 183.103C82.7046 183.045 82.7693 183.742 82.4329 183.979C81.2756 184.794 79.7385 185.362 78.4018 185.818C77.0602 186.276 75.6656 186.605 74.2905 186.944C71.4228 187.652 68.528 188.23 65.6376 188.833C62.7511 189.435 59.8591 190.032 57.0051 190.775C55.6307 191.133 54.2609 191.492 52.8985 191.893ZM46.0933 156.119C45.3512 156.556 44.6812 155.4 45.4206 154.964C46.3882 154.394 47.4194 153.966 48.4589 153.549C49.2567 153.229 49.5999 154.522 48.8133 154.838C47.8791 155.213 46.9627 155.607 46.0933 156.119ZM43.4056 205.798C42.6615 206.231 41.991 205.075 42.7329 204.644C43.775 204.038 44.9161 203.634 45.996 203.103C46.7642 202.726 47.439 203.88 46.6686 204.258C45.5889 204.788 44.4476 205.192 43.4056 205.798ZM42.1972 177.598C42.9167 178.284 43.8769 178.606 44.7823 178.966C45.5717 179.28 45.2255 180.573 44.4279 180.256C43.2999 179.807 42.1509 179.397 41.2547 178.543C40.6312 177.949 41.5754 177.005 42.1972 177.598ZM50.1569 139.3C50.9478 139.611 50.6014 140.904 49.8025 140.589C48.9164 140.24 48.0013 139.975 47.1153 139.626C46.3245 139.315 46.6707 138.023 47.4697 138.337C48.3557 138.685 49.2708 138.951 50.1569 139.3ZM64.1981 124.088C65.0385 123.946 65.3964 125.234 64.5525 125.377C63.5055 125.555 62.4745 125.762 61.4814 126.148C60.6795 126.459 60.3354 125.165 61.127 124.858C62.1202 124.473 63.1512 124.265 64.1981 124.088ZM68.8374 161.125C68.0668 160.745 68.743 159.593 69.5101 159.971C70.3185 160.369 71.1561 160.678 72.0382 160.866C72.8781 161.046 72.5204 162.334 71.6838 162.156C70.6911 161.943 69.7465 161.574 68.8374 161.125ZM73.2191 140.263C74.0488 140.035 74.3997 141.325 73.5735 141.552C72.1198 141.952 70.623 142.159 69.1586 142.515C68.324 142.718 67.971 141.428 68.8042 141.226C70.2686 140.87 71.7655 140.662 73.2191 140.263ZM91.808 133.716C92.6517 133.872 92.2922 135.161 91.4537 135.005C90.5612 134.839 89.6566 134.837 88.7517 134.836C87.8926 134.836 87.8941 133.499 88.7517 133.499C89.7797 133.5 90.7946 133.527 91.808 133.716ZM152.433 140.702C150.256 140.493 148.075 140.326 145.89 140.2C145.788 140.195 145.689 140.188 145.587 140.183C145.575 140.16 145.56 140.138 145.545 140.115C144.832 139.065 144.307 138.015 143.853 136.829C143.418 135.699 142.996 134.534 142.326 133.514C141.562 132.352 140.531 131.443 139.401 130.656C138.715 131.118 138.079 131.66 137.497 132.234C136.884 132.838 135.941 131.892 136.554 131.288C137.071 130.778 137.624 130.307 138.207 129.881C137.533 129.47 136.846 129.084 136.175 128.7C133.66 127.261 131.086 125.93 128.459 124.714C127.237 124.147 126.001 123.644 124.757 123.134C124.087 122.86 123.425 122.507 122.755 122.19C122.804 121.715 122.662 121.183 122.299 120.871C122.031 120.642 121.822 120.556 121.503 120.394C121.431 120.369 121.388 120.354 121.368 120.346C121.383 120.349 121.426 120.363 121.497 120.386C121.667 120.465 121.681 120.441 121.538 120.317C121.529 120.047 120.998 119.475 120.876 119.196C120.453 118.238 120.321 117.225 119.696 116.353C118.835 115.151 117.389 114.696 116.041 115.104C115.901 113.658 115.864 112.149 115.321 110.858C115.306 110.823 115.258 110.808 115.236 110.847C114.67 111.815 114.621 112.893 114.578 114.009C114.536 115.057 114.576 116.129 114.713 117.17C114.626 117.237 114.538 117.301 114.446 117.362C114.016 117.646 113.553 117.865 113.067 118.028C112.14 118.335 111.169 118.469 110.198 118.516C107.69 118.636 105.106 118.382 102.64 117.951C100.146 117.514 96.3217 116.859 94.1023 115.607C92.6376 114.782 91.2865 113.774 89.9168 112.797C90.4134 111.193 90.5401 109.468 90.0402 108.112C89.9802 107.95 89.727 107.92 89.6787 108.112C89.3654 109.406 89.2738 110.706 88.8572 111.985C88.8506 112.003 88.8439 112.024 88.8372 112.042C88.7073 111.953 88.5773 111.866 88.4474 111.779C88.1474 111.58 87.7392 111.729 87.5593 112.013C84.6817 116.562 80.1248 116.822 75.3396 117.635C70.1026 118.524 64.8394 119.483 59.8042 121.223C54.989 122.888 50.387 125.312 46.7414 128.933C45.9162 129.752 45.1444 130.626 44.416 131.537C45.1208 131.626 45.8197 131.765 46.5097 131.983C47.3266 132.24 46.9755 133.531 46.1553 133.272C45.2685 132.993 44.372 132.854 43.4662 132.786C40.9891 136.185 39.0577 140.04 37.3876 143.834C34.184 151.108 32.0988 158.855 31.1392 166.743C31.6661 166.426 32.2024 166.124 32.7521 165.844C33.5159 165.454 34.1895 166.608 33.4249 166.998C32.5758 167.432 31.7511 167.909 30.952 168.427C30.6029 171.879 30.4676 175.354 30.5496 178.823C30.7445 187.094 31.8575 195.607 34.3751 203.498C35.6097 207.371 37.2459 211.212 39.6835 214.485C40.7865 215.968 42.0395 217.305 43.5157 218.42C44.2305 218.961 44.987 219.444 45.7851 219.852C46.8131 220.38 48.1527 220.554 49.0391 221.301C49.3307 221.547 49.5556 221.871 49.7255 222.237C49.6272 222.933 49.6156 223.63 49.8055 224.325C49.8655 224.543 50.0288 224.72 50.2304 224.805C50.2337 224.865 50.2337 224.923 50.2337 224.98C50.2337 225.007 50.2737 225.014 50.2787 224.987C50.287 224.935 50.2954 224.883 50.3037 224.83C50.3687 224.852 50.437 224.862 50.507 224.862C53.0379 224.871 55.572 224.809 58.1062 224.723C57.9103 224.121 57.698 223.524 57.4942 222.922C57.2175 222.104 58.5053 221.756 58.7795 222.566C59.018 223.27 59.2672 223.968 59.489 224.675C62.2043 224.573 64.9189 224.452 67.6286 224.362C73.3918 224.17 79.1535 224.106 84.9182 223.984C93.8707 223.794 102.888 223.404 111.855 223.785C112.165 223.125 112.512 222.48 112.841 221.829C113.229 221.06 114.379 221.738 113.992 222.504C113.763 222.956 113.526 223.403 113.301 223.855C115.117 223.949 116.931 224.074 118.742 224.245C121.831 224.536 124.89 225.052 127.976 225.373C131.113 225.701 134.182 225.642 137.294 225.123C137.854 225.029 138.184 224.689 138.321 224.268C138.326 224.267 138.329 224.263 138.332 224.258C138.492 224.071 138.642 223.916 138.797 223.78C138.982 223.66 139.182 223.558 139.417 223.468C139.855 223.3 140.312 223.198 140.775 223.13C141.285 223.053 141.801 223.046 142.311 222.983C142.741 222.928 143.161 222.846 143.581 222.746C144.336 222.565 145.052 222.329 145.765 222.017C146.387 221.744 146.948 221.353 147.478 220.927C148.574 220.123 149.524 219.097 150.354 218.03C150.837 217.407 151.292 216.76 151.705 216.086C152.425 214.92 153.038 213.708 153.658 212.486C153.883 212.124 154.088 211.753 154.276 211.374C153.064 211.016 151.842 210.725 150.557 210.704C149.699 210.69 149.699 209.353 150.557 209.367C152.03 209.39 153.423 209.735 154.807 210.147C154.875 209.967 154.939 209.786 154.999 209.602C155.164 209.22 155.301 208.827 155.414 208.429C155.481 208.249 155.547 208.068 155.614 207.887C155.764 207.262 155.914 206.636 156.066 206.009C156.367 205.006 156.605 203.988 156.78 202.957C156.927 202.278 157.04 201.594 157.117 200.902C157.35 199.226 157.54 197.553 157.553 195.858C157.533 194.813 157.467 193.77 157.354 192.732C157.305 192.027 157.224 191.325 157.114 190.628C156.97 189.591 156.829 188.565 156.59 187.542C156.412 186.85 156.234 186.158 156.056 185.466C155.611 184.024 155.086 182.609 154.481 181.227C154.448 181.14 154.279 180.95 154.178 180.948C154.101 180.946 153.994 181.016 154.029 181.11C154.033 181.118 154.036 181.128 154.04 181.137C154.005 181.058 153.971 180.978 153.936 180.899C153.906 180.826 153.79 180.679 153.7 180.681C153.695 180.681 153.689 180.681 153.683 180.682C153.706 180.666 153.728 180.644 153.75 180.619C154.348 179.908 154.736 178.974 155.164 178.151C155.519 177.473 155.854 176.757 155.951 175.99C156.035 175.317 155.921 174.653 155.499 174.108C155.019 173.488 154.116 173.197 154.618 172.301C155.188 171.282 156.026 170.397 155.191 169.239C154.766 168.649 154.093 168.325 153.593 167.812C153.018 167.218 152.745 166.424 152.76 165.614C152.795 165.634 152.842 165.624 152.858 165.573C153.341 164.109 152.991 162.501 152.497 161.075C152.227 160.302 151.655 160.089 150.99 160.051C153.869 154.41 156.564 148.678 158.965 142.814C159.045 142.622 159.123 142.43 159.201 142.238C159.318 141.95 159.071 141.567 158.786 141.504C156.71 141.047 154.548 140.902 152.433 140.702Z" fill="black"/>
<path fill-rule="evenodd" clip-rule="evenodd" d="M130.106 76.0441C128.965 62.0578 125.49 49.6703 109.162 49.1421C101.794 49.2083 94.2719 50.782 87.4959 53.6938C71.0263 61.9954 65.8008 92.3301 80.3109 104.541C80.2246 104.59 80.2039 104.733 80.3058 104.802C83.3036 106.829 86.6357 108.498 89.973 109.899C98.8625 113.677 109.327 115.319 118.393 111.22C132.229 105.302 132.436 88.8333 130.106 76.0441Z" fill="#D08B5B"/>
<path fill-rule="evenodd" clip-rule="evenodd" d="M157.34 69.5253C157.908 69.0105 158.332 68.3352 158.547 67.578C158.743 66.8877 158.756 66.1339 158.548 65.4452C158.326 64.7064 157.845 64.118 157.953 63.3491C157.965 63.2739 157.98 63.1954 158.003 63.1168C158.419 61.6693 159.441 60.6246 159.076 59.0199C158.972 58.567 158.778 58.1591 158.507 57.8382C158.537 57.4905 158.563 57.1395 158.585 56.7885C159.185 55.3761 159.164 53.6979 158.524 52.3072C158.445 51.5951 158.327 50.8898 158.161 50.1961C158.238 49.5826 158.131 48.9074 157.935 48.3708C157.59 47.4267 157.164 46.4964 156.702 45.5814C156.756 45.3312 156.732 45.0667 156.595 44.8316C156.345 44.4042 156.015 44.0284 155.678 43.6612C155.439 43.2328 155.199 42.8079 154.96 42.3885C154.85 42.1958 154.728 41.982 154.594 41.7555C154.96 41.0725 155.155 40.4069 154.768 39.6038C154.623 39.3021 154.223 39.0796 153.893 39.0993C153.533 39.1209 153.17 39.1371 152.805 39.151C152.122 38.3222 151.349 37.5782 150.52 37.15C149.68 36.4346 148.829 35.7326 148.001 35.0155C147.766 34.8116 147.53 34.6076 147.296 34.4037C147.294 34.3987 147.292 34.392 147.291 34.387C147.118 33.7535 146.923 33.1284 146.729 32.4999C146.607 32.1104 146.571 31.7026 146.193 31.4903C145.405 31.0473 144.193 30.9771 143.289 30.9019C143.199 30.8217 143.109 30.7431 143.019 30.6629C143.43 29.563 143.357 28.3947 142.84 27.2931C142.663 26.9187 142.052 26.7499 141.716 26.9973C140.941 27.5689 140.021 27.7712 139.112 27.6876C137.775 26.6546 132.383 21.9834 131.55 21.4904C131.54 21.4726 131.531 21.4549 131.521 21.4374C131.052 20.6855 130.483 20.0818 129.844 19.5977C129.753 19.5019 129.661 19.406 129.57 19.31C129.65 18.7369 129.862 18.1835 130.202 17.7204C130.238 17.667 130.28 17.6151 130.322 17.565C130.917 16.8529 130.19 15.937 129.359 16.3097C129.299 16.3364 129.239 16.3632 129.179 16.3916C128.54 16.6781 127.833 16.9895 127.097 17.2523C126.827 17.1508 126.552 17.0589 126.302 16.9576L123.619 15.8733C123.177 15.6948 122.711 15.5435 122.283 15.3337C122.134 14.3377 121.142 13.6844 120.11 13.7185C120.17 13.5273 120.259 13.3416 120.384 13.1656C120.42 13.1138 120.46 13.0636 120.502 13.0152C121.032 12.395 120.324 11.245 119.566 11.7966C119.513 11.8351 119.458 11.8735 119.405 11.912C119.194 12.0606 118.978 12.2 118.76 12.335C118.411 12.1819 118.018 12.147 117.607 12.309C116.696 12.6675 115.856 13.032 115.055 13.594C115.022 13.6169 114.988 13.6361 114.955 13.6577C114.557 13.1743 113.925 12.851 113.356 12.8545C113.345 12.8545 113.336 12.8544 113.325 12.8542C112.9 12.2025 112.12 11.8237 111.367 11.9158C111.418 10.9806 110.486 10.146 109.638 10.0446C108.648 9.92623 107.755 10.5044 107.458 11.4759C107.375 11.7463 107.292 12.0169 107.209 12.2876C106.44 11.8973 105.629 11.5982 104.781 11.449C102.85 11.109 100.962 11.471 99.1012 12.0099C98.9153 12.0637 98.7296 12.1191 98.5439 12.1742C98.2785 11.8652 98.0296 11.5488 97.7917 11.2534C97.381 10.7436 96.3951 11.1514 96.4616 11.8067C96.5078 12.2588 96.3251 12.5841 96.031 12.8153C95.7079 12.8627 95.3957 12.8771 94.9248 12.8676C94.3025 12.8549 94.0193 12.8353 93.3685 12.5802C93.0653 12.4616 92.6877 12.1495 92.5109 11.8693C91.8334 10.7951 90.1124 10.5057 89.2927 11.53C88.4301 11.1504 87.3411 11.6739 86.8622 12.4121C86.6117 12.798 86.0889 13.0138 85.4309 13.1994C84.9369 13.3384 84.4318 13.4437 83.9243 13.5358C83.6982 13.2274 83.222 13.0207 82.8727 13.2793C82.6361 13.4549 82.4063 13.6353 82.1797 13.8202C80.4323 14.0622 78.6939 14.0709 77.0278 13.3859C75.6172 12.8059 74.322 14.39 74.5548 15.7198C74.1462 15.9336 73.703 16.0759 73.2995 16.2998C72.4191 16.7889 71.6962 17.562 71.2556 18.4703C71.1766 18.6329 71.1053 18.7981 71.0373 18.964C70.7082 19.2333 70.3828 19.5098 70.0653 19.8015C69.5365 19.529 69.0095 19.2566 68.4808 18.9841C68.085 18.7802 67.4183 18.9223 67.3402 19.4505C67.2121 20.3196 66.9012 21.0401 66.4573 21.6435C65.0141 22.4057 63.6258 23.2615 62.2973 24.2126C60.7694 24.694 59.1449 24.9748 57.8098 25.2907C57.3526 25.3993 57.1032 25.9994 57.3609 26.3989C57.6336 26.8218 57.9063 27.2447 58.1773 27.6676C57.4174 28.4131 56.7042 29.192 56.0308 29.9976C54.157 32.2374 52.5891 34.6929 51.1858 37.2937C50.6305 37.5194 50.0752 37.7434 49.5198 37.969C48.9845 38.1863 48.7434 38.8115 49.1773 39.2711C49.3835 39.4901 49.568 39.7208 49.726 39.9631C48.9396 41.2719 48.0135 42.4654 46.7182 43.2476C46.3242 43.485 46.0282 43.8577 45.8703 44.2806C45.7356 44.3709 45.6026 44.4678 45.4713 44.5665C45.1055 44.8439 44.8843 45.449 45.3133 45.8084C45.6142 46.0625 45.8969 46.3633 46.1363 46.696C46.1879 46.8848 46.2411 47.0754 46.2943 47.2643C45.0905 48.3775 44.0896 49.6712 43.3381 51.1221C43.1602 51.0937 42.9773 51.1121 42.8293 51.2224C41.4859 52.2203 41.446 53.8099 41.9863 55.2306C41.6605 57.3718 41.8699 59.5665 42.4984 61.6409C41.6721 62.4699 41.175 63.6667 40.9721 64.8201C40.6146 66.8459 40.5897 69.9616 40.4966 72.0293C39.5954 72.9035 38.9536 74.0351 38.5962 75.2519C38.2952 75.4024 37.9943 75.5528 37.6934 75.7032C37.4257 75.8369 37.2295 76.1896 37.2461 76.4872C37.3226 77.9263 37.9128 79.0629 38.6959 80.0926C38.9736 80.8866 39.3843 81.6187 39.923 82.3207C40.2954 82.8021 40.6595 83.2634 40.9804 83.7833C41.0137 83.8351 41.0336 83.8836 41.0486 83.917C40.9222 84.054 40.8175 84.2814 40.726 84.4435C39.9579 85.8041 39.9463 87.3987 41.037 88.5838C40.6263 88.9215 40.613 89.6034 40.9754 90.0213C43.3347 92.7308 45.3017 96.0254 48.5754 97.4645C48.5904 97.4896 48.6037 97.5147 48.6153 97.5397C47.9519 99.1444 47.8622 99.9785 48.4042 101.637C48.4075 101.652 48.4125 101.665 48.4175 101.68C48.7068 102.549 49.2388 103.942 50.1982 104.212C50.5008 104.298 50.7984 104.336 51.0927 104.334C51.8542 105.072 52.614 105.81 53.3739 106.549C53.4404 106.915 53.4819 107.285 53.4952 107.657C53.5168 108.281 54.1004 108.786 54.7289 108.602C54.9501 108.537 56.1738 107.341 56.3982 107.348C56.5113 107.462 56.621 107.575 56.7308 107.691C57.1348 108.117 57.6951 108.789 57.7417 109.235C57.8314 110.076 58.3801 111.039 59.2663 111.209C59.5988 111.549 60.1309 111.651 60.5382 111.208C60.5648 111.179 60.5914 111.151 60.6197 111.126C60.6629 111.121 60.7045 111.116 60.7477 111.111C60.9439 111.699 61.1401 112.287 61.338 112.874C61.7254 114.031 63.2051 114.775 64.2559 114.099C64.4255 114.201 64.5918 114.31 64.7581 114.419C65.0108 114.581 65.2668 114.746 65.5295 114.902C65.5445 114.945 65.5595 114.989 65.5728 115.03C65.7424 115.55 66.4473 115.829 66.8813 115.53C67.016 115.574 67.154 115.609 67.2936 115.637C68.0268 115.783 68.7651 115.742 69.4734 115.497C69.9805 115.323 70.4643 114.99 71.0097 114.945C71.0437 114.942 71.0788 114.945 71.1134 114.944C71.5583 115.86 72.575 116.65 73.3763 116.918C74.4257 117.269 75.4998 117.144 76.4555 116.713C76.7134 117.232 77.0373 117.722 77.4242 118.176C77.6387 118.427 78.0261 118.373 78.2472 118.176C78.6672 117.802 79.0845 117.426 79.5012 117.049C79.8028 116.932 80.1072 116.792 80.4248 116.662C81.418 116.254 82.5069 116.085 83.4255 115.496C83.8616 115.216 84.2718 114.859 84.6097 114.445C85.2461 114.076 85.8309 113.615 86.3576 113.088C86.6203 113.09 86.8947 113.028 87.1607 112.892C88.273 112.324 88.8583 111.168 88.9098 109.984C89.811 107.853 90.343 105.58 90.4893 103.253C90.5359 102.489 90.5442 101.718 90.486 100.955C90.4461 100.416 90.3114 100.057 90.1086 99.5706C90.0404 99.4118 89.9789 99.2664 89.9307 99.1059C89.9423 98.5911 89.949 98.0763 89.9556 97.5631C90.0936 97.1302 90.3397 96.7274 90.6822 96.3881C91.2126 95.8632 91.4553 94.7734 90.9732 94.1249C90.6589 93.7053 90.3463 93.2858 90.0321 92.8662C90.1202 91.066 90.5492 88.201 89.5981 87.9002C89.6364 87.6327 89.7179 87.3686 89.7644 87.1029C89.9872 85.8258 89.8542 84.6842 89.1791 83.5676C89.0378 83.3353 88.9181 83.1297 88.82 82.9291C88.7585 82.5614 88.697 82.1937 88.6355 81.8259C88.5407 81.2593 88.4476 80.6876 88.3678 80.1126C88.3262 79.3805 88.288 78.6484 88.2464 77.9146C88.2082 77.2393 88.1649 76.564 88.12 75.8871C88.1383 75.5845 88.1649 75.282 88.2032 74.9795C88.431 73.1759 89.1642 72.509 90.4345 71.2553C90.634 71.2236 90.8318 71.1885 91.0264 71.1484C91.9325 70.9595 92.8802 70.667 93.813 70.7723C94.8255 70.8859 95.7317 71.3256 96.716 70.7639C97.0053 70.5968 97.6421 70.1354 97.6969 69.7694C97.7003 69.746 97.7052 69.7259 97.7119 69.7109C97.7801 69.7009 97.8682 69.6925 97.9231 69.6908C98.7045 69.6641 99.451 69.9733 100.239 69.8881C101.172 69.7878 102.007 69.3716 102.555 68.7548C103.259 68.9286 103.977 69.0072 104.707 68.9102C105.319 68.83 105.867 68.6294 106.409 68.3319C106.803 68.1179 106.679 68.0561 107.108 68.2299C108.084 68.6277 108.966 69.1526 110.065 68.8801C110.636 68.7397 111.128 68.4305 111.542 68.0143C111.64 67.9174 111.806 67.7719 111.918 67.6349C112.44 67.9006 113.753 68.5007 113.969 68.5542C114.581 68.7046 115.23 68.6812 115.825 68.4807C116.262 68.3336 116.798 67.9324 117.182 67.8505C117.679 67.7435 118.783 68.4389 119.376 68.6779C120.417 69.0974 121.519 69.2011 122.574 68.7682C122.936 68.6194 123.641 68.026 123.912 68.031C124.353 68.5776 125.583 71.5679 125.952 72.6594C127.447 77.0722 127.834 90.8504 127.144 94.3656C127.118 94.4692 127.089 94.5711 127.061 94.6748C126.213 97.732 125.33 100.841 123.912 103.689C122.574 106.374 120.723 108.791 118.068 110.257C115.314 111.778 112.082 112.177 108.986 111.971C106.993 111.841 105.033 111.438 103.104 110.933C102.096 110.671 101.097 110.379 100.103 110.074C99.6688 109.942 99.2282 109.819 98.8026 109.665C98.0511 109.392 97.657 109.371 96.9371 109.72C96.282 110.038 96.1141 110.975 96.4549 111.565C97.0103 112.528 98.0278 112.595 99.0104 112.876C100.011 113.162 101.016 113.436 102.026 113.681C103.963 114.149 105.932 114.509 107.917 114.674C111.472 114.974 115.135 114.512 118.37 112.953C118.736 112.775 119.089 112.587 119.43 112.383C119.303 112.56 119.175 112.737 119.045 112.913C118.686 113.399 118.952 114.226 119.456 114.492C119.616 114.576 119.775 114.656 119.937 114.734C119.958 114.786 119.982 114.838 120.008 114.89C120.469 115.819 121.433 116.368 122.416 116.605C123.583 116.886 124.89 116.687 126.077 116.652C127.177 116.618 128.278 116.585 129.377 116.551C129.637 116.545 129.896 116.536 130.155 116.528C131.462 116.488 132.767 116.449 134.073 116.409C135.236 116.374 135.182 116.465 136.274 115.996C136.761 115.786 137.16 115.488 137.496 115.092C137.705 114.999 137.908 114.892 138.103 114.77C138.728 114.378 139.283 113.854 139.795 113.275C140.665 113.551 141.884 113.295 142.053 112.197C142.326 110.44 144.597 109.69 145.658 108.42C146.514 107.395 147.126 106.053 147.094 104.764C149.253 103.714 150.426 100.948 150.701 98.6011C150.829 97.513 150.809 96.348 150.993 95.2414C151.075 95.1528 151.148 95.0592 151.21 94.9589C151.752 94.0781 152.224 93.1704 152.639 92.2411C153.205 91.8316 153.885 91.5792 154.596 91.5374C156.345 91.4354 156.675 89.0635 155.007 88.4919C154.999 88.4885 154.992 88.4869 154.984 88.4835C155.436 87.3469 155.398 86.0014 154.849 84.9249C154.872 84.8079 154.894 84.6926 154.916 84.5756C155.852 83.5643 156.389 82.1586 156.329 80.7896C156.756 80.4871 157.235 80.2531 157.759 80.1076C158.568 79.8836 158.573 78.8908 157.975 78.4462C157.734 78.2673 157.534 78.0584 157.368 77.8277C157.782 76.5774 157.619 75.1316 156.773 74.1053C157.31 73.4133 157.847 72.7213 158.384 72.0293C158.74 71.5713 158.928 70.794 158.384 70.3594C158.036 70.0803 157.689 69.8028 157.34 69.5253Z" fill="black"/>
<path fill-rule="evenodd" clip-rule="evenodd" d="M118.257 95.4994C118.829 94.4874 120.534 94.6519 120.795 95.8322C121.324 98.2247 118.48 100.434 116.32 100.489C114.174 100.544 111.765 98.7112 112.076 96.3961C112.153 95.8235 112.915 95.893 113.175 96.252L113.276 96.3898C113.982 97.3412 114.913 98.326 116.224 98.094C116.767 97.9981 117.26 97.6578 117.588 97.2197C117.984 96.691 117.941 96.0597 118.257 95.4994ZM104.608 77.9954C104.899 77.915 105.192 77.9461 105.45 78.0561C106.025 78.1619 106.506 78.6433 106.675 79.1929C106.688 79.2404 106.703 79.2874 106.72 79.3339L106.745 79.4033L106.676 79.2271C106.708 79.4006 106.849 79.583 106.9 79.7572C106.962 79.9713 106.977 80.2145 106.956 80.4502C107.139 80.452 107.322 80.4582 107.505 80.4741L107.681 80.4899C108.668 80.5819 109.751 80.7507 110.336 81.6062C110.665 82.0869 110.357 82.9524 109.753 83.045C108.824 83.1876 108.023 82.6718 107.097 82.5685C106.222 82.4707 105.306 82.5267 104.442 82.6853C102.658 83.0125 101.018 83.7379 99.28 84.193L99.0433 84.2533L99.0437 84.2522C98.7457 84.3244 98.4075 83.9088 98.7023 83.6658C100.095 82.518 101.878 81.5878 103.635 81.0213C103.379 80.613 103.3 80.0751 103.475 79.6366C103.502 79.5458 103.535 79.4574 103.571 79.3694L103.645 79.1882C103.652 79.1028 103.668 79.0183 103.692 78.9356L103.696 78.9104L103.698 78.9119C103.829 78.4855 104.17 78.1164 104.608 77.9954ZM122.377 78.0612C122.758 77.6789 123.293 77.7354 123.69 78.0363L123.743 78.0778C124.118 78.2448 124.428 78.6096 124.631 78.9478C124.843 79.299 124.983 79.6567 124.989 80.0433C125.911 80.0463 126.794 80.3238 127.471 81.0706C127.69 81.3116 127.839 81.6834 127.719 82.0101L127.647 82.2045C127.42 82.8217 126.398 83.177 126.05 82.4512L126.034 82.4158C125.665 81.554 124.249 81.6444 123.496 81.7325C122.971 81.7942 122.452 81.9251 121.946 82.0717C121.767 82.1233 121.59 82.1794 121.413 82.2366L121.236 82.2941C121.142 82.3247 120.651 82.5923 120.957 82.529C121.039 82.5119 121.1 82.6319 121.017 82.6722C120.652 82.8469 120.264 82.4991 120.288 82.1066C120.33 81.4253 121.409 81.0518 121.928 80.8169L121.959 80.8027C122.158 80.7104 122.366 80.622 122.581 80.5399C122.46 80.3594 122.36 80.1588 122.277 79.9435C122.198 79.7402 122.146 79.5427 122.117 79.3265C122.089 79.2209 122.089 79.1153 122.117 79.0095L122.122 78.9792C122.107 78.9093 122.1 78.8371 122.101 78.7644L122.098 78.7362H122.101C122.111 78.4816 122.212 78.2265 122.377 78.0612ZM116.29 85.3163C117.754 85.7699 120.168 87.0056 119.405 88.913C118.341 90.6647 115.517 89.3773 114.148 88.8114C112.919 88.4029 112.279 90.1314 113.467 90.6524C123.291 94.5511 123.255 84.2615 116.647 84.4126C115.919 84.4292 115.896 85.1655 116.29 85.3163ZM103.293 71.8996L103.543 71.8265C104.84 71.4496 106.164 70.7987 107.316 71.8143C107.768 72.2131 107.861 73.0419 107.538 73.5393C106.8 74.6728 105.707 74.4996 104.517 74.5962C103.61 74.6698 102.717 74.9369 101.871 75.2707C101.18 75.5436 100.539 75.9279 99.9331 76.3565C99.3383 76.7779 98.9319 77.4366 98.3218 77.8159C98.0982 77.9549 97.8399 77.8118 97.7596 77.5864C97.475 76.7865 97.9559 75.7902 98.3628 75.1087C98.8595 74.2773 99.6139 73.5973 100.425 73.0828C101.314 72.5194 102.296 72.194 103.293 71.8996ZM122.194 71.0391C124.386 71.0384 126.496 72.2618 127.722 74.0551C128.139 74.6644 127.834 75.567 127.236 75.9178C126.565 76.3116 125.847 76.0281 125.405 75.4638L125.379 75.4296C124.675 74.49 123.769 73.7501 122.694 73.2683C122.17 73.0332 121.59 72.8424 121.023 72.7457L120.84 72.7142C120.583 72.671 120.285 72.6297 120.052 72.6701C119.928 72.6865 119.813 72.7278 119.708 72.7906C119.759 72.9016 119.628 73.0353 119.507 72.9688C118.962 72.6686 119.029 72.1331 119.479 71.7169C120.116 71.128 121.372 71.0392 122.194 71.0391Z" fill="black"/>
<path fill-rule="evenodd" clip-rule="evenodd" d="M117.322 91.8203C115.469 90.9831 112.141 91.7137 110.933 92.0042C108.125 92.6798 105.3 94.1399 104.427 96.4273C103.443 99.0053 105.406 99.8168 105.695 99.6843C107.639 99.8217 109.954 98.5956 111.991 98.2792C113.645 98.0201 115.39 97.794 116.939 96.9124C118.071 97.5367 120.626 97.8742 122.688 98.4201C124.444 98.8848 125.205 99.8925 126.833 99.6783C128.785 99.4215 127.986 95.3041 125.811 93.6361C123.431 91.8107 119.405 91.0703 117.322 91.8203ZM120.99 109.426C119.369 109.822 119.26 106.258 119.079 104.998C118.937 104.015 118.137 101.477 116.108 101.587C114.079 101.696 113.317 103.822 113.419 105.144C113.486 106.001 114.274 110.344 111.76 110.894C110.157 110.888 108.303 110.78 106.618 110.468C104.635 110.017 102.055 108.439 101.374 111.547C101.129 112.665 109.866 115.987 113.743 116.288C117.675 117.087 122.275 115.858 125.075 112.841C125.711 112.154 127.505 109.305 127.633 108.607C127.902 107.14 127.28 106.196 125.471 106.713C124.193 107.398 122.033 109.171 120.99 109.426Z" fill="black"/>
<path fill-rule="evenodd" clip-rule="evenodd" d="M132.05 86.3263C130.027 88.4232 126.65 89.0249 123.958 87.9003C117.048 85.0038 120.43 75.9693 125.76 73.5431C126.426 73.3766 127.315 72.9817 128.126 72.8921C128.199 72.856 128.359 72.9604 128.552 72.8617C134.429 73.5199 135.767 82.6717 132.05 86.3263ZM109.759 86.8628C107.49 89.8817 103.272 90.8131 99.826 89.4097C93.0177 86.7199 95.4325 78.7085 100.091 75.5678C109.93 71.8586 113.994 81.2965 109.759 86.8628ZM95.0003 80.1738C94.994 80.1708 94.9876 80.1693 94.9811 80.1663C95.0171 80.1504 95.0531 80.1345 95.0889 80.1183C95.0773 80.1489 95.0646 80.1792 95.0533 80.2097C95.0356 80.1975 95.0201 80.1833 95.0003 80.1738ZM136.733 76.9106C136.178 76.9117 135.375 77.0033 134.916 77.3899C133.782 73.5533 129.596 70.0026 125.956 72.5917C123.089 73.5166 120.962 75.5677 119.753 78.2946C117.573 76.9938 114.145 77.5492 112.255 79.2694C111.017 75.1657 107.97 73.7287 104.344 73.5166C100.386 72.8662 96.4405 76.7225 95.2096 79.8161C94.186 79.6993 92.6567 79.3725 91.6938 80.0062C85.4445 78.3621 74.5186 77.4556 73.2481 78.3691C72.3427 78.7176 71.8459 80.8615 73.1105 80.9772C74.2125 80.8202 72.9818 79.4063 74.0927 79.252C80.0114 78.8839 85.7572 80.0797 91.6133 80.5815C92.1361 81.2871 93.8255 81.5231 94.7267 81.2396C93.3073 86.4874 96.3714 90.0578 100.963 91.1272C108.072 92.7654 114.257 86.3856 112.398 79.7498C114.551 78.675 117.028 78.7211 119.374 79.2873C115.454 93.7608 138.69 93.1114 135.061 77.8859C137.476 79.091 138 77.1538 136.733 76.9106Z" fill="black"/>
</svg>
