<svg width="191" height="257" viewBox="0 0 191 257" fill="none" xmlns="http://www.w3.org/2000/svg">
<path fill-rule="evenodd" clip-rule="evenodd" d="M38.0095 226.154C59.8557 229.471 82.0983 229.638 104.126 228.434C112.844 227.781 121.588 227.664 130.299 228.498C135.446 228.88 158.014 230.605 159.858 225.997C158.698 201.458 156.347 176.711 149.137 153.111C146.171 144.731 143.625 137.776 137.837 130.841C136.013 128.948 132.079 124.977 129.826 123.682C127.873 122.56 127.057 122.961 125.935 121.066C124.821 118.973 123.999 115.477 122.417 114C120.806 112.496 118.419 113.034 115.46 113.518C116.004 106.175 112.613 104.305 107.941 102.909C99.7302 99.7764 91.6208 101.35 89.5541 111.342C85.7221 111.342 83.5696 112.99 81.2426 114.574C80.2913 115.221 80.9531 116.871 79.8168 117.38C77.7146 118.128 73.9997 117.945 71.9756 118.866C62.7713 123.053 54.5734 129.125 49.1895 137.992C37.1197 156.925 28.8286 196.806 30.2633 219.245C29.6347 220.231 30.504 221.643 30.7249 222.703C31.0038 223.625 31.907 224.238 32.8496 224.133C34.1649 225.547 36.1993 225.862 38.0095 226.154Z" fill="#AE5D29"/>
<path fill-rule="evenodd" clip-rule="evenodd" d="M83.4595 112.842C84.8056 111.438 86.9162 110.6 88.915 110.647L89.0086 110.65L89.6871 110.681L89.2337 112.904L89.2109 113.01L89.1184 113.396L88.9953 113.901L88.9515 114.087L88.9053 114.293C88.898 114.326 88.8909 114.359 88.8839 114.392L88.8637 114.489L88.6704 115.434L88.7065 115.518L88.696 115.732C88.6661 116.508 88.8333 116.935 89.2018 117.072L89.2313 117.082L89.4415 117.149L89.613 117.521C90.0077 118.372 90.376 119.115 90.754 119.815C91.8565 121.857 93.172 123.897 94.6886 125.948C96.1296 127.897 97.6307 129.757 99.1915 131.523C99.8932 132.317 100.635 133.115 101.423 133.926L102.103 134.622L102.319 134.84L102.464 134.985L102.645 135.162L102.906 135.411L103.096 135.598L103.157 135.656C103.234 135.727 103.294 135.776 103.348 135.81L103.368 135.823L103.427 135.858L106.576 139.168L107.688 139.78L108.216 140.072L108.323 139.859L108.345 139.791L109.515 137.222L110.23 135.649C111.696 132.412 112.838 129.837 113.881 127.385L114.011 127.079L114.396 126.166L114.599 125.68C115.532 123.445 116.221 121.721 116.838 120.046L116.925 119.807L117.055 119.449L117.248 118.909L117.283 118.817C117.451 118.388 117.039 116.831 116.634 115.977L116.611 115.93L116.506 115.718L116.392 115.495C116.124 114.973 115.93 114.392 115.767 113.69C115.74 113.576 115.715 113.462 115.692 113.346L115.658 113.172L115.636 113.058L115.606 112.899L115.563 112.67L116.47 112.518L116.968 112.437L117.185 112.403C117.466 112.36 117.716 112.324 117.952 112.294L118.039 112.283L118.197 112.264L118.203 112.296L118.526 112.327L118.766 112.352C119.95 112.477 120.862 112.615 121.511 112.768L121.575 112.783L121.69 112.813L121.743 112.827C122.333 112.985 122.787 113.328 123.146 113.833C123.393 114.18 123.553 114.512 123.806 115.142L123.897 115.369L124.199 116.114C124.234 116.204 124.288 116.349 124.362 116.549L124.618 117.245L125.9 120.784L127.212 121.474C127.822 121.793 128.268 122.023 128.488 122.131L128.567 122.169L128.622 122.195L129.075 122.374L129.026 122.515L129.081 122.546C134.482 125.652 138.648 130.43 141.891 136.773L141.989 136.966L142.089 137.166C144.674 142.333 146.526 148.099 148.334 155.796L148.445 156.275L148.534 156.656L149.005 158.71C150.776 166.466 151.993 172.25 153 177.925L153.066 178.295L153.234 179.259C154.499 186.605 155.558 193.884 156.405 201.092L156.546 202.305C156.899 205.402 157.219 208.603 157.565 212.448L157.612 212.964L157.764 214.691C157.927 216.552 158.075 218.409 158.21 220.261L158.276 221.188L158.411 223.201L158.491 224.349L158.501 224.504L158.533 225.102L158.542 225.243C158.554 225.422 158.568 225.574 158.585 225.714L158.599 225.818L158.614 225.918C158.659 226.192 158.748 226.438 158.894 226.712L158.932 226.781L159.183 227.229L158.728 227.469C156.355 228.718 151.684 229.268 145.275 229.297L145.081 229.297H144.68C141.566 229.296 138.266 229.176 134.822 228.97L134.043 228.923L133.393 228.881C133.113 228.863 132.841 228.845 132.558 228.825L132.125 228.795L130.314 228.662C122.169 227.883 113.628 227.896 104.216 228.6C79.6794 229.941 58.5007 229.375 38.5948 226.405L37.9919 226.315L37.5477 226.243L37.2828 226.198C35.1713 225.838 33.8455 225.376 32.811 224.407L32.7568 224.355L32.7117 224.311L32.6921 224.312C31.6504 224.307 30.6969 223.626 30.343 222.622L30.3247 222.567L30.3013 222.492L30.2852 222.418C30.2687 222.346 30.2481 222.268 30.2231 222.183L30.2035 222.117L30.0391 221.579L30.5931 221.477C30.6408 221.469 30.6904 221.435 30.7386 221.366L30.7847 221.3L30.8646 221.189L31.0576 220.925C31.2631 220.636 31.3643 220.456 31.4144 220.274C31.4587 220.113 31.4753 219.907 31.4705 219.62L31.4668 219.48L31.445 218.972C31.4435 218.931 31.4426 218.896 31.4419 218.861L31.4412 218.81L31.4409 218.095L31.4427 217.309C31.4439 216.966 31.4459 216.631 31.4485 216.303L31.453 215.814L31.4574 215.421C31.4841 213.243 31.548 211.067 31.6492 208.895C31.8471 204.654 32.1864 200.42 32.6664 196.201C33.6576 187.491 35.1758 179.044 37.2411 170.882L37.4485 170.066C39.6816 161.343 41.8347 154.617 44.5712 148.398C48.0518 140.488 52.2956 133.977 57.639 128.773C60.5768 125.911 63.8303 123.496 67.2878 121.643C68.8779 120.791 70.5679 120.035 72.3802 119.355L72.6399 119.259L73.0591 119.105L73.3807 118.987L74.4171 118.6C74.6349 118.518 74.872 118.427 75.1523 118.317L75.3259 118.248L77.1817 117.508L77.4898 117.387L77.8325 117.254L78.0844 117.157C78.4962 117 78.8691 116.863 79.2153 116.742L79.4199 116.672L79.6056 116.609L80.3977 116.335L80.3822 117.056C80.3719 117.534 80.4953 117.896 80.7694 118.156L80.7786 118.164L80.7881 118.172L80.7965 118.178L80.8445 118.176L81.0317 118.175C81.051 118.165 81.0692 118.152 81.0861 118.138C81.3524 117.912 81.4763 117.609 81.5965 116.913L81.6284 116.72L81.6839 116.357L81.706 116.22C81.7861 115.738 81.8559 115.471 81.9916 115.166C82.1877 114.726 82.4469 114.296 82.752 113.902L82.8233 113.812L83.1082 113.469L83.1519 113.415C83.2518 113.287 83.303 113.197 83.3244 113.114L83.3295 113.092L83.358 112.948L83.4595 112.842Z" fill="#E0EAF3"/>
<path fill-rule="evenodd" clip-rule="evenodd" d="M128.434 123.127C128.3 123.053 128.418 122.861 128.553 122.924C135.031 125.963 140.002 131.293 143.499 137.451C147.12 143.828 149.184 151.069 150.964 158.145L151.028 158.401C152.925 165.971 154.538 173.62 155.991 181.287C157.462 189.051 158.643 196.864 159.592 204.708C160.062 208.587 160.481 212.473 160.808 216.366C160.971 218.312 161.12 220.259 161.253 222.207C161.306 222.986 161.356 223.765 161.399 224.545L161.43 225.13C161.457 225.66 161.52 226.192 161.389 226.715C161.275 227.167 161.036 227.575 160.826 227.989C160.411 228.808 159.271 228.673 158.823 227.989L158.693 227.79C158.396 227.331 158.149 226.905 158.056 226.333C157.966 225.78 157.962 225.201 157.922 224.642C157.847 223.614 157.784 222.586 157.712 221.557C157.56 219.393 157.39 217.23 157.201 215.069C156.828 210.802 156.428 206.539 155.936 202.285C155.063 194.723 153.967 187.181 152.676 179.679C151.414 172.351 149.818 165.097 148.153 157.852L147.981 157.103C145.067 144.454 140.575 129.887 128.434 123.127ZM59.4252 172.658C59.4729 172.531 59.6779 172.502 59.7125 172.658C60.1489 174.622 60.1921 176.645 60.2588 178.656C60.3245 180.64 60.3218 182.632 60.2929 184.617C60.1862 191.912 59.9859 199.201 59.8127 206.495C59.726 210.143 59.6448 213.792 59.5824 217.441C59.5588 218.809 59.539 220.178 59.5225 221.547L59.5024 223.352C59.4923 224.15 59.4714 224.938 59.374 225.735C59.3098 226.26 59.173 226.76 58.8834 227.209C58.6779 227.528 58.3849 227.69 58.0994 227.907L58.046 227.948C57.6818 228.236 57.2982 228.238 56.9375 227.948L56.8328 227.865C56.4882 227.596 56.1904 227.386 55.9705 226.96C55.6645 226.368 55.6155 225.724 55.5635 225.072C55.4845 224.082 55.5369 223.078 55.5471 222.086C55.5675 220.095 55.5951 218.104 55.63 216.114C55.7583 208.814 56.0118 201.513 56.4738 194.227C56.6915 190.794 56.9866 187.351 57.3825 183.933L57.4579 183.292C57.5779 182.286 57.6875 181.263 57.8109 180.236C55.9686 178.941 54.3493 177.369 52.9684 175.586C52.8667 175.455 53.0341 175.271 53.1568 175.398C54.5678 176.858 56.1857 178.023 57.9768 178.938C58.2702 176.788 58.6737 174.65 59.4252 172.658ZM90.2017 107.588C90.227 107.569 90.2664 107.56 90.2905 107.588C90.6865 108.05 90.6062 108.755 90.619 109.34L90.6204 109.395C90.6489 110.25 90.6542 111.102 90.6514 111.957L90.6425 114.68C90.6413 115.055 90.6109 115.444 90.6302 115.821L90.6402 115.967C90.8482 116.18 90.9449 116.488 90.8743 116.797C90.8616 117.193 90.6542 117.524 90.3517 117.732L91.0001 118.651L91.649 119.57C92.9866 121.466 94.3389 123.346 95.7482 125.19C97.1853 127.07 98.7183 128.88 100.323 130.619C101.106 131.47 101.904 132.308 102.719 133.127C103.051 133.46 103.39 133.785 103.726 134.114L104.061 134.444C104.258 134.641 104.507 134.836 104.638 135.087C104.715 135.234 104.732 135.598 104.76 135.658C105.007 136.202 104.585 137.069 103.884 136.798L103.915 136.776C104.043 136.688 103.961 136.686 103.67 136.773C103.486 136.772 103.313 136.73 103.152 136.646L103.104 136.62C102.877 136.504 102.675 136.281 102.49 136.103L102.445 136.059C102.023 135.665 101.621 135.246 101.217 134.833C100.374 133.972 99.5498 133.093 98.7518 132.19C97.1599 130.388 95.6507 128.514 94.2215 126.581C92.7657 124.612 91.4126 122.543 90.2489 120.388C89.8073 119.57 89.4024 118.737 89.0143 117.894C88.2588 117.652 88.0834 116.848 88.1361 115.944C87.8573 115.295 87.6062 114.633 87.4577 113.956C87.4374 113.863 87.5567 113.776 87.6281 113.857C87.8697 114.131 88.0934 114.423 88.3085 114.723C88.4382 114.089 88.6025 113.505 88.6797 113.133L89.0146 111.49C87.1273 111.392 85.0591 112.167 83.758 113.524C83.6881 113.877 83.416 114.13 83.1508 114.46C82.8478 114.838 82.5834 115.262 82.3863 115.705C81.949 116.687 82.1958 118.134 81.3472 118.855C81.2587 118.93 81.1599 118.982 81.0579 119.014C81.4606 120.988 81.2778 123.163 81.2691 125.165L81.2687 125.341C81.2708 127.582 81.1958 129.825 81.1092 132.064L81.0211 134.28C80.9069 137.236 80.8327 140.193 81.1201 143.132C82.4319 141.971 83.7884 140.862 85.1915 139.806C86.1141 139.112 87.0552 138.442 88.0134 137.798L88.792 137.278C89.7249 136.652 90.6805 136.009 91.702 135.561C93.0381 134.975 94.3086 135.177 95.5985 135.777C96.8831 136.375 98.1294 137.07 99.3894 137.719C100.671 138.378 101.955 139.032 103.239 139.687C104.089 140.121 105.335 140.513 105.958 141.313C105.998 141.136 106.044 140.959 106.098 140.784C106.036 140.516 106.06 140.226 106.211 139.95C108.306 136.102 110.245 132.162 112.17 128.226C113.144 126.235 114.07 124.22 115.047 122.229L115.996 120.291C116.154 119.968 116.313 119.645 116.473 119.323C116.713 118.84 116.962 118.363 117.204 117.881C117.306 117.678 117.435 117.476 117.534 117.271L117.581 117.168C117.584 117.163 117.814 116.44 117.636 116.509L117.621 116.516C117.53 116.567 117.458 116.453 117.516 116.381C117.767 116.07 118.117 116.345 118.261 116.633C118.655 117.423 117.932 118.665 117.654 119.422L117.638 119.464C116.775 121.908 115.797 124.306 114.795 126.695C112.874 131.276 110.81 135.787 108.75 140.305L108.726 140.383C109.165 140.047 109.634 139.741 110.036 139.444C111.048 138.694 112.091 137.981 113.132 137.27C115.04 135.967 117.001 134.749 118.993 133.58L119.392 133.347C120.388 132.767 121.374 132.297 122.556 132.471C123.653 132.633 124.674 133.222 125.665 133.701L125.768 133.75L128.832 135.206C128.505 133.9 128.15 132.601 127.78 131.306C127.058 128.781 126.264 126.277 125.403 123.796C124.599 121.477 123.729 119.184 122.809 116.909L122.533 116.226C122.158 115.289 121.785 114.268 120.713 113.98C119.642 113.691 118.413 114.119 117.434 113.509C117.345 113.453 117.357 113.307 117.464 113.279L118.068 113.127C119.203 112.845 120.532 112.562 121.605 112.836C122.772 113.135 123.737 114.114 124.303 115.131C124.933 116.264 125.377 117.531 125.854 118.738L125.93 118.928C126.478 120.294 127.006 121.669 127.511 123.052C128.52 125.817 129.438 128.615 130.269 131.438C130.67 132.798 131.05 134.166 131.416 135.536C131.521 135.93 131.694 136.408 131.836 136.906C131.999 137.065 132.153 137.242 132.298 137.445C132.538 137.78 132.365 138.173 132.067 138.374C132.056 138.717 131.979 139.039 131.797 139.316C131.086 140.395 129.204 140.117 129.281 138.666C129.292 138.444 129.379 138.232 129.51 138.052L129.506 138.023L129.492 137.97C129.165 137.814 128.837 137.639 128.491 137.469L125.275 135.88C124.344 135.42 123.312 134.709 122.276 134.534C121.31 134.371 120.292 135.09 119.462 135.524L119.408 135.551C117.402 136.579 115.411 137.641 113.428 138.711C112.46 139.234 111.505 139.778 110.54 140.307C109.734 140.749 108.864 141.384 107.958 141.634C107.57 141.935 107.111 141.894 106.741 141.667C106.91 142.712 106.9 143.785 106.951 144.854C107.021 146.283 107.032 147.716 107.055 149.147L107.064 149.684C107.125 152.847 107.158 156.012 107.17 159.176C107.212 170.443 107.088 181.714 107.059 192.981C107.044 198.642 106.932 204.308 106.785 209.967C106.722 212.365 106.592 214.76 106.451 217.154L106.373 218.46C106.209 221.215 106.113 224.001 105.602 226.72C105.536 227.074 104.935 227.083 104.877 226.72C104.407 223.807 104.381 220.83 104.29 217.883L104.271 217.294C104.163 214.13 104.111 210.968 104.122 207.802C104.162 196.53 104.456 185.265 104.695 173.997C104.816 168.335 104.897 162.671 105.084 157.011C105.178 154.179 105.284 151.349 105.41 148.518C105.466 147.254 105.52 145.991 105.604 144.729L105.642 144.188C105.668 143.836 105.689 143.487 105.715 143.142C104.574 143.558 103.53 142.787 102.504 142.259C101.321 141.651 100.139 141.042 98.9551 140.435L97.7708 139.829L95.4006 138.62C94.3334 138.075 93.5112 137.534 92.3729 138.172C88.2722 140.472 84.5039 143.532 81.089 146.742C80.4342 147.358 79.0504 147.193 78.8845 146.161C78.176 141.752 78.6069 137.28 78.9687 132.858L79.102 131.216C79.2636 129.255 79.4396 127.294 79.6741 125.341C79.779 124.468 79.8835 123.595 79.9991 122.723L80.088 122.069C80.2325 121.035 80.3268 120.008 80.6348 119.017C80.5377 118.985 80.4442 118.934 80.3606 118.855C79.4345 117.977 79.881 116.453 80.3036 115.408C80.7208 114.377 81.357 113.477 82.1538 112.702C82.3276 112.533 82.5726 112.424 82.8187 112.419C84.7506 111.139 86.8699 110.501 89.0757 111.199C89.1376 110.903 89.2008 110.607 89.2673 110.312L89.335 110.018C89.5066 109.286 89.5703 108.078 90.2017 107.588ZM110.002 223.126C110.601 222.961 111.258 223.135 111.697 223.574C112.136 224.013 112.31 224.669 112.145 225.268C112.062 225.563 111.913 225.819 111.697 226.037C111.495 226.237 111.26 226.38 110.991 226.466L110.928 226.484L110.83 226.525C110.53 226.606 110.229 226.606 109.929 226.525C109.641 226.445 109.392 226.299 109.18 226.089C108.97 225.878 108.825 225.628 108.744 225.341C108.663 225.041 108.663 224.74 108.744 224.44L108.785 224.342C108.868 224.047 109.017 223.791 109.233 223.574C109.45 223.358 109.707 223.208 110.002 223.126ZM145.597 163.413C145.695 163.3 145.855 163.445 145.794 163.565C144.86 165.395 143.819 167.212 142.797 168.995C142.879 169.489 142.96 169.979 143.053 170.457C143.452 172.494 143.94 174.494 144.258 176.551C145.402 183.942 145.996 191.413 146.505 198.871C147.016 206.355 147.082 213.843 147.158 221.342C147.165 221.992 146.665 222.747 145.995 222.87C145.688 222.926 145.458 222.915 145.152 222.87C144.455 222.767 144.018 221.968 143.988 221.342C143.788 217.151 143.519 212.965 143.208 208.78C142.655 201.362 142.318 193.923 141.871 186.497L141.714 183.901C141.545 181.089 141.391 178.274 141.341 175.458C141.307 173.592 141.407 171.726 141.346 169.862C141.289 168.141 141.115 166.27 141.494 164.58C141.508 164.516 141.608 164.5 141.637 164.561C142.032 165.391 142.282 166.294 142.475 167.215C143.492 165.93 144.527 164.641 145.597 163.413ZM78.9779 117.957C79.1208 117.947 79.1151 118.161 78.9779 118.177C76.982 118.409 75.0539 119.22 73.1693 119.911L73.0079 119.969C71.104 120.66 69.2477 121.463 67.4613 122.42C63.9686 124.291 60.7613 126.704 57.9256 129.467C46.6041 140.494 41.4446 156.396 37.6639 171.339C35.5633 179.642 34.0696 188.085 33.1014 196.592C32.6226 200.8 32.2842 205.023 32.0868 209.253C31.9858 211.421 31.9221 213.591 31.8955 215.761C31.8818 216.873 31.8778 217.985 31.8792 219.096C31.8798 219.606 31.9708 220.247 31.8345 220.742C31.7081 221.2 31.3516 221.603 31.0879 221.985C30.7753 222.438 30.2137 222.414 29.8968 221.985L29.7799 221.829C29.442 221.381 29.1113 220.953 29.063 220.367C29.0114 219.739 29.0478 219.092 29.0455 218.461C29.0401 217.191 29.0558 215.92 29.0813 214.65C29.1303 212.215 29.2262 209.781 29.3689 207.35C29.6585 202.417 30.1352 197.494 30.8178 192.599C32.0312 183.899 33.8498 175.282 36.232 166.826C38.4794 158.85 41.1419 150.898 44.9347 143.509C48.4564 136.649 53.0763 130.268 59.1724 125.473C62.0073 123.244 65.0933 121.386 68.4204 119.987C70.0985 119.281 71.8606 118.705 73.6527 118.376C75.4249 118.052 77.1894 118.097 78.9779 117.957ZM110.345 209.027C110.662 209.025 111.015 209.094 111.286 209.27L111.649 209.55C111.747 209.676 111.845 209.803 111.943 209.93C112.17 210.225 112.2 210.703 112.152 211.056C112.142 211.291 112.072 211.509 111.943 211.712L111.666 212.07C111.401 212.286 111.179 212.441 110.858 212.545C110.69 212.599 110.528 212.611 110.367 212.602L110.313 212.599L110.345 212.603L110.289 212.597C110.236 212.592 110.183 212.587 110.131 212.579C110.095 212.575 110.058 212.572 110.022 212.567C109.988 212.564 109.954 212.563 109.919 212.566C109.511 212.605 109.1 212.373 108.81 212.107C108.548 211.867 108.314 211.358 108.35 210.998L108.366 210.847C108.393 210.593 108.416 210.493 108.524 210.238C108.628 209.989 108.775 209.77 108.974 209.585C109.355 209.23 109.822 209.031 110.345 209.027ZM109.08 190.426C109.623 189.835 110.554 189.792 111.227 190.149C111.391 190.237 111.541 190.376 111.686 190.493C112.05 190.787 112.193 191.318 112.213 191.765C112.233 192.207 112 192.732 111.686 193.037L111.61 193.111C111.422 193.293 111.154 193.452 110.892 193.5C110.469 193.578 110.114 193.575 109.72 193.409C109.381 193.267 109.09 193.037 108.891 192.726L108.859 192.673C108.846 192.651 108.833 192.629 108.821 192.606L108.803 192.572C108.426 191.848 108.528 191.028 109.08 190.426ZM109.361 171.727C109.605 171.65 109.85 171.64 110.094 171.694C110.261 171.695 110.415 171.737 110.559 171.82C110.715 171.863 110.85 171.942 110.965 172.056C111.103 172.138 111.213 172.248 111.295 172.386C111.458 172.564 111.567 172.772 111.624 173.012L111.69 173.501L111.624 173.99L111.439 174.429C111.388 174.496 111.336 174.562 111.285 174.628C111.203 174.767 111.092 174.877 110.954 174.959C110.863 175.049 110.76 175.116 110.645 175.162C110.235 175.456 109.689 175.552 109.204 175.418C108.915 175.337 108.665 175.191 108.453 174.981C108.242 174.768 108.096 174.518 108.015 174.23L107.982 174C107.939 173.692 107.933 173.521 108.02 173.128C108.058 172.956 108.169 172.713 108.228 172.61C108.476 172.173 108.883 171.873 109.361 171.727ZM130.603 158.275C131.306 158.27 132.008 158.271 132.711 158.279L133.237 158.286C134.119 158.3 134.875 158.209 135.568 158.821C136.072 159.265 135.85 160.009 135.372 160.344C134.648 160.85 133.74 160.596 132.908 160.54C132.031 160.481 131.152 160.432 130.274 160.393C128.573 160.317 126.871 160.268 125.168 160.261C123.469 160.253 121.767 160.269 120.069 160.297C118.34 160.325 116.54 160.486 114.821 160.307C114.585 160.282 114.532 159.972 114.765 159.891C116.385 159.331 118.207 159.15 119.904 158.936C121.655 158.714 123.406 158.558 125.168 158.457C126.978 158.353 128.79 158.287 130.603 158.275ZM109.358 152.773L109.416 152.774C109.725 152.775 110.014 152.848 110.284 152.992L110.342 153.024L110.713 153.311C110.94 153.54 111.098 153.809 111.184 154.12L111.25 154.607C111.26 154.86 111.207 155.095 111.092 155.314C111.018 155.541 110.892 155.738 110.713 155.904C110.547 156.082 110.35 156.209 110.123 156.283C109.921 156.389 109.705 156.442 109.474 156.442L109.416 156.441C109.085 156.44 108.776 156.356 108.49 156.19L108.119 155.904C107.892 155.675 107.734 155.405 107.647 155.095L107.582 154.607C107.572 154.355 107.625 154.119 107.74 153.901C107.814 153.674 107.94 153.477 108.119 153.311C108.285 153.132 108.482 153.006 108.709 152.932C108.911 152.826 109.127 152.773 109.358 152.773ZM114.796 109.703C115.191 109.131 115.907 109.64 115.805 110.1C115.832 111.392 115.898 112.646 116.192 113.911C116.326 114.491 116.503 115.071 116.775 115.601L116.889 115.825C117.241 116.52 117.515 117.176 117.04 117.939C116.817 118.299 116.413 118.569 115.975 118.55C114.033 118.466 113.766 115.764 113.648 114.255C113.526 112.702 113.905 110.994 114.796 109.703Z" fill="black"/>
<path fill-rule="evenodd" clip-rule="evenodd" d="M73.99 47.2033C74.8554 46.2732 75.9622 45.5801 77.1722 45.3587C76.0662 45.9121 74.9851 46.4889 73.99 47.2033ZM72.295 55.2238C72.142 54.5149 72.0392 53.7992 72.0068 53.0836C72.2002 53.3781 72.5091 53.5749 72.856 53.6765C72.6319 54.1791 72.4413 54.697 72.295 55.2238ZM130.2 66.3382C129.202 62.1733 124.541 54.1623 123.44 52.6204C122.244 48.8025 128.767 45.7407 125.22 42.7553C123.613 41.4082 121.49 40.9315 119.499 40.4538C105.711 37.1368 90.8969 38.8097 78.109 44.9092C76.1638 44.4991 74.1372 45.3005 72.7227 46.7079C66.0773 53.3986 75.1338 65.4705 77.1141 73.0133C80.5118 81.4238 73.5128 82.8386 74.2634 89.9547C74.8466 93.631 78.5638 94.6026 81.7008 95.1582C82.2035 95.2761 82.8757 95.2938 83.0379 95.8262C83.5461 98.9337 85.2885 101.895 87.6278 103.905C87.4233 104.512 87.5794 105.249 88.3008 105.782C94.8366 110.647 103.078 113.082 111.229 112.644C120.944 112.123 125.968 106.545 127.18 105.109C133.883 96.0418 133.082 84.0782 131.715 73.2721C130.762 65.7443 131.97 73.7163 130.2 66.3382Z" fill="#AE5D29"/>
<path fill-rule="evenodd" clip-rule="evenodd" d="M100.245 31.6822C100.55 30.7261 101.414 30.1511 102.404 30.2698C103.28 30.3735 104.218 31.2443 104.111 32.2054C104.091 32.391 104.064 32.5648 104.033 32.7286L104.037 32.7301L104.041 32.7303L104.019 32.7938C103.954 33.0997 103.864 33.3738 103.731 33.6329C103.56 34.1293 103.397 34.6274 103.235 35.1272C103.469 35.1172 103.707 35.1306 103.949 35.1757C104.199 34.5338 104.451 33.8936 104.702 33.2501C104.97 32.5631 105.159 31.6806 105.69 31.149C106.369 30.4704 107.547 30.33 108.374 30.8147C109.249 31.3262 109.561 32.2355 109.371 33.21C109.274 33.7071 108.942 34.053 108.532 34.2703L108.488 34.2931L108.173 35.042C108.269 35.0002 108.369 34.9617 108.478 34.93C108.648 34.8798 108.815 34.8481 108.979 34.8347C109.429 34.0173 109.925 33.2234 110.437 32.4444C111.026 31.5485 112.177 31.1674 113.143 31.7341C114.008 32.2405 114.472 33.571 113.853 34.4452C113.382 35.1088 112.937 35.7858 112.498 36.4694C112.573 36.4828 112.648 36.4995 112.72 36.5212C112.753 36.4761 112.788 36.431 112.825 36.3859C113.304 35.7908 113.861 35.3445 114.433 34.8497C114.969 34.3851 115.216 33.6546 115.92 33.3019C116.806 32.859 117.874 33.0713 118.401 33.9538C119.533 35.8443 117.634 37.2249 116.419 38.3699C117.475 37.7097 118.575 37.1063 119.703 36.5848C120.337 36.2922 120.981 36.0098 121.635 35.7657C122.605 35.4047 123.389 35.5202 124.185 36.192C124.54 36.4928 124.717 37.1499 124.554 37.5877C124.237 38.4268 123.736 38.9366 122.858 39.1789C122.241 39.3494 121.609 39.4648 120.991 39.6436C119.957 39.9411 118.952 40.3039 117.978 40.7568C118.048 40.8003 118.114 40.8471 118.176 40.9006C118.904 40.6649 119.645 40.461 120.389 40.2871C121.623 39.9972 122.879 39.8014 124.141 39.6788L124.56 39.6398C126.073 39.4943 127.892 39.226 128.821 40.6766C129.126 41.1547 129.159 41.9436 128.821 42.4166C128.173 43.3259 127.529 43.5065 126.458 43.5232C127.512 43.6352 128.565 43.7739 129.613 43.936C130.335 44.0464 131.058 44.1714 131.777 44.3101L132.136 44.3807C133.012 44.5562 133.99 44.6581 134.743 45.1663C136.385 46.2761 135.614 48.4374 133.795 48.6681C132.915 48.7784 131.939 48.4056 131.077 48.2318C130.239 48.063 129.398 47.9142 128.554 47.7838C128.116 47.7153 127.679 47.6551 127.24 47.6C128.133 47.7287 129.019 47.9109 129.882 48.1683L130.121 48.2407C131.789 48.7499 134.04 49.5608 134.561 51.3458C134.876 52.4306 134.013 53.3767 132.969 53.4402C131.998 53.4987 131.188 52.9187 130.364 52.4908C129.763 52.1799 129.153 51.9475 128.505 51.7486C127.836 51.543 127.154 51.3725 126.466 51.2338C127.047 51.5544 127.613 51.9068 128.156 52.3011L128.406 52.4858C129.849 53.5633 132.051 55.2315 131.542 57.2512C131.382 57.8881 130.673 58.4965 129.992 58.4313C128.22 58.2658 127.242 56.3754 125.905 55.3624C125.557 55.0983 125.175 54.8376 124.774 54.5835C126.8 57.0038 128.412 59.8019 129.638 62.692C132.334 69.05 133.161 74.9381 133.18 81.7744L133.181 81.9861C133.184 85.757 133.099 89.5965 132.732 93.3507C132.391 96.819 131.767 100.242 130.197 103.383C127.566 108.65 122.438 112.752 116.783 114.313C110.49 116.051 103.457 114.692 98.3024 110.681C96.9875 109.658 98.7313 107.437 100.075 108.381C105.439 112.15 112.378 113.344 118.535 110.793C123.419 108.77 127.352 104.419 129.019 99.4099C130.08 96.2229 130.389 92.8248 130.768 89.5035L130.793 89.2822C131.193 85.8089 131.425 82.3121 131.422 78.8153C131.417 72.3215 130.486 66.976 127.634 61.0857C126.293 58.311 124.552 55.7454 122.473 53.4937C121.842 53.6224 121.171 53.4419 120.534 53.3733C120.209 53.3382 119.883 53.3048 119.558 53.2747C119.89 53.49 120.216 53.7139 120.537 53.9429L120.957 54.2465C122.272 55.19 123.941 56.2646 123.603 58.0886C123.511 58.5817 123.02 59.0347 122.545 59.1467C120.821 59.5579 119.636 57.8797 118.472 56.8835C117.459 56.0177 116.399 55.2421 115.319 54.4648C115.074 54.2893 114.827 54.1138 114.579 53.94C114.812 54.2128 115.039 54.4898 115.261 54.7695L115.589 55.1855C116.58 56.4283 118.01 58.0438 117.127 59.6548C116.876 60.1095 116.342 60.412 115.825 60.402C114.046 60.3652 113.339 58.3427 112.504 57.0657C111.787 55.9709 111.008 54.9395 110.202 53.9082C109.98 53.6257 109.756 53.3433 109.529 53.0608C105.793 53.2547 102.07 53.7494 98.4126 54.54C95.8996 55.0833 93.4283 55.7872 90.9754 56.5576L90.7715 56.6225C89.444 57.0507 88.0762 57.5986 87.1191 58.5383C86.9825 59.1857 87.0874 59.8685 87.2181 60.515L87.3199 61.0099C87.7396 63.0793 88.0256 65.1105 87.8116 67.2351C87.5897 69.4265 86.9305 71.3972 86.1262 73.433C85.7458 74.3925 85.352 74.2187 85.2168 75.2483C85.1133 76.0326 85.1773 76.8422 85.2481 77.633L85.3072 78.3035C85.4555 80.0597 85.53 81.9745 84.3808 83.4236C84.2023 83.6459 83.8202 83.5573 83.6933 83.335C83.6433 83.2464 83.5899 83.1612 83.5315 83.0793C82.9775 82.2753 82.1281 81.8173 81.157 81.6401C81.0335 81.6184 81.0819 81.4529 81.1854 81.4395C82.0063 81.3426 82.7839 81.5482 83.4447 81.9728C83.1314 80.8874 80.7054 81.4152 79.9079 81.6261L79.8805 81.6334C78.8859 81.9009 77.9448 82.3355 77.1155 82.9506C75.4468 84.1875 74.4824 86.1164 74.5307 88.1941C74.5791 90.2367 75.6321 92.1238 77.4409 93.1016C78.3136 93.573 79.3064 93.8003 80.2943 93.7903C81.3255 93.7803 82.2433 93.3273 83.2762 93.3908C83.8736 93.4276 84.3308 94.0694 83.9854 94.6294C83.7551 95.0038 83.4547 95.298 83.1076 95.5236C83.9537 97.4776 85.0333 99.3413 86.2781 101.061C86.9673 102.016 87.7482 102.897 88.6075 103.701C89.2783 104.329 90.7317 105.056 90.65 106.104C90.6216 106.482 90.4264 106.713 90.0826 106.853C89.0139 107.291 87.7144 105.784 86.9996 105.057L86.9422 104.999C86.0512 104.11 85.2385 103.127 84.531 102.084C83.2762 100.232 82.4969 98.1445 82.1749 95.9515C80.4612 96.468 78.1918 95.9833 76.7934 95.3498C72.3982 93.3607 70.9615 87.4319 73.633 83.4838C74.1503 82.7199 74.7977 82.0664 75.5353 81.5382C75.3734 81.4496 75.2216 81.3359 75.0864 81.1922C74.3387 80.3966 73.8101 79.3584 73.2855 78.4015L73.2225 78.2871C72.7568 77.4447 72.3174 76.589 71.9056 75.7202L71.7524 75.3937C70.833 73.413 70.027 72.5471 69.3713 70.4645C68.7405 68.4553 68.2432 66.4077 67.9212 64.325L67.8356 63.7738C67.6494 62.5653 67.4732 61.273 67.6091 60.046C66.673 60.3519 65.7319 60.5407 64.8058 60.0811C64.1951 59.7785 63.858 58.896 64.0666 58.2625C64.2184 57.7961 64.4721 57.4301 64.7941 57.1426C64.6022 57.0456 64.422 56.9219 64.2635 56.7849L64.125 56.6647C63.5643 56.1765 63.5243 55.2488 63.8647 54.637C63.8981 54.5785 63.9314 54.5183 63.9631 54.4598C64.2868 53.8798 64.956 53.5004 65.6168 53.5104C65.7236 53.5121 65.8304 53.5121 65.9388 53.5104C65.6301 53.4419 65.3281 53.3366 65.0411 53.1594C63.7462 52.3621 63.9097 50.2008 65.4766 49.8197C66.1341 49.6609 66.8599 49.7261 67.5841 49.8966C67.5574 49.8816 67.5307 49.8665 67.504 49.8498C66.9567 49.5138 66.4978 48.8569 66.5495 48.1833C66.6063 47.4378 66.8466 46.9063 67.504 46.5152C68.0747 46.1775 68.8823 46.1458 69.4497 46.5152C69.9419 46.8378 70.4242 47.1938 70.8881 47.5766C70.4225 47.0032 70.0187 46.3798 69.8552 45.7179C69.6533 44.8938 69.9903 43.9962 70.7312 43.5616C71.3219 43.2156 71.946 43.2541 72.5033 43.5215C72.4733 43.0886 72.5784 42.6473 72.8654 42.2562C73.4528 41.454 74.5207 40.9925 75.4502 41.5775C75.572 41.6544 75.7355 41.7865 75.894 41.9486C75.5853 40.9641 75.864 39.9311 76.9169 39.4865C77.5594 39.214 78.4287 39.3511 78.9861 39.8208C78.6323 37.9036 81.4573 36.4945 82.5553 38.4752C82.8045 38.9239 83.0511 39.3964 83.2715 39.8798L83.3529 40.0615L83.3613 40.0581L83.3052 39.9253L83.2478 39.7924C82.9424 39.082 82.5536 38.3432 82.4469 37.5726C82.29 36.4327 82.7973 35.3512 84.0354 35.184C84.6745 35.0971 85.3854 35.388 85.8142 35.8963C85.5823 34.1277 87.5546 32.8423 88.9746 34.1628C89.6471 34.7879 90.0059 35.7022 90.4331 36.5045C90.675 36.9575 90.922 37.4088 91.1639 37.8635C91.2257 37.7899 91.2924 37.7164 91.3625 37.6445C91.0037 36.568 90.7251 35.4649 90.4898 34.355C90.2662 33.3086 90.7885 32.2221 91.8664 31.9265C92.8459 31.6555 94.0724 32.2608 94.291 33.3054C94.4445 34.0407 94.6264 34.768 94.8266 35.4916C94.9635 35.4582 95.0986 35.4348 95.2321 35.4181C95.2432 35.2821 95.2558 35.1454 95.2699 35.0095L95.3225 34.5259C95.4391 33.4212 95.5568 32.16 96.1332 31.2209C97.116 29.6163 99.6357 30.2815 99.6624 32.1787C99.6774 33.1599 99.2786 34.1327 99.1401 35.1038C99.08 35.5267 99.045 35.9546 99.025 36.3825C99.2936 34.9617 99.6624 33.5593 100.09 32.1787C100.14 32.0132 100.193 31.8477 100.245 31.6822ZM78.5059 86.4707C80.7169 86.128 82.7376 87.3633 84.0475 89.0933C84.2862 89.4092 84.1293 89.8555 83.914 90.1213C83.7589 90.3168 83.5503 90.3402 83.315 90.3703C83.0447 90.4054 82.7026 90.1865 82.5841 89.9508C81.7415 88.2659 80.238 87.2011 78.5059 86.5459C78.4742 86.5342 78.4642 86.4774 78.5059 86.4707ZM81.5705 56.2827L81.6375 56.2106C82.0848 55.7458 81.3778 55.0357 80.9294 55.5016C80.4574 55.992 80.1437 56.5877 79.842 57.1915C79.5545 57.7672 80.4178 58.2756 80.7065 57.6978L80.838 57.4351C81.0443 57.0268 81.2643 56.6233 81.5705 56.2827ZM75.3615 55.3284C75.9956 55.2214 75.7267 54.2548 75.0953 54.3614C74.2773 54.4995 73.4625 54.6564 72.6444 54.7947C72.0105 54.9016 72.2793 55.8683 72.9107 55.7618C73.7287 55.6236 74.5435 55.4666 75.3615 55.3284ZM113.134 48.7291C112.522 48.5244 112.259 49.4927 112.868 49.6963C113.71 49.9776 114.545 50.2659 115.344 50.6566C115.921 50.9387 116.429 50.074 115.849 49.7906C114.972 49.3618 114.059 49.038 113.134 48.7291ZM75.2171 47.4294C74.6189 47.1898 74.3591 48.1594 74.951 48.3966L77.1136 49.2629C77.7118 49.5026 77.9716 48.5331 77.3797 48.296L75.2171 47.4294ZM120.686 45.0747L120.607 45.0248C120.065 44.6728 119.562 45.5406 120.102 45.8908C120.418 46.0962 120.803 46.2356 121.093 46.4804L121.154 46.5345C121.622 46.9774 122.331 46.2697 121.862 45.8253C121.518 45.5004 121.083 45.3195 120.686 45.0747Z" fill="black"/>
<path fill-rule="evenodd" clip-rule="evenodd" d="M118.671 101.233C117.602 101.242 116.4 100.841 115.597 100.527L115.387 100.444C114.692 100.166 113.978 99.8462 113.445 99.3098C113.275 99.1355 113.093 98.9382 113.001 98.7308C112.947 98.6093 112.925 98.4835 112.977 98.3586C113.17 98.3396 113.352 98.315 113.525 98.2834C113.607 98.2684 113.686 98.2528 113.747 98.2524C113.97 98.2509 114.19 98.2793 114.41 98.3071C114.442 98.3112 114.474 98.3152 114.506 98.3191C114.677 98.3403 114.848 98.3633 115.018 98.3861C115.514 98.4527 116.007 98.5187 116.51 98.5427C116.873 98.5601 117.253 98.5397 117.637 98.5188C118.633 98.4647 119.663 98.3907 120.43 99.0879C120.631 99.2705 120.715 99.5006 120.715 99.7349C120.715 100.02 120.595 100.309 120.412 100.537C119.998 101.052 119.361 101.228 118.671 101.233ZM124.498 92.2542C124.033 92.9515 123.259 93.3999 122.197 93.3511C120.088 93.2547 117.57 92.4591 115.803 91.3086C115.343 91.009 115.044 90.5301 114.991 90.0171L114.895 89.1043L114.381 89.8644C114.327 89.9436 114.273 90.0226 114.219 90.1016C114.07 90.3192 113.921 90.5368 113.781 90.7598C113.242 91.6159 112.748 92.4806 112.299 93.3875C111.981 94.0296 111.749 94.7479 111.516 95.4725C111.123 96.696 110.743 97.8992 109.903 98.7591C109.776 98.8891 109.581 98.9357 109.402 98.9127C109.244 98.8924 109.09 98.8152 109.014 98.6614C108.01 96.6209 109.361 94.1619 110.456 92.4524L110.572 92.2739C111.587 90.7291 113.246 88.6847 115.146 88.4068L115.363 88.7535L115.679 88.5427C116.196 88.198 116.879 88.214 117.477 88.4837L118.074 88.7533C119.187 89.2524 120.284 89.7129 121.488 89.9651C121.576 89.9835 121.663 90.0006 121.751 90.0165C121.833 90.0316 121.917 90.0457 122 90.0587C121.982 89.9767 121.963 89.895 121.944 89.8136C121.923 89.7275 121.903 89.6411 121.881 89.5551C121.858 89.4662 121.834 89.3778 121.809 89.2898C121.713 88.9388 121.604 88.591 121.475 88.2504C120.989 86.9702 120.213 85.7729 119.458 84.6308L119.369 84.4965C119.261 84.3328 119.142 84.1621 119.02 83.9855C118.431 83.138 117.778 82.2183 117.732 81.295C118.513 81.3442 119.167 81.8295 119.743 82.2521C120.533 82.8316 121.265 83.4943 121.929 84.2143C123.217 85.6111 124.374 87.3967 124.881 89.2427C125.171 90.2997 125.043 91.4371 124.498 92.2542ZM103.886 81.7236L103.886 81.6859C103.889 80.62 104.51 78.1864 106.045 78.1864C107.004 78.1864 107.586 79.8427 107.687 81.55L107.69 81.6196C107.735 82.6811 107.443 85.0014 106.045 85.0014C104.631 85.0014 103.901 82.8038 103.886 81.7236ZM126.487 81.3893L126.487 81.3516C126.485 80.2857 125.864 77.8521 124.329 77.8521C123.394 77.8521 122.817 79.4266 122.695 81.0878L122.687 81.2157C122.626 82.2414 122.899 84.6671 124.329 84.6671C125.742 84.6671 126.473 82.4695 126.487 81.3893ZM109.056 74.5101C108.853 74.534 108.651 74.5652 108.448 74.5973C107.858 74.6913 107.271 74.8042 106.688 74.9357C105.58 75.1856 104.482 75.5011 103.404 75.8577C102.396 76.1915 101.403 76.5687 100.411 76.9459C100.358 76.966 100.305 76.9862 100.252 77.0063C99.9016 77.1395 99.5524 77.2887 99.2021 77.4384C98.669 77.6662 98.1334 77.8956 97.5869 78.0685C99.0268 76.0784 101.246 74.6038 103.38 73.5486C104.599 72.9466 105.891 72.4611 107.191 72.0633L107.915 71.8459C108.981 71.5315 110.146 71.2411 111.147 71.868C111.543 72.1159 111.796 72.5012 111.876 72.9179C111.954 73.3264 111.865 73.7645 111.583 74.1301C111.337 74.4486 111.03 74.6299 110.704 74.6921C110.344 74.7607 109.963 74.6854 109.615 74.5C109.337 74.4793 109.255 74.4867 109.173 74.4959L109.056 74.5101ZM125.093 74.7125C124.379 74.5575 123.673 74.4953 122.941 74.5176C122.61 74.5275 122.289 74.5786 121.97 74.6301C121.474 74.7099 120.98 74.7925 120.446 74.6955C120.167 74.6449 119.929 74.4819 119.746 74.2691C119.531 74.0204 119.39 73.7024 119.344 73.4001C119.297 73.0879 119.344 72.8148 119.459 72.5736C119.596 72.2887 119.826 72.0486 120.104 71.8383C120.945 71.2017 122.389 71.3548 123.382 71.4835C124.363 71.611 125.338 71.9151 126.206 72.3981C127.061 72.8749 127.805 73.5171 128.386 74.3021C128.875 74.9638 129.106 75.7253 129.344 76.5007C128.224 75.5619 126.511 75.0203 125.093 74.7125Z" fill="black"/>
<path fill-rule="evenodd" clip-rule="evenodd" d="M122.945 97.5957C123.403 98.0654 123.843 98.5685 124.258 99.0883C124.373 99.914 124.4 100.75 124.295 101.612C124.141 102.863 123.8 104.084 123.338 105.258C123.066 105.219 122.796 105.143 122.534 105.022C121.701 104.639 121.236 103.869 120.673 103.189C119.551 101.836 117.504 101.037 116.073 102.44C115.45 103.05 115.052 103.894 114.497 104.564C113.887 105.301 113.201 106.002 112.486 106.637C112.397 106.717 112.305 106.804 112.21 106.889C111.812 106.435 111.42 105.977 111.038 105.512C109.899 104.128 108.916 102.595 108.399 100.867C108.235 100.319 108.133 99.7469 108.093 99.1702C108.6 98.5417 109.178 97.9701 109.835 97.497C111.817 96.0679 114.099 95.8356 116.474 95.7119C118.93 95.5848 121.143 95.752 122.945 97.5957ZM128.938 104.227C128.843 103.271 128.696 102.276 128.478 101.283C127.684 97.5991 125.963 93.9268 122.514 92.2436C120.882 91.4463 119.027 91.1655 117.268 91.5499C114.181 90.3949 110.753 91.5733 108.323 93.6861C105.457 96.1783 104.135 100.09 103.69 103.754C103.38 106.303 103.264 109.708 103.987 111.558C104.711 113.407 109.309 118.353 115.873 118.388C125.223 118.437 127.495 112.135 127.771 111.583C128.923 109.29 129.191 106.757 128.938 104.227Z" fill="black"/>
<path fill-rule="evenodd" clip-rule="evenodd" d="M132.422 86.0958C130.887 88.0129 124.877 90.1408 121.679 87.8308C118.481 85.5208 117.217 83.911 116.789 81.0246C116.744 80.7168 116.187 80.5121 115.952 80.7306C114.634 81.9542 113.781 83.5126 112.936 85.075C111.982 86.8371 111.044 88.6101 109.311 89.803C106.243 91.4469 100.692 91.6811 99.0525 90.9559C95.9112 89.5667 93.4262 86.5958 92.8611 82.5074C92.8611 82.5074 92.2863 80.6938 91.7828 80.3122C91.3055 79.9505 88.6714 79.6282 88.3828 79.5747C83.1825 78.6102 76.6054 77.9953 71.9736 81.3887C71.3468 81.7674 69.2009 83.1903 69.1692 82.8404C69.1467 81.4699 70.7005 78.368 74.2341 76.8921C78.6038 75.0669 85.0994 74.9601 88.8625 75.3629C89.0517 75.3832 89.6969 75.2247 89.7425 75.205C95.4435 72.7377 102.003 73.393 108.103 74.43C108.978 74.5995 116.803 76.5364 119.916 75.3629C125.062 73.2628 130.549 71.7414 136.106 72.34C136.153 72.345 136.854 76.6017 136.308 76.8921C135.873 77.1232 135.133 77.7153 134.87 78.0394C134.635 78.3291 134.487 78.6893 134.5 79.1883C134.606 82.0749 133.782 84.3974 132.422 86.0958ZM111.262 83.5205C111.914 82.5769 112.12 80.4573 111.847 78.9109C111.709 78.128 111.44 77.5048 111.103 77.1945C110.879 76.9883 110.623 76.8912 110.345 76.9056C110.192 76.9135 110.026 76.957 109.851 77.0515C107.477 75.7682 104.602 75.3061 101.877 75.439C99.7072 75.4386 98.1592 75.9505 97.1095 76.7474C95.8463 77.7062 95.2773 79.0845 95.2443 80.5793C95.2053 82.3531 95.9342 84.2935 97.1299 85.829C98.2744 87.2986 99.8401 88.3881 101.539 88.6395C103.467 89.0221 105.432 88.6519 107.14 87.7465C108.892 86.8179 110.372 85.3264 111.262 83.5205ZM130.288 84.521C131.388 83.222 132.119 81.5321 132.23 79.8577C132.331 78.3338 131.923 76.8244 130.795 75.577C129.771 74.6991 127.963 74.6846 126.061 75.1734C123.602 75.8056 121.057 77.2183 120.209 78.1307C120.009 78.2354 119.824 78.4178 119.662 78.8089L119.661 78.9483C119.404 80.1329 119.557 81.3349 120.001 82.4438C120.484 83.6483 121.312 84.7418 122.322 85.5761C123.663 86.6806 125.063 87.0187 126.374 86.8404C127.858 86.6383 129.239 85.76 130.288 84.521Z" fill="#AE5D29"/>
<path fill-rule="evenodd" clip-rule="evenodd" d="M119.739 74.8939C124.95 72.7671 130.521 71.2342 136.16 71.8416C136.627 71.6643 137.206 71.8137 137.412 72.4729C139.421 78.5898 134.941 76.8887 135.002 79.1753C135.471 91.9963 118.232 94.1858 116.293 81.0982L116.258 81.1193C113.469 83.7206 112.881 87.9537 109.596 90.2161C102.969 95.061 93.5741 91.2224 92.3674 82.5974L92.3411 82.4807C91.9361 80.7205 91.4518 80.2841 89.4541 80.2927L89.1386 80.2301C83.9482 79.2079 77.0366 78.2893 72.256 81.8046C71.2163 82.409 71.1675 83.9628 70.2889 84.638C69.3264 84.8248 68.7334 83.6677 68.6682 82.8668C68.5157 74.8832 82.8079 74.3089 89.2087 74.9941C89.3309 74.8675 89.5919 74.8832 89.6799 75.0409C95.4687 72.5356 101.99 72.8823 108.188 73.9358C112.028 74.6788 115.82 76.3712 119.739 74.8939ZM135.641 73.3156C132.514 73.1593 129.622 73.3303 126.552 74.0817C124.934 74.4718 123.693 74.9651 122.145 75.5583C112.486 79.8355 111.372 72.2327 89.7229 75.213C90.003 76.4121 90.0545 77.5994 90.0695 78.726C94.4899 78.5479 93.4492 82.767 95.1053 85.7306L95.1563 85.82C97.5699 90.1438 103.265 92.1607 107.86 89.2927C111.693 87.0596 112.067 81.3957 115.883 79.1478C119.191 79.0178 117.87 83.4807 119.67 85.315C122.204 88.695 127.59 89.1675 130.768 85.9883C132.258 84.4585 133.051 82.5163 133.095 80.4295C133.178 79.0964 132.949 77.7416 133.957 76.8039C134.664 76.0861 135.92 76.3257 136.064 75.2407C136.156 74.5992 135.889 73.9033 135.641 73.3156ZM101.656 75.063C104.762 74.9101 108.049 75.4493 110.716 76.9722C112.69 75.4016 113.174 81.6434 111.864 83.4488C109.976 87.3103 105.58 89.8491 101.348 89.006C94.7448 88.0496 90.1442 75.0515 101.656 75.063ZM110.527 77.3906L110.358 77.366C107.496 76.9295 99.7047 74.9076 96.6996 78.0989C93.7831 83.3923 101.182 92.2837 108.882 85.2016C111.025 83.0208 111.855 80.3763 110.527 77.3906ZM119.595 78.0674C121.077 76.3135 128.629 72.7609 131.262 75.0406C136.066 80.423 128.447 91.31 122.065 86.0059C119.939 84.2329 118.54 81.4081 119.152 78.6726L119.153 78.558C119.155 78.5164 119.162 78.5259 119.207 78.4741C119.286 78.2673 119.427 78.1352 119.595 78.0674ZM131.195 81.3296C132.815 72.5447 126.043 75.8843 120.481 78.2291C120.78 78.5017 120.778 78.874 120.693 79.1799C120.106 85.6981 128.032 89.3918 131.195 81.3296ZM89.0964 75.4211C86.7766 76.2063 71.4325 74.8019 70.015 81.9917C71.5112 79.5686 74.6101 78.6069 77.396 78.0851C81.1853 77.3752 84.9539 77.7862 88.6901 78.5332L88.7673 77.7603C88.8501 76.9405 88.9375 76.1735 89.0964 75.4211Z" fill="black"/>
</svg>
