<svg width="191" height="257" viewBox="0 0 191 257" fill="none" xmlns="http://www.w3.org/2000/svg">
<rect x="102.149" y="153.444" width="38.2931" height="47.1364" fill="#FF734F"/>
<path fill-rule="evenodd" clip-rule="evenodd" d="M90.9795 107.34C95.1073 104.198 105.47 102.785 109.876 105.81C114.227 108.848 114.702 113.761 116.729 118.28C118.642 117.378 121.802 118.67 122.356 120.444C123.044 121.281 123.075 123.633 123.55 124.758C144.191 128.042 147.325 144.128 149.81 162.391C153.097 180.923 160.558 199.414 157.319 218.484C157.741 219.094 158.074 219.687 158.381 220.392C159.119 221.646 158.169 223.421 156.682 223.352C154.757 223.183 152.851 222.953 150.917 222.881C145.557 222.694 140.191 222.717 134.828 222.785L134.096 222.794C107.068 223.131 80.0417 223.793 53.0125 223.969C52.0319 223.971 51.5519 223.092 51.6828 222.224C51.9465 220.478 52.1911 218.732 52.4465 216.985C46.0534 218.673 39.2569 219.098 32.8819 217.163C32.4359 216.708 33.921 216.955 34.1566 216.886C28.2896 212.878 30.0417 204.436 30.5614 198.355C33.7931 177.52 34.9323 154.467 47.4184 136.688C52.82 129.432 60.7393 123.687 69.8392 122.395L70.0917 122.36C72.7525 122.005 75.7179 121.891 78.0443 120.444C80.6608 118.356 81.7758 114.498 84.5285 114.462C85.4374 114.45 86.6739 115.6 88.0045 116.38C88.1038 114.664 89.0294 113.215 89.2337 111.884L89.2503 111.77C89.4635 110.218 89.1715 108.822 90.9795 107.34ZM135.341 162.941C129.54 158.913 114.555 160.937 114.212 161.163C113.456 161.659 113.131 161.703 112.722 162.348C112.319 162.402 111.916 162.457 111.513 162.514C110.706 162.778 111.304 163.771 112.237 163.417C111.676 165.836 113.328 167.557 113.985 169.949C114.199 170.725 113.993 172.122 113.985 172.915C114.049 173.927 115.168 175.122 114.982 176.137C114.319 179.746 110.72 183.266 112.237 186.766C113.242 188.742 116.265 189.75 118.275 190.422C122.438 192.019 129.693 190.362 132.112 186.766C133.402 184.848 134.897 180.009 135.667 178.508L135.837 176.127C136.258 170.209 136.632 163.838 135.341 162.941Z" fill="#EDB98A"/>
<path fill-rule="evenodd" clip-rule="evenodd" d="M84.3139 114.473L85.974 115.491L95.6155 120.256C97.4846 120.779 98.4192 121.406 98.4192 122.136V129.578C98.4192 130.574 100.173 132.831 103.681 136.349L106.922 133.119L106.85 132.696C106.541 130.874 106.387 129.655 106.387 129.04C106.387 128.378 109.558 125.865 115.9 121.5L118.674 118.889L118.378 117.99C120.089 118.071 121.944 119.124 122.356 120.444C123.044 121.281 123.075 123.633 123.55 124.758C144.191 128.042 147.325 144.128 149.81 162.391C153.097 180.923 160.558 199.414 157.319 218.484C157.741 219.094 158.074 219.687 158.381 220.392C159.119 221.646 158.169 223.421 156.682 223.352C154.757 223.183 152.851 222.953 150.917 222.881C145.557 222.695 140.191 222.717 134.828 222.785L134.096 222.794C107.068 223.131 80.0417 223.793 53.0125 223.969C52.0319 223.971 51.5519 223.092 51.6828 222.224C51.9465 220.478 52.1911 218.732 52.4465 216.985C46.0534 218.673 39.2569 219.098 32.8819 217.163C32.4359 216.708 33.921 216.955 34.1566 216.886C28.2896 212.878 30.0417 204.436 30.5614 198.355C33.7931 177.52 34.9323 154.467 47.4184 136.688C52.82 129.432 60.7393 123.687 69.8392 122.395L70.0917 122.36L70.346 122.327C72.9401 121.997 75.7917 121.845 78.0443 120.444C80.5917 118.412 81.7159 114.701 84.3139 114.473ZM107.416 158.15C106.47 158.15 104.534 159.618 101.606 162.554L101.348 162.673C97.8088 164.316 95.4642 165.742 94.3142 166.95L94.2732 166.993C93.1114 168.239 90.8107 171.552 87.3712 176.932L82.3903 179.876H80.5057L79.1639 189.605L82.3903 196.552L89.6984 194.091L101.606 190.954L108.439 184.024L112.293 182.731C111.826 184.081 111.656 185.425 112.237 186.766C113.242 188.742 116.265 189.75 118.274 190.422C122.438 192.019 129.693 190.362 132.112 186.766C133.402 184.847 134.897 180.009 135.666 178.508L135.887 175.415C136.285 169.708 136.58 163.802 135.34 162.941C129.539 158.913 114.554 160.937 114.211 161.163C113.456 161.659 113.131 161.703 112.722 162.348L112.511 162.376L113.7 160.764L113.279 160.539C110.274 158.947 108.32 158.15 107.416 158.15ZM112.237 163.417C111.7 165.733 113.191 167.409 113.896 169.646L112.094 166.199L112.094 163.462C112.141 163.45 112.189 163.435 112.237 163.417Z" fill="white"/>
<path fill-rule="evenodd" clip-rule="evenodd" d="M83.518 114.113C83.9185 113.759 84.5111 114.204 84.2566 114.683C83.6847 115.759 83.0981 116.779 82.3306 117.731C81.8652 118.307 81.3667 118.853 80.8616 119.392C82.158 120.514 83.2698 121.905 84.3198 123.21C85.6624 124.878 86.9318 126.617 88.4389 128.144C89.9253 129.649 91.5688 130.702 93.556 131.404L93.9573 131.543C95.9536 132.243 98.0872 133.19 99.2125 135.079C99.4344 135.451 98.9876 135.912 98.612 135.679C96.6567 134.469 94.3593 134.226 92.2309 133.426C90.175 132.654 88.3827 131.465 86.7992 129.948C85.2183 128.433 83.8909 126.71 82.5063 125.023C81.1371 123.355 79.6629 121.93 78.0434 120.519C75.5443 122.2 72.6915 122.931 69.7908 123.649L69.4741 123.727C66.5699 124.446 63.6812 125.281 60.9565 126.532C58.5543 127.636 56.1915 128.953 54.2347 130.749C52.1575 132.655 50.5408 135.088 49.0611 137.468C45.7512 142.793 43.4242 148.627 41.3756 154.531C39.2449 160.672 37.4627 166.937 36.0239 173.276C35.2922 176.5 34.6979 179.747 34.2094 183.017C33.9743 184.592 33.7655 186.17 33.582 187.752C33.3862 189.441 33.3412 191.179 32.8228 192.803C32.6006 193.499 32.0759 193.788 31.5506 193.763L31.444 195.097C31.3025 196.875 31.1706 198.654 31.1261 200.443C31.0522 203.418 31.0857 206.384 31.2998 209.353L31.3301 209.758C31.4983 211.924 31.8742 214.359 33.5041 215.945C35.192 217.588 37.7877 218.105 40.0627 218.134C45.3614 218.203 50.4619 215.701 55.1507 213.505C59.9796 211.244 64.6766 208.734 69.2611 206.013C71.5958 204.626 73.9053 203.194 76.1853 201.72C77.3042 200.996 78.4152 200.261 79.5178 199.513C80.1494 199.085 80.7479 198.615 81.3908 198.235C81.0758 197.942 80.9351 197.481 81.199 197.079C79.3404 195.466 78.5668 192.588 78.4764 190.26C78.4033 188.38 78.68 186.506 78.8984 184.644C79.0086 183.705 79.1447 182.768 79.286 181.833C79.3419 181.464 79.3845 181.069 79.4497 180.679C74.431 183.436 69.2716 185.891 63.9757 188.072C61.261 189.19 58.5116 190.195 55.7243 191.117L55.1593 191.302C52.5183 192.166 49.814 192.983 47.0837 193.477C46.9378 193.503 46.8192 193.288 46.9751 193.219C49.6358 192.046 52.3888 191.056 55.0895 189.975L55.5333 189.794C55.4823 189.791 55.4295 189.784 55.3743 189.771C53.7904 189.389 52.2189 188.8 50.6654 188.304C49.2236 187.844 47.6038 187.555 46.2562 186.861C46.1525 186.807 46.2105 186.663 46.3115 186.656C47.8262 186.551 49.4705 186.992 50.9555 187.252L51.5134 187.35C52.448 187.514 53.4033 187.691 54.3333 187.922C54.367 187.611 54.541 187.298 54.7887 187.115C57.5138 185.098 57.2371 181.023 57.5286 178.019L57.7447 175.788C58.1248 171.884 58.527 167.981 59.138 164.106C59.1706 163.899 59.4909 163.959 59.4922 164.154C59.5237 168.957 59.161 173.738 58.9792 178.533L58.951 179.32C58.8505 182.279 58.7717 185.352 56.9073 187.629C57.168 187.476 57.5205 187.476 57.7317 187.727C57.9912 188.036 58.1411 188.383 58.1364 188.723C59.8211 188.017 61.4985 187.292 63.1677 186.553C68.5342 184.177 73.7882 181.517 78.9033 178.64C79.4538 178.33 79.977 178.573 80.2492 178.982L80.2885 178.976C80.2951 178.975 80.3017 178.974 80.3086 178.974L80.3475 178.973C80.349 178.973 80.3505 178.973 80.3519 178.973C81.0719 178.577 82.0528 178.859 82.6707 179.436C82.6889 179.453 82.7045 179.472 82.7207 179.49C83.503 179.139 84.2334 178.665 84.8962 178.065C86.2527 176.836 87.4017 175.316 88.4033 173.793C90.2479 170.986 91.8147 167.865 94.3064 165.555C96.331 163.678 98.8409 162.51 101.474 161.776C101.463 161.699 101.492 161.617 101.546 161.563C101.681 161.424 101.777 161.376 101.952 161.46C101.966 161.467 101.974 161.476 101.98 161.486L102.237 161.048C102.377 160.809 102.521 160.57 102.571 160.507C102.87 160.13 103.178 159.757 103.49 159.391C104.02 158.772 104.623 158.162 105.322 157.732C106.852 156.793 108.461 157.325 110.034 157.838C110.984 158.148 111.931 158.469 112.88 158.784L112.978 158.816C113.686 159.043 114.513 159.242 114.83 159.991C114.955 160.288 114.974 160.595 114.916 160.894C121.636 159.186 129.099 159.971 135.656 161.976C135.908 162.053 136.159 162.26 136.212 162.531C136.963 166.383 137.298 170.332 136.958 174.249C136.665 177.63 135.915 180.944 134.503 184.039L134.423 184.214C133.095 187.083 130.992 190.619 127.779 191.518C125.839 192.061 123.693 191.741 121.715 191.642C119.792 191.545 117.827 191.531 115.922 191.229C114.226 190.959 112.739 190.199 111.691 188.821C110.787 187.631 110.311 186.194 109.92 184.764C109.742 184.821 109.564 184.881 109.39 184.949C108.653 185.237 108.029 185.701 107.464 186.248C106.272 187.402 105.347 188.803 104.1 189.905C102.971 190.901 101.684 191.677 100.304 192.273C97.4446 193.508 94.3768 194.001 91.352 194.656L91.141 194.702C88.8638 195.201 86.5395 195.815 84.5295 197C84.4902 197.349 84.3312 197.677 84.0763 197.892C84.4308 198.225 84.581 198.752 84.2695 199.246C83.3993 200.626 81.9004 201.412 80.5548 202.295L80.4673 202.352C79.1436 203.23 77.8083 204.089 76.4622 204.932C73.7257 206.644 70.932 208.263 68.0988 209.81C63.5419 212.298 58.8872 214.645 54.1482 216.775C54.4327 218.173 54.3287 219.616 54.5425 221.024L54.5753 221.225C54.6666 221.747 54.5433 222.185 54.1832 222.526L54.1451 222.561L54.1457 222.556L54.1119 222.587L54.1007 222.597L54.1044 222.594C54.0629 222.632 54.0201 222.667 53.9764 222.697L53.9208 222.733C53.574 222.944 53.1274 222.941 52.7723 222.755L52.7317 222.733L52.6635 222.694C52.1943 222.424 51.8707 221.756 52.0654 221.225C52.5438 219.92 52.7245 218.527 53.1663 217.213L52.8158 217.37L52.3539 217.571C47.3577 219.73 41.808 221.549 36.3644 220.077C33.9591 219.426 31.711 218.05 30.5075 215.806C29.3233 213.599 29.1559 211.036 29.093 208.581C29.0154 205.55 29.178 202.473 29.5778 199.469C29.8462 197.452 30.1708 195.397 30.6714 193.401C30.4139 193.174 30.2246 192.848 30.1746 192.444C29.9383 190.538 30.3519 188.556 30.605 186.66C30.8523 184.808 31.1256 182.96 31.4346 181.118C32.0585 177.397 32.7834 173.684 33.6273 170.007C35.1293 163.463 37.1127 157.035 39.5006 150.761L39.7097 150.215C41.9162 144.48 44.471 138.868 48.0285 133.83C49.7303 131.419 51.5293 129.234 53.9339 127.497C56.1866 125.87 58.7277 124.698 61.35 123.802C63.9752 122.906 66.6734 122.306 69.4193 121.932C72.208 121.553 75.1516 121.32 77.753 120.177C77.4239 119.587 77.7063 118.791 78.2601 118.425C80.124 117.194 81.8475 115.593 83.518 114.113ZM143.183 167.638C143.261 167.52 143.446 167.595 143.412 167.735C142.506 171.447 141.655 175.167 141.099 178.95C140.096 185.778 140.28 192.695 140.362 199.574L140.366 199.93C140.409 203.635 140.467 207.34 140.59 211.044C140.652 212.915 140.774 214.805 140.707 216.678C140.671 217.694 140.4 218.655 140.304 219.659C140.22 220.537 140.295 221.428 140.337 222.307C140.365 222.891 139.502 222.866 139.444 222.307L139.369 221.583C139.271 220.667 139.151 219.757 138.85 218.881C138.489 217.826 138.316 216.791 138.191 215.684C137.999 213.988 137.914 212.275 137.84 210.567L137.789 209.385C137.48 202.247 137.491 195.076 137.991 187.945L138.028 187.436C138.523 180.696 139.383 173.413 143.183 167.638ZM123.86 125.158C123.623 125.06 123.706 124.702 123.968 124.765L124.445 124.878C127.939 125.715 131.369 126.621 134.631 128.178C137.894 129.735 140.657 132.061 142.852 134.92C147.119 140.478 148.893 147.232 150.293 153.981C151.848 161.479 153.265 169.005 154.834 176.501L155.126 177.898C156.578 184.879 157.949 191.865 158.959 198.93L159.032 199.442C160.05 206.707 160.663 214.223 159.552 221.506C159.332 222.947 156.933 222.588 157.027 221.165C157.297 217.049 157.491 212.955 157.304 208.83C157.116 204.704 156.729 200.596 156.152 196.507C155.667 193.065 154.943 189.666 154.302 186.252L154.202 185.713C153.665 182.809 153.112 179.908 152.56 177.006L151.736 172.662C150.5 166.158 149.24 159.648 147.816 153.185L147.731 152.804C146.338 146.586 144.284 140.072 140.104 135.134C135.863 130.123 129.791 127.599 123.86 125.158ZM108.447 191.115C108.549 190.888 108.906 190.912 109.016 191.115C109.446 191.907 109.493 192.919 109.575 193.814L109.583 193.906C109.687 194.998 109.778 196.094 109.834 197.189C109.94 199.269 109.991 201.345 109.985 203.427C109.978 205.56 109.935 207.691 109.82 209.822L109.789 210.393C109.684 212.244 109.507 214.309 108.627 215.927C108.307 216.516 107.437 216.343 107.252 215.748C106.645 213.799 106.957 211.489 107.113 209.494L107.233 207.937C107.353 206.38 107.467 204.822 107.558 203.263C107.682 201.13 107.784 198.995 107.883 196.861C107.915 196.168 107.949 195.475 107.986 194.782L108.042 193.742C108.09 192.873 108.086 191.919 108.447 191.115ZM40.1974 193.876L40.4661 193.617C41.291 192.81 42.3334 191.567 43.5529 191.644C44.0392 191.675 44.349 192.078 44.2482 192.556C44.0328 193.579 42.9895 194.109 42.2385 194.733C41.4158 195.417 40.6404 196.147 39.8666 196.885C39.18 197.539 38.5197 198.212 37.8753 198.905L37.6344 199.167C37.4034 199.418 35.7584 200.906 35.9363 201.292L35.9459 201.309C35.9954 201.383 35.913 201.484 35.8309 201.458C35.1206 201.234 35.1649 200.626 35.4334 200.009C35.9495 198.824 36.8531 197.728 37.6422 196.716C38.4292 195.707 39.281 194.767 40.1974 193.876ZM111.021 164.164C110.472 162.867 108.449 162.894 107.3 162.972C104.407 163.167 101.277 163.899 98.703 165.25C96.0344 166.651 94.2368 168.897 92.6284 171.379L92.5532 171.496C90.9855 173.932 89.4757 176.815 87.0209 178.49C85.7706 179.343 84.3106 180.122 82.7936 180.46C82.6894 180.643 82.5207 180.788 82.2995 180.84L82.1966 180.864C81.7646 180.959 81.0934 181.065 80.5136 181.002C80.5174 181.285 80.5144 181.566 80.5216 181.835C80.542 182.605 80.5507 183.378 80.5507 184.148C80.5511 185.762 80.4643 187.379 80.5317 188.993C80.5914 190.42 80.793 191.911 81.4786 193.187C81.9814 194.123 82.6451 194.743 83.4463 195.334C85.4171 194.133 87.6456 193.402 89.9074 192.851C92.6428 192.186 95.4435 191.742 98.1167 190.839C99.4033 190.405 100.64 189.837 101.761 189.065C102.95 188.245 103.859 187.135 104.794 186.05L104.94 185.882C105.894 184.788 106.935 183.742 108.283 183.149C109.444 182.638 110.974 182.547 111.989 181.757C112.52 181.343 112.564 180.743 112.62 180.129C111.97 180.222 111.282 180.073 110.634 179.997L110.298 179.958C109.685 179.885 109.087 179.805 108.484 179.649C108.372 179.62 108.372 179.451 108.484 179.422C109.196 179.238 109.903 179.16 110.634 179.074L110.806 179.053C111.467 178.966 112.162 178.835 112.81 178.981C112.927 178.538 113.095 178.116 113.331 177.692C113.662 177.098 114.288 176.424 114.372 175.729C114.398 175.522 114.349 175.277 114.251 175.094L114.218 175.031C114.177 174.958 114.128 174.883 114.057 174.837C114.049 174.847 114.032 174.857 113.996 174.868C113.497 175.026 113.061 174.781 112.83 174.405C111.849 174.527 110.778 174.486 109.858 174.526L108.928 174.571C107.934 174.617 106.895 174.637 105.961 174.436C105.83 174.408 105.791 174.191 105.922 174.135C107.07 173.644 108.463 173.488 109.692 173.299C110.379 173.194 111.07 173.114 111.759 173.021C112.218 172.959 112.704 172.857 113.179 172.832C114.37 171.35 113.729 169.012 112.071 168.374C111.467 168.639 110.924 168.485 110.264 168.428C109.606 168.372 108.946 168.333 108.285 168.336C106.96 168.342 105.556 168.69 104.244 168.54C104.03 168.516 103.832 168.232 104.044 168.059C105.049 167.24 106.488 166.973 107.763 166.798L108.027 166.763C108.454 166.707 108.974 166.625 109.513 166.576C109.635 166.339 109.854 166.159 110.182 166.114C110.28 166.101 110.378 166.093 110.476 166.085L110.475 166.075C111.276 166.037 111.241 164.684 111.021 164.164ZM56.1623 189.475C56.1481 189.497 56.1326 189.518 56.1161 189.538L56.0907 189.567L56.2225 189.514L56.1623 189.475ZM125.005 161.265C121.632 160.902 118.255 160.979 114.872 161.076C114.601 161.961 113.659 162.714 112.747 162.743C113.462 163.83 113.535 165.302 113.034 166.455C114.098 166.878 115.015 167.639 115.571 168.722C116.343 170.223 116.242 171.894 115.479 173.282C116.13 173.871 116.515 174.828 116.476 175.729C116.433 176.735 115.834 177.593 115.335 178.426C114.797 179.326 114.779 180.119 114.614 181.127C114.372 182.603 113.376 183.498 112.095 184.056L112.163 184.324C112.493 185.609 112.904 186.965 113.848 187.905C115.063 189.114 116.947 189.103 118.551 189.179L118.628 189.183C120.097 189.256 121.566 189.342 123.035 189.426L124.136 189.487C125.827 189.58 127.451 189.591 128.831 188.474C131.085 186.65 132.63 183.631 133.608 180.959C135.66 175.35 135.685 169.195 134.743 163.353C131.583 162.335 128.305 161.619 125.005 161.265ZM96.956 170.57L96.9808 170.572C97.6752 170.651 98.1523 171.213 98.3222 171.88C98.569 172.849 98.4479 173.725 99.0417 174.6C99.6526 175.5 100.028 176.22 100.117 177.331C100.153 177.789 100.137 178.245 100.239 178.692L100.312 179.006C100.391 179.34 100.455 179.663 100.416 180.022C100.38 180.349 100.221 180.604 99.8922 180.709C98.8215 181.051 97.9948 180.263 97.7182 179.265C97.4792 178.404 97.7983 177.377 97.4612 176.568C97.2744 176.12 96.9299 175.745 96.7353 175.293C96.5425 174.846 96.4456 174.378 96.4147 173.892C96.356 172.972 97.17 171.867 96.7159 171.033C96.6192 170.855 96.7287 170.565 96.956 170.57ZM82.7336 161.076C83.4586 160.929 84.2812 160.592 84.9962 160.872C85.3638 161.016 85.5454 161.464 85.2348 161.776C84.6957 162.316 83.9121 162.346 83.186 162.474L83.122 162.485C82.2634 162.644 81.4032 162.794 80.5419 162.937C78.9213 163.206 77.297 163.443 75.6669 163.644C73.9927 163.851 72.3139 164.036 70.6326 164.174L69.9818 164.228C68.5616 164.341 67.0839 164.427 65.6905 164.21C65.488 164.178 65.5206 163.883 65.6905 163.832C67.217 163.37 68.8916 163.246 70.4698 163.051C72.1476 162.842 73.8227 162.623 75.4934 162.362C77.1614 162.101 78.8272 161.822 80.4868 161.513C81.237 161.374 81.986 161.228 82.7336 161.076ZM108.896 159.594C108.259 159.368 107.559 159.035 106.87 159.146C105.681 159.339 104.623 160.497 103.682 161.259L104.154 161.168C106.572 160.703 109.774 160.203 111.804 161.739C111.809 161.73 111.813 161.722 111.819 161.713C111.983 161.464 112.173 161.27 112.38 161.057C112.4 161.038 112.419 161.019 112.438 161L112.549 160.881L112.294 160.792C111.746 160.599 111.097 160.349 110.995 160.312L110.988 160.31C110.289 160.073 109.591 159.84 108.896 159.594ZM89.0297 108.934C88.9302 107.655 90.9219 107.666 91.0206 108.934C91.2358 111.704 90.6123 114.448 89.2702 116.876C89.2603 116.893 89.2494 116.909 89.2391 116.926C90.0785 117.363 90.9275 117.781 91.7953 118.156C92.9055 118.635 94.0366 119.071 95.1879 119.441C96.2293 119.776 97.5124 119.908 98.3879 120.605C100.234 122.075 99.5406 125.125 99.1854 127.102L99.13 127.414C98.9531 128.431 98.8252 129.475 99.2543 130.451C99.7125 131.494 100.639 132.267 101.466 133.014L101.633 133.165C102.365 133.832 103.201 134.642 103.739 135.546C104.229 134.533 104.897 133.705 105.604 132.772C106.108 132.107 105.749 131.888 105.387 131.238C105.038 130.613 104.868 129.946 104.977 129.232C105.178 127.914 106.232 126.962 107.281 126.247C108.519 125.403 109.902 124.777 111.182 123.992C113.813 122.378 116.375 120.533 118.684 118.484C118.748 118.428 118.858 118.502 118.807 118.579C116.983 121.352 114.845 123.747 112.217 125.781C111.152 126.606 110.033 127.29 108.906 128.009L108.582 128.216C108.129 128.509 107.565 128.901 107.36 129.4C107.155 129.901 107.593 130.28 107.83 130.696C108.58 132.015 108.218 133.246 107.329 134.365L107.287 134.417C106.403 135.506 105.733 136.518 105.413 137.909C104.725 140.898 105.683 144.01 106.687 146.815L106.727 146.926C107.27 148.438 107.847 149.939 108.319 151.475L108.448 151.9C108.876 153.313 109.226 154.708 108.746 156.161C108.583 156.655 107.909 156.772 107.629 156.307C106.641 154.666 106.394 152.692 105.775 150.889C105.171 149.131 104.478 147.405 103.895 145.64C103.144 143.368 102.642 140.922 102.915 138.538C102.907 138.524 102.898 138.511 102.891 138.496L102.7 138.078C102.179 136.947 101.675 135.959 100.727 135.057C99.7389 134.116 98.6658 133.283 97.8879 132.144C96.1983 129.67 97.2432 126.918 97.4473 124.213L97.4707 123.881C97.5078 123.319 97.5281 122.556 97.161 122.167C96.7482 121.73 95.78 121.618 95.2322 121.424C93.8165 120.923 92.4214 120.34 91.0927 119.639C89.8278 118.972 88.6026 118.236 87.4619 117.372L86.8837 116.938C85.9714 116.25 85.0254 115.498 84.414 114.562C84.3434 114.454 84.4633 114.28 84.5911 114.331C85.6118 114.745 86.5443 115.404 87.4993 115.977C87.5142 115.942 87.5314 115.907 87.551 115.871C88.7326 113.734 89.2185 111.366 89.0297 108.934ZM121.634 123.579C122.041 122.465 123.894 122.551 123.821 123.875C123.764 124.893 123.332 125.811 122.937 126.735L122.894 126.834C122.486 127.797 122.015 128.701 121.451 129.583C120.374 131.269 119.112 132.834 117.764 134.312C116.542 135.651 114.938 136.47 113.09 136.334C112.311 136.276 111.525 136.078 110.842 135.689C110.032 135.227 109.152 133.84 108.118 134.176C108.018 134.209 107.924 134.062 108.011 133.993C109.204 133.032 110.559 134.522 111.702 134.881C113.425 135.422 115.192 134.824 116.3 133.432C117.458 131.979 118.523 130.352 119.496 128.77C119.99 127.967 120.44 127.133 120.83 126.274C121.222 125.406 121.312 124.464 121.634 123.579ZM118.858 116.719C118.808 116.565 118.999 116.419 119.135 116.507C119.919 117.017 120.599 117.692 121.322 118.283C122.125 118.939 122.934 119.581 123.755 120.214C124.952 121.137 123.564 122.835 122.51 121.827C121.068 120.449 119.489 118.646 118.858 116.719ZM114.551 111.324C114.87 110.095 116.755 110.602 116.48 111.816L116.471 111.853C115.951 113.858 116.692 115.899 118.274 117.199L118.332 117.247C119.332 118.047 117.915 119.447 116.924 118.654C114.761 116.923 113.861 113.984 114.551 111.324Z" fill="black"/>
<path fill-rule="evenodd" clip-rule="evenodd" d="M106.118 47.6669C131.233 48.4634 132.748 60.4133 132.748 80.4538C132.748 100.494 119.719 113.123 114.922 115.328C110.125 117.533 97.4923 127.004 86.0925 122.64C74.6926 118.275 77.9939 99.8343 77.9939 91.9109C77.9939 83.9876 81.0025 46.8704 106.118 47.6669Z" fill="#EDB98A"/>
<path fill-rule="evenodd" clip-rule="evenodd" d="M81.8428 79.4708C87.0358 58.2597 96.5157 47.9109 110.283 48.4245C130.933 49.1948 130.715 70.2785 129.42 68.3561C128.573 67.1001 122.647 62.7126 111.641 55.1935L110.961 54.7293L81.8428 79.4708Z" fill="#DBC69D"/>
<path fill-rule="evenodd" clip-rule="evenodd" d="M116.306 108.746C111.694 111.325 106.413 111.425 101.452 109.802C98.4764 108.831 95.7483 107.33 93.1951 105.535C90.9741 103.972 88.9918 102.238 87.0278 100.398C85.4108 96.8262 83.971 93.2609 83.2967 89.3746C82.6926 85.8862 82.6125 82.264 83.3133 78.7823C88.4964 74.5116 93.6475 70.2058 98.7918 65.8868C101.412 63.687 104.038 61.4991 106.696 59.3461C108.046 58.2529 109.383 57.143 110.728 56.0448C110.95 55.8643 111.17 55.6838 111.392 55.5033C114.168 57.5392 117.145 59.2844 119.902 61.3535C121.345 62.4383 122.749 63.5933 124.085 64.8084C124.786 65.4454 125.47 66.1023 126.138 66.7759C126.749 67.3912 127.338 68.2736 128.204 68.5061C128.322 68.5377 128.434 68.5443 128.539 68.5293C129.697 78.6853 130.52 89.6521 125.559 98.8754C123.395 102.899 120.326 106.496 116.306 108.746ZM86.3021 112.479C85.667 111.896 86.6135 110.952 87.2459 111.533C91.2183 115.178 96.4115 117.11 101.657 118.004C102.503 118.149 102.143 119.437 101.302 119.293C95.8255 118.36 90.4427 116.278 86.3021 112.479ZM81.5354 118.071C80.7772 117.663 81.4521 116.509 82.2091 116.916C85.3039 118.579 88.6985 119.442 92.1416 120.026C92.9884 120.169 92.6272 121.457 91.7868 121.315C88.2267 120.712 84.7334 119.789 81.5354 118.071ZM94.1311 61.7366C96.6991 59.4281 99.4591 57.2316 102.374 55.3781C105.324 53.5026 108.547 52.381 112.029 52.3543C111.785 52.5499 111.554 52.7672 111.318 52.9692C110.661 53.5327 110.005 54.0994 109.349 54.6643C108.038 55.7959 106.723 56.9257 105.428 58.0759C102.878 60.3424 100.32 62.5973 97.7754 64.8688C92.8846 69.2348 88.099 73.6959 83.4166 78.286C83.4418 78.174 83.4685 78.062 83.495 77.9502C85.0452 71.4646 89.2619 66.1141 94.1311 61.7366ZM114.262 52.6369C114.279 52.5867 114.29 52.5381 114.297 52.4914C120.98 53.364 126.562 58.2897 128.407 64.7753C128.247 64.9993 128.158 65.2651 128.192 65.5474C128.209 65.6896 128.225 65.8334 128.242 65.9754C128.013 65.7483 127.778 65.5358 127.578 65.3336C126.912 64.6583 126.23 64.0012 125.529 63.3611C124.095 62.0524 122.607 60.8289 121.038 59.6873C118.31 57.7015 115.357 55.8762 112.104 54.9235C112.318 54.748 112.532 54.5725 112.747 54.3986C113.389 53.8753 113.985 53.4442 114.262 52.6369ZM126.243 45.7017C122.14 41.2103 116.458 37.9208 110.474 36.7775C104.76 35.6843 98.8451 36.4048 93.4471 38.5292C82.1518 42.9754 73.2395 52.7522 69.0662 64.0815C66.6333 70.6823 65.8357 77.9182 66.5667 84.9051C67.2941 91.8601 69.3849 99.0427 73.1894 104.96C73.5382 105.502 73.9203 106.021 74.3208 106.524C74.1422 108.567 73.4614 110.569 72.3902 112.311C72.3326 112.404 72.2718 112.496 72.2118 112.588C71.1148 113.411 69.9769 114.183 68.8661 114.98C67.9035 115.671 66.9507 116.379 66.0454 117.144C65.1909 117.866 64.1985 118.671 63.62 119.646C63.146 120.444 62.9524 121.53 63.5995 122.291C64.3793 123.209 65.7005 122.885 66.7568 122.885C66.8472 122.885 66.9375 122.887 67.0278 122.888C67.345 123.088 67.6717 123.268 67.9882 123.436C71.1871 125.135 74.3976 126.815 77.6114 128.486C84.0125 131.818 90.3868 135.283 96.9194 138.35C99.9465 139.772 103.187 141.016 106.578 141.011C109.758 141.006 112.633 139.74 115.116 137.817C117.946 135.625 120.313 132.842 122.608 130.114C123.526 129.023 124.426 127.918 125.308 126.798C127.004 126.231 128.686 126.066 130.197 127.159C131.411 128.037 133.009 126.843 133.038 125.526C133.048 125.058 133.028 124.597 132.977 124.142C132.674 121.334 131.302 118.793 129.757 116.436C128.913 115.148 128.023 113.882 127.129 112.628C126.919 112.333 126.712 112.037 126.511 111.736C130.104 106.437 132.954 100.562 134.706 94.4225C136.547 87.9623 137.173 81.2629 136.762 74.5685C136.131 64.3088 133.321 53.4507 126.243 45.7017Z" fill="black"/>
<path fill-rule="evenodd" clip-rule="evenodd" d="M113.785 101.448C112.661 100.989 111.658 100.225 110.925 99.2479C110.67 98.9084 110.604 98.5498 110.657 98.2218C110.718 97.8531 110.936 97.5188 111.233 97.2947C111.532 97.0698 111.906 96.9589 112.267 97.0154C112.58 97.0645 112.893 97.2363 113.14 97.5924L113.191 97.6636C113.627 98.2531 114.195 98.7368 114.843 99.0486C115.467 99.3491 116.164 99.4894 116.886 99.4078C118.262 99.2525 119.209 98.5091 120.217 97.4996C120.342 97.3721 120.467 97.2407 120.592 97.1071C120.672 96.986 120.782 96.9082 120.904 96.8674C121.039 96.8221 121.193 96.8246 121.333 96.8737C121.469 96.9209 121.59 97.0106 121.671 97.1298C121.749 97.2432 121.793 97.3832 121.778 97.5443C121.686 98.5905 121.139 99.5242 120.362 100.257C119.498 101.072 118.354 101.635 117.277 101.833C116.09 102.05 114.88 101.894 113.785 101.448ZM117.837 85.3078C119.1 86.075 121.024 87.864 119.665 89.7661C118.066 91.4432 115.764 89.5202 114.629 88.6506C113.578 87.9766 112.396 89.71 113.372 90.497C121.569 96.5638 124.896 85.5084 118.475 84.4057C117.769 84.2842 117.506 85.0704 117.837 85.3078ZM103.146 78.2507C103.286 76.5196 105.923 76.1265 106.186 77.8395C106.42 79.3739 106.144 80.7835 105.452 82.165C104.792 83.4848 103.131 82.8691 103.006 81.6673C102.837 80.0563 103.059 79.3275 103.146 78.2507ZM123.223 77.4841C123.591 77.0028 124.122 76.6741 124.758 76.8598C126.745 77.4404 126.16 80.2607 125.462 81.6335C125.082 82.379 123.857 82.568 123.303 81.9116C122.4 80.8412 121.967 78.7035 123.115 77.6491C123.146 77.5946 123.181 77.5396 123.223 77.4841ZM105.424 70.676L105.738 70.621C106.71 70.4531 107.917 70.2918 108.604 71.0723C108.968 71.4861 109.094 72.2554 108.604 72.6515C107.743 73.3485 106.79 73.0784 105.758 73.1374C104.907 73.1862 104.089 73.327 103.27 73.5611C101.472 74.0748 100.007 75.0125 98.4712 76.0421C98.2697 76.1772 98.064 75.9196 98.1601 75.7312C99.0466 73.9957 100.764 72.5701 102.485 71.7011C103.403 71.2372 104.408 70.8525 105.424 70.676ZM121.411 69.8986L121.651 69.9477C124.266 70.4941 127.663 71.5855 128.902 74.1528C128.949 74.5158 128.899 74.5936 128.858 74.6445L128.845 74.6614C128.812 74.7048 128.785 74.7646 128.628 74.8141C128.584 74.8036 128.54 74.7926 128.495 74.7809C127.928 74.6323 127.478 74.4274 127.044 74.2149L126.572 73.9828C126.025 73.7147 125.474 73.4564 124.889 73.2657C123.641 72.8589 122.358 72.5723 121.054 72.4193C120.772 72.3861 120.5 72.2908 120.285 72.1275C120.082 71.9725 119.926 71.7578 119.855 71.4725C119.763 71.1033 119.789 70.8237 119.988 70.4906C120.137 70.2404 120.35 70.067 120.595 69.9675C120.844 69.866 121.129 69.842 121.411 69.8986Z" fill="black"/>
<path fill-rule="evenodd" clip-rule="evenodd" d="M132.803 86.3262C130.773 88.4231 127.384 89.0249 124.683 87.9003C117.747 85.0037 121.142 75.9693 126.491 73.5431C127.159 73.3766 128.051 72.9816 128.865 72.892C128.939 72.8559 129.099 72.9604 129.293 72.8616C135.191 73.5198 136.534 82.6717 132.803 86.3262ZM110.433 86.8628C108.156 89.8817 103.922 90.813 100.464 89.4096C93.6307 86.7198 96.0542 78.7085 100.729 75.5677C110.605 71.8585 114.683 81.2965 110.433 86.8628ZM95.6208 80.1738C95.6145 80.1708 95.6081 80.1692 95.6016 80.1662C95.6377 80.1504 95.6738 80.1345 95.7098 80.1183C95.6981 80.1489 95.6854 80.1791 95.674 80.2097C95.6563 80.1975 95.6407 80.1833 95.6208 80.1738ZM137.504 76.9106C136.946 76.9117 136.141 77.0033 135.68 77.3899C134.541 73.5533 130.341 70.0026 126.687 72.5917C123.81 73.5166 121.675 75.5677 120.462 78.2946C118.274 76.9938 114.834 77.5492 112.937 79.2694C111.695 75.1657 108.637 73.7287 104.997 73.5166C101.025 72.8662 97.0656 76.7225 95.8302 79.8161C94.803 79.6993 93.2681 79.3725 92.3017 80.0062C86.0298 78.3621 75.0645 77.4556 73.7894 78.3691C72.8808 78.7176 72.3821 80.8615 73.6513 80.9772C74.7573 80.8202 73.5222 79.4063 74.6371 79.252C80.5772 78.8839 86.3437 80.0797 92.2209 80.5815C92.7457 81.2871 94.4411 81.5231 95.3456 81.2396C93.921 86.4874 96.9962 90.0578 101.604 91.1272C108.739 92.7654 114.946 86.3856 113.08 79.7498C115.242 78.675 117.728 78.7211 120.082 79.2873C116.148 93.7608 139.468 93.1114 135.825 77.8859C138.249 79.091 138.776 77.1538 137.504 76.9106Z" fill="black"/>
</svg>
