<svg width="191" height="257" viewBox="0 0 191 257" fill="none" xmlns="http://www.w3.org/2000/svg">
<path fill-rule="evenodd" clip-rule="evenodd" d="M154.655 199.247C153.981 195.442 153.363 191.627 152.801 187.804C152.535 185.988 152.275 184.171 152.041 182.352C151.877 181.077 151.628 179.618 152.496 178.674C153.717 177.345 154.826 176.207 154.976 174.303C155.117 172.512 154.511 170.559 154.132 168.82C153.337 165.174 152.348 161.572 151.255 158.005C150.144 154.381 148.926 150.79 147.691 147.207C146.536 143.857 145.426 140.476 143.922 137.262C141.068 131.162 136.238 126.644 130.27 123.628C128.786 122.877 125.758 120.199 124.207 119.6C122.781 119.048 122.787 120.658 121.383 120.052C120.262 119.567 119.217 118.921 118.589 117.838C117.907 116.663 116.197 115.019 115.937 113.65C115.385 110.75 115.983 108.281 113.912 106.098C112.074 104.16 109.603 102.832 107.046 102.119C101.421 100.551 93.9201 101.647 90.5266 106.872C88.9057 109.367 88.3393 112.382 86.1523 114.418C84.2425 116.196 84.6699 117.412 82.1964 118.328C82.0563 118.38 78.2591 117.566 78.119 117.618C75.4131 117.039 72.8268 118.659 70.3443 119.6C66.6432 121.001 63.1196 122.825 59.8092 124.993C53.134 129.365 47.4168 135.042 42.7034 141.466C37.951 147.943 34.2637 155.203 31.6382 162.791C31.0006 164.634 30.4279 166.499 29.9227 168.383C29.6399 169.437 29.3378 170.53 29.6821 171.61C29.9637 172.493 30.5901 173.15 31.3257 173.68C32.3228 174.398 34.3229 174.865 34.2839 176.309C34.2542 177.408 33.8814 178.563 33.6995 179.649C33.483 180.941 33.305 182.241 33.1271 183.539C32.3178 189.448 31.6879 195.39 31.4093 201.349C31.135 207.216 30.9075 213.204 31.3146 219.069C31.3416 219.456 31.4569 219.811 31.6431 220.111C31.4693 220.177 31.4559 220.501 31.6721 220.547C31.8236 220.579 31.9748 220.611 32.1263 220.643C32.441 220.881 32.8335 221.027 33.2851 221.041C33.5913 221.051 33.8973 221.065 34.2032 221.081C37.4307 221.755 40.6576 222.392 43.9273 222.874C47.9017 223.461 51.8879 223.939 55.8864 224.327C64.1027 225.126 72.2543 224.861 80.4814 224.431C88.6959 224.001 96.9055 223.9 105.128 224.114C113.359 224.328 121.586 224.686 129.818 224.833C139.015 224.996 148.197 224.745 157.368 224.014C158.625 223.914 159.403 222.914 159.155 221.666C157.669 214.187 155.985 206.758 154.655 199.247Z" fill="#D08B5B"/>
<path fill-rule="evenodd" clip-rule="evenodd" d="M70.3443 119.599L70.5239 119.53C72.9515 118.582 75.4783 117.053 78.119 117.617C78.2124 117.583 79.9307 117.933 81.1077 118.155L79.9905 119.32L78.0191 119.7C84.8204 130.92 92.8644 136.53 102.151 136.53C111.438 136.53 118.485 130.92 123.292 119.7L123.948 119.518C124.029 119.537 124.115 119.564 124.207 119.599C125.758 120.199 128.786 122.877 130.27 123.627C136.238 126.643 141.068 131.161 143.922 137.261C145.376 140.368 146.462 143.631 147.576 146.871L147.691 147.207C148.926 150.79 150.144 154.38 151.255 158.005C152.3 161.417 153.251 164.86 154.027 168.344L154.132 168.82C154.511 170.559 155.117 172.511 154.976 174.303C154.923 174.981 154.748 175.562 154.489 176.089L141.037 180.928L147.446 224.62C141.575 224.871 135.699 224.936 129.818 224.832C121.586 224.686 113.359 224.328 105.128 224.114C97.1546 223.906 89.1934 223.994 81.2282 224.392L79.2054 224.495C71.4108 224.885 63.6777 225.084 55.8864 224.327L55.3555 224.275V224.275L55.3554 217.884L58.0923 182.295L44.2224 179.686L30.6071 173.075C30.1958 172.664 29.8657 172.185 29.6821 171.609C29.3632 170.61 29.5989 169.598 29.86 168.616L29.9227 168.382C30.4279 166.499 31.0006 164.633 31.6382 162.79C34.2637 155.203 37.951 147.943 42.7034 141.466C47.4168 135.042 53.134 129.365 59.8092 124.993C63.1196 122.825 66.6432 121.001 70.3443 119.599Z" fill="white"/>
<path fill-rule="evenodd" clip-rule="evenodd" d="M75.5534 117.434C76.4039 117.397 77.2711 117.534 78.1195 117.618C78.1934 117.625 78.2215 117.739 78.1382 117.756C76.6198 118.073 75.118 118.507 73.6266 118.948L72.9881 119.137C71.3064 119.634 69.674 120.147 68.0459 120.81C64.8012 122.132 61.7196 123.916 58.8834 125.966C47.962 133.859 40.0576 145.809 35.0694 158.182C33.7148 161.542 32.567 164.986 31.6373 168.487C31.4112 169.339 31.1985 170.194 30.9968 171.052C30.9376 171.304 30.6796 171.948 30.8211 172.206C30.9462 172.433 31.4324 172.574 31.6583 172.692L32.421 173.087C33.9088 173.854 36.3869 175.114 36.6354 175.236L37.023 175.427C43.3624 178.534 50.1359 181.168 57.2697 181.35L57.3256 180.741V180.741C57.6436 177.375 58.061 173.99 58.972 170.727C59.021 170.552 59.2442 170.611 59.2646 170.767C59.7721 174.63 59.6099 178.523 59.4328 182.404C59.1193 189.277 58.7029 196.147 58.3329 203.018C58.1476 206.455 57.9081 209.89 57.6919 213.325C57.4754 216.767 57.4053 220.292 56.9109 223.706C56.8007 224.467 55.909 224.88 55.2338 224.8C54.4867 224.711 53.912 224.054 53.9084 223.3C53.8994 221.311 54.1494 219.299 54.2884 217.315C54.4203 215.43 54.5619 213.546 54.7071 211.663C55.2375 204.788 55.8477 197.92 56.412 191.048C56.612 188.611 56.8281 186.176 57.0505 183.741C49.4934 183.497 42.4332 180.699 35.698 177.43C35.6005 179.643 35.3651 181.851 35.1372 184.055C34.5009 190.203 33.9399 196.35 33.52 202.518C33.3079 205.633 33.1536 208.752 33.0192 211.871C32.9531 213.404 32.8993 214.938 32.858 216.472C32.8441 216.983 32.8317 217.494 32.8206 218.006L32.7976 219.177C32.7788 219.919 32.7033 220.607 32.0786 221.147C31.444 221.696 30.5868 221.725 29.9587 221.147C29.118 220.373 29.2666 219.319 29.2915 218.28C29.3123 217.403 29.3372 216.526 29.3661 215.65C29.4241 213.897 29.4982 212.145 29.5883 210.393C29.9037 204.27 30.5339 198.17 31.3575 192.096L31.6789 189.751C32.2793 185.391 32.9384 180.933 34.2805 176.734C33.7579 176.474 33.2369 176.212 32.7178 175.949C31.7971 175.483 30.8452 175.046 29.9502 174.532C29.2402 174.124 28.6278 173.564 28.4302 172.738C28.2097 171.818 28.5468 170.812 28.7708 169.914L28.7902 169.835C29.0098 168.931 29.2462 168.031 29.4957 167.135C30.5074 163.502 31.7583 159.939 33.2223 156.463C36.1537 149.504 39.9373 142.893 44.5591 136.916C48.7193 131.535 53.6339 126.656 59.3939 122.996C62.2098 121.207 65.2107 119.738 68.3844 118.699C69.8678 118.214 71.4818 117.791 73.0349 117.618C73.8727 117.524 74.7116 117.47 75.5534 117.434ZM90.6223 106.407C91.6329 105.322 93.6409 106.445 93.1556 107.881C92.0142 111.261 90.1965 114.343 87.3598 116.564C84.6934 118.652 81.5137 120.008 78.0894 119.718C78.063 119.716 78.0401 119.709 78.0198 119.7L78.3149 120.1C80.6317 123.232 83.0758 126.322 86.0216 128.882C92.0236 134.099 100.196 136.913 108.087 134.911C114.295 133.337 119.765 128.429 121.373 122.175C121.143 122.278 120.869 122.314 120.568 122.248C119.281 121.969 118.007 120.616 117.177 119.646C116.279 118.596 115.577 117.463 115.063 116.182C114.123 113.837 113.821 110.819 115.105 108.548C115.264 108.268 115.629 108.425 115.661 108.698L115.709 109.125C115.957 111.253 116.266 113.312 117.27 115.252C117.761 116.202 118.35 117.128 119.067 117.923C119.45 118.349 119.866 118.755 120.315 119.112C120.753 119.46 121.282 119.711 121.674 120.11L121.746 120.186L121.748 120.172C121.847 119.33 122.438 118.959 123.017 118.982C123.577 119.004 124.234 119.251 124.489 119.369L124.513 119.38C128.418 121.254 132.014 123.696 135.399 126.405C142.398 132.009 147.642 139.334 150.183 147.961C151.43 152.194 152.145 156.557 152.901 160.899L153.366 163.559C154.071 167.568 154.858 171.655 156.45 175.384C156.862 176.349 156.544 177.253 155.535 177.633C154.274 178.106 153.009 178.565 151.742 179.018C152.364 181.686 152.744 184.447 153.21 187.128C154.201 192.828 155.415 198.491 156.456 204.183C156.988 207.094 157.469 210.014 158 212.925C158.256 214.326 158.524 215.726 158.783 217.127C158.923 217.883 159.05 218.641 159.184 219.397L159.207 219.523C159.284 219.922 159.38 220.335 159.27 220.734C159.145 221.189 158.789 221.511 158.472 221.838C158.21 222.107 157.832 222.108 157.512 221.962L157.407 221.913C156.835 221.646 156.387 221.379 156.184 220.734C156.056 220.326 156.009 219.866 155.925 219.445C155.764 218.638 155.612 217.831 155.467 217.021C155.179 215.401 154.898 213.779 154.623 212.157L154.366 210.637C153.485 205.401 152.648 200.132 152.225 194.84C152.037 192.492 151.838 190.147 151.637 187.801L151.486 186.041C151.296 183.814 151.063 181.53 151.03 179.273L150.272 179.542V179.542L146.575 180.848V180.848C145.658 181.172 144.491 181.835 143.504 181.715C143.022 181.656 142.653 181.504 142.369 181.227C142.71 186.03 143.17 190.825 143.785 195.594C144.343 199.935 144.963 204.269 145.695 208.584C146.057 210.72 146.429 212.855 146.834 214.984C147.036 216.048 147.245 217.111 147.46 218.173C147.567 218.703 147.695 219.234 147.778 219.768C147.874 220.38 147.705 220.756 147.363 221.259C147.083 221.673 146.521 221.885 146.066 221.6C145.463 221.221 145.148 220.894 144.971 220.205C144.809 219.579 144.711 218.926 144.587 218.292C144.356 217.123 144.134 215.952 143.919 214.779C143.47 212.326 143.055 209.868 142.686 207.402C141.382 198.716 140.555 189.956 140.137 181.183C139.931 176.854 139.867 172.521 139.904 168.188C139.923 165.967 139.995 163.74 140.153 161.524C140.312 159.281 140.643 157.084 140.939 154.862C140.949 154.784 141.059 154.78 141.064 154.862C141.204 157.353 141.423 159.84 141.531 162.337C141.633 164.719 141.678 167.105 141.76 169.488C141.867 172.621 142.016 175.756 142.213 178.888C142.569 178.499 143.106 178.274 143.644 178.362C144.422 178.198 145.26 177.79 146.003 177.542L148.801 176.608V176.608C150.272 176.117 151.743 175.629 153.219 175.156C151.899 170.717 150.995 166.213 150.223 161.643L149.879 159.587C149.197 155.542 148.462 151.494 147.228 147.576C145.93 143.457 143.988 139.628 141.412 136.16C138.872 132.742 135.782 129.733 132.601 126.918C129.878 124.508 126.964 122.333 124.187 119.989C124.216 120.145 124.222 120.316 124.196 120.504C123.606 124.824 121.351 128.848 118.208 131.841C111.895 137.854 102.549 139.101 94.4691 136.282C86.6528 133.554 79.7422 127.095 77.3006 119.103C77.2588 118.966 77.4421 118.912 77.5157 119.012C77.6511 119.198 77.7872 119.383 77.9235 119.569C77.9143 119.495 77.9526 119.415 78.0436 119.38C80.8923 118.28 83.6897 116.721 85.8251 114.515C86.8659 113.44 87.7742 112.221 88.4912 110.908C88.8347 110.278 89.1432 109.627 89.3894 108.953L89.4519 108.779C89.7502 107.935 89.9995 107.075 90.6223 106.407Z" fill="black"/>
<path fill-rule="evenodd" clip-rule="evenodd" d="M132.651 77.4225C132.585 73.678 132.512 69.8587 131.956 66.1506C131.413 62.5254 129.918 59.2486 127.35 56.6162C121.894 51.0245 113.987 49.6587 106.626 48.4071L94.0409 46.2671C90.2015 45.6143 86.1054 44.571 82.2263 45.4967C80.3148 45.9528 78.6916 47.0125 77.2079 48.2663C75.7779 49.4748 74.2404 50.7726 73.2714 52.3985C72.3008 54.0267 71.9669 55.93 71.6513 57.7715C71.2954 59.8477 71.0189 61.9401 70.8225 64.0375C70.4289 68.2396 70.3751 72.4734 70.6606 76.6842C70.799 78.7266 71.0191 80.7632 71.3001 82.7907C71.4394 83.7961 71.5969 84.7991 71.7748 85.7984C71.8272 86.0931 71.8671 86.4194 71.9208 86.749C71.5238 87.88 71.2982 89.0512 71.3164 90.2174C71.37 93.6527 74.2646 95.8154 77.1828 96.9766C78.8748 97.6499 80.6437 98.1074 82.3062 98.8596C84.0551 99.6507 85.2455 100.933 86.4413 102.396C88.7219 105.187 91.2954 107.695 94.2341 109.787C100.465 114.223 108.356 116.322 115.916 114.729C117.729 114.347 119.559 113.753 121.19 112.859C122.911 111.916 124.206 110.548 125.293 108.931C127.311 105.928 128.758 102.548 129.853 99.1076C130.97 95.5985 131.763 92.083 132.195 88.4239C132.626 84.7766 132.717 81.0923 132.651 77.4225V77.4225Z" fill="#D08B5B"/>
<path fill-rule="evenodd" clip-rule="evenodd" d="M92.492 33.2235C97.6999 32.5059 104.888 34.8381 107.482 39.5407C119.864 36.6166 135.481 36.5208 145.687 46.2552C156.336 57.8022 142.96 73.0271 134.091 76.4597C134.737 79.6033 133.73 99.7424 126.606 108.726C120.951 116.337 107.785 119.85 101.692 110.758L101.644 110.683C100.992 109.634 101.554 109.667 102.224 110.448C108.19 115.704 116.302 115.794 122.553 110.247C134.268 100.109 133.06 75.2526 127.485 60.8725C111.611 59.1261 94.6155 63.9455 83.6516 75.915L84.393 80.3859C84.5193 81.1476 84.6628 81.9087 84.7723 82.673C84.8423 83.1628 84.8502 83.6499 84.5115 84.0463C83.393 85.3551 81.5079 83.3884 79.9569 82.6062C79.499 82.5417 79.0403 82.5168 78.5904 82.5485C71.1385 83.51 72.6067 97.9902 80.7969 95.452C81.485 95.0226 82.0762 95.1537 82.3432 95.7768C84.2954 97.568 85.5826 100.763 88.8259 103.839C89.9703 104.994 91.0117 105.959 92.2989 106.885C93.055 107.651 95.3364 108.432 94.6132 109.743C93.2455 112.725 85.1808 103.357 83.7549 100.766C79.2874 102.533 74.3365 101.933 69.7068 101.501C45.2826 100.229 48.5432 74.4396 68.5631 58.1573C72.3316 55.3782 76.4894 53.1112 80.8114 51.3666C81.4014 51.1284 81.1436 50.158 80.5452 50.3995C77.6855 51.554 74.8976 52.9281 72.2401 54.5186L72.2361 53.5677C72.2322 51.9662 72.2573 50.2989 72.535 48.8356C72.6738 47.8217 72.9073 46.7387 73.2667 45.924C73.7111 43.4263 80.6719 34.8528 92.492 33.2235ZM78.2647 85.8728C78.6418 85.5139 79.3458 85.9418 79.6816 85.9311C80.5401 86.0488 81.3557 86.412 81.9918 86.8603C82.4118 87.096 82.7062 87.3173 82.9521 87.5209L82.9588 87.519C82.957 87.519 82.9546 87.5209 82.9526 87.5214L82.9758 87.537C83.3339 87.7919 84.645 89.2276 83.8167 88.8415C83.7549 88.7611 83.6917 88.6839 83.6279 88.6082C83.6211 88.6185 83.6116 88.6287 83.6002 88.6386L83.6468 88.7078C84.3508 89.7686 83.1353 88.651 82.9483 88.3541C82.9394 88.3613 82.9294 88.3661 82.9196 88.3713L83.1631 88.6682C83.1972 88.7104 83.2239 88.744 83.2461 88.7725L83.2975 88.8221C84.1115 89.6236 84.1369 90.3448 83.1912 89.1599C83.2285 89.2158 83.2583 89.2749 83.2625 89.3274L83.3185 89.399C84.061 90.3574 83.4571 90.017 83.0881 89.6077L83.0573 89.5725L83.0636 89.582C83.4068 90.1117 82.7258 89.7401 82.6054 89.4567L82.6004 89.4439C82.4692 89.3368 82.3885 89.2165 82.3609 89.1861L82.3557 89.181C81.7173 88.5258 80.7919 87.9713 80.0058 87.7194C79.8918 87.6977 79.7765 87.6803 79.66 87.668C79.1873 87.5623 78.7094 87.4899 78.2265 87.4508C78.1674 87.4438 78.1075 87.4004 78.0628 87.3442C77.3326 87.3195 77.558 87.0197 77.8609 86.964L77.8662 86.9631L77.8061 86.958C77.3375 86.9122 77.0175 86.7438 77.4913 86.6404L77.5513 86.6285C77.544 86.6169 77.5375 86.6054 77.5312 86.5939C77.1253 86.5492 77.3902 86.1541 77.6154 86.2497C77.5206 85.9393 77.9538 86.0942 78.0079 86.0481C78.0491 86.0023 78.1003 85.9619 78.1299 85.9597C78.2604 85.8674 78.1971 85.8758 78.2647 85.8728ZM80.7474 80.8472L80.6523 80.9028C80.5753 80.9478 80.4962 80.9777 80.4168 80.9953C80.5289 81.0431 80.6397 81.0947 80.7494 81.1499C80.7476 81.0825 80.7463 81.0151 80.7463 80.9479L80.7474 80.8472Z" fill="black"/>
<path fill-rule="evenodd" clip-rule="evenodd" d="M113.904 101.448C112.78 100.989 111.777 100.225 111.044 99.2479C110.789 98.9084 110.723 98.5498 110.777 98.2218C110.837 97.8531 111.055 97.5188 111.353 97.2947C111.651 97.0698 112.025 96.9589 112.386 97.0154C112.699 97.0645 113.012 97.2363 113.259 97.5924L113.311 97.6636C113.747 98.2531 114.315 98.7368 114.962 99.0486C115.586 99.3491 116.284 99.4894 117.006 99.4078C118.381 99.2525 119.329 98.5091 120.336 97.4996C120.461 97.3721 120.586 97.2407 120.711 97.1071C120.791 96.986 120.901 96.9082 121.023 96.8674C121.159 96.8221 121.312 96.8246 121.453 96.8737C121.588 96.9209 121.709 97.0106 121.791 97.1298C121.868 97.2432 121.912 97.3832 121.897 97.5443C121.805 98.5905 121.258 99.5242 120.481 100.257C119.618 101.072 118.473 101.635 117.396 101.833C116.209 102.05 115 101.894 113.904 101.448V101.448ZM117.956 85.3078C119.219 86.075 121.143 87.864 119.784 89.7661C118.185 91.4432 115.883 89.5202 114.749 88.6506C113.697 87.9766 112.515 89.71 113.491 90.497C121.688 96.5638 125.015 85.5084 118.595 84.4057C117.888 84.2842 117.625 85.0704 117.956 85.3078ZM103.265 78.2507C103.405 76.5196 106.042 76.1265 106.305 77.8395C106.54 79.3739 106.263 80.7835 105.572 82.165C104.911 83.4848 103.25 82.8691 103.125 81.6673C102.956 80.0563 103.179 79.3275 103.265 78.2507ZM123.342 77.4841C123.71 77.0028 124.241 76.6741 124.877 76.8598C126.865 77.4404 126.279 80.2607 125.581 81.6335C125.202 82.379 123.976 82.568 123.422 81.9116C122.519 80.8412 122.086 78.7035 123.234 77.6491C123.265 77.5946 123.3 77.5396 123.342 77.4841ZM105.544 70.676L105.858 70.621C106.829 70.4531 108.036 70.2918 108.723 71.0723C109.088 71.4861 109.213 72.2554 108.723 72.6515C107.862 73.3485 106.909 73.0784 105.877 73.1374C105.026 73.1862 104.208 73.327 103.389 73.5611C101.591 74.0748 100.126 75.0125 98.5903 76.0421C98.3888 76.1772 98.1831 75.9196 98.2793 75.7312C99.1657 73.9957 100.884 72.5701 102.604 71.7011C103.523 71.2372 104.528 70.8525 105.544 70.676ZM121.53 69.8986L121.77 69.9477C124.385 70.4941 127.783 71.5855 129.021 74.1528C129.068 74.5158 129.018 74.5936 128.978 74.6445L128.964 74.6614C128.931 74.7048 128.904 74.7646 128.747 74.8141C128.703 74.8036 128.659 74.7926 128.614 74.7809C128.047 74.6323 127.598 74.4274 127.163 74.2149L126.691 73.9828C126.145 73.7147 125.593 73.4564 125.008 73.2657C123.76 72.8589 122.477 72.5723 121.173 72.4193C120.891 72.3861 120.619 72.2908 120.404 72.1275C120.201 71.9725 120.045 71.7578 119.974 71.4725C119.882 71.1033 119.909 70.8237 120.107 70.4906C120.256 70.2404 120.469 70.067 120.714 69.9675C120.964 69.866 121.248 69.842 121.53 69.8986Z" fill="black"/>
<path fill-rule="evenodd" clip-rule="evenodd" d="M134.419 88.7578C133.865 88.0142 132.869 87.0382 131.861 87.0907C131.733 87.0973 131.684 87.2369 131.762 87.3313C132.091 87.7337 132.542 88.0198 132.872 88.4305C133.263 88.9166 133.545 89.5028 133.728 90.0957C133.995 90.957 134.068 91.9318 133.831 92.8077C133.412 94.3515 132.088 95.4831 130.644 96.0609C129.214 96.6329 127.494 96.8283 126.141 95.9902C124.146 94.753 122.453 92.9695 119.944 92.9342C119.358 92.926 118.944 93.1946 118.698 93.5781C118.45 93.2084 118.042 92.9468 117.47 92.9402C114.658 92.9087 112.559 94.8438 110.199 96.0501C108.604 96.8654 106.54 96.6124 104.894 96.0736C103.342 95.5657 101.657 94.5456 101.071 92.9347C100.748 92.0452 100.82 91.0065 101.152 90.1296C101.37 89.5529 101.707 88.9958 102.124 88.5427C102.556 88.0727 103.125 87.7771 103.567 87.3315C103.658 87.2404 103.586 87.0988 103.468 87.0907C101.587 86.9631 99.889 89.2076 99.5339 90.836C99.1843 92.4396 99.7057 94.0391 100.761 95.2628C102.907 97.7507 106.88 98.5712 109.973 97.8401C112.476 97.2485 114.853 95.8859 117.47 96.0815C118.044 96.1245 118.455 95.8854 118.704 95.5231C118.953 95.896 119.367 96.1398 119.944 96.084C122.383 95.8478 124.56 97.5742 126.927 97.9957C128.812 98.3312 130.848 97.8787 132.463 96.8638C134.151 95.8029 135.339 94.1011 135.417 92.0722C135.462 90.905 135.12 89.6974 134.419 88.7578" fill="black"/>
</svg>