<svg width="197" height="257" viewBox="0 0 197 257" fill="none" xmlns="http://www.w3.org/2000/svg">
<path fill-rule="evenodd" clip-rule="evenodd" d="M192.391 141.822C189.994 142.057 187.598 142.291 185.202 142.525C173.725 143.398 162.252 145.222 150.863 146.317C150.58 145.857 150.025 145.933 149.688 146.252C148.551 146.153 147.278 145.288 146.248 146.188C146.215 146.183 146.181 146.178 146.148 146.175C144.315 142.671 143.048 138.933 141.818 135.191C141.033 132.89 139.977 130.663 138.026 129.118C134.696 126.816 127.065 122.147 123.155 122.343C123.09 121.646 122.763 120.927 122.228 120.462C123.409 118.457 118.686 117.148 118.353 117.381C118.566 110.68 115.402 104.861 108.424 103.526C102.172 102.229 93.281 102.011 89.9188 108.518C89.5492 108.477 85.7714 108.457 85.4059 108.498C84.8376 107.781 78.5964 114.574 81.1544 116.939C58.2851 127.015 45.2816 125.813 38.9518 154.14C38.096 156.801 38.0337 159.713 37.1301 162.315C33.9153 169.791 31.3077 177.753 30.6588 185.888C29.0915 186.288 28.9112 189.041 30.7267 189.439C31.4201 189.591 32 189.799 32.5057 190.194C32.1104 196.861 33.7293 212.09 34.7493 212.043C36.8292 218.636 46.1066 220.497 52.6746 218.18C51.5424 220.302 52.6746 221.636 52.6746 222.769C76.3083 223.66 102.149 223.147 125.776 224.368C128.798 224.326 131.977 225.108 134.958 224.657C136.776 224.223 136.779 221.376 134.935 221.024L142.993 219.281C142.813 219.214 146.314 216.894 148.961 212.559C151.424 207.71 149.747 201.857 150.863 196.582C159.581 195.872 168.442 195.569 177.064 194.098C178.24 197.602 183.329 193.412 184.946 191.726C184.944 191.724 184.942 191.721 184.94 191.719C185.723 191.505 186.351 190.774 186.372 189.909C186.921 189.128 187.036 188.027 186.509 187.272C188.922 173.404 192.601 159.244 193.931 145.246C194.401 145.142 194.843 144.937 195.219 144.62L195.188 144.59C195.824 143.884 195.948 142.665 194.888 142.066C194.033 141.581 193.319 141.731 192.391 141.822Z" fill="#EDB98A"/>
<path fill-rule="evenodd" clip-rule="evenodd" d="M101.251 193.727L103.097 194.897L118.201 199.745L127.431 200.915L134.983 199.745V212.615L136.493 224.65C135.822 225.876 129.445 225.876 117.362 224.65C109.659 223.869 81.5082 223.49 75.0988 223.323L74.7357 223.313C67.204 223.096 59.7639 223.096 52.4156 223.313V218.8L73.3931 208.436L92.189 197.906L101.251 193.727ZM90.5495 107.466L91.9366 108.498L88.908 113.454L103.662 125.34V134.834L108.332 139.234L111.002 134.834L114.764 129.851L117.438 121.774L116.527 116.452L118.358 116.281C118.367 116.644 118.365 117.011 118.354 117.381C118.687 117.148 123.409 118.457 122.228 120.463C122.764 120.927 123.091 121.646 123.155 122.343C127.066 122.147 134.696 126.816 138.027 129.118C139.978 130.663 141.034 132.89 141.819 135.191L142.004 135.753L142.194 136.329L142.387 136.904C143.449 140.07 144.595 143.206 146.148 146.175C146.182 146.178 146.216 146.184 146.249 146.188C147.278 145.288 148.552 146.153 149.689 146.253C150.018 145.941 150.555 145.861 150.844 146.286L150.864 146.317L136.705 149.095L127.364 181.73L119.229 175.154L114.863 175.8L103.332 179.943L89.9213 183.412L59.3058 191.819H55.407L32.7203 186.362L30.6758 185.69C31.3509 177.624 33.9422 169.731 37.1309 162.315C38.0345 159.713 38.0968 156.801 38.9525 154.14C45.2824 125.813 58.2859 127.016 81.1552 116.939C78.5972 114.574 84.8383 107.781 85.4066 108.498L85.4425 108.495L85.5199 108.491L85.6197 108.487C86.5119 108.461 89.5879 108.481 89.9196 108.518C90.1119 108.146 90.3224 107.796 90.5495 107.466Z" fill="#FF734F"/>
<path fill-rule="evenodd" clip-rule="evenodd" d="M194.655 142.813L194.233 145.154C194.133 145.187 194.031 145.214 193.928 145.237C193.795 146.633 193.639 148.03 193.464 149.428L190.849 163.943C190.398 166.511 189.97 169.085 189.545 171.659L188.982 174.424L188.633 176.143C187.88 179.864 187.148 183.574 186.507 187.263C186.603 187.402 186.679 187.553 186.733 187.711L186.684 187.919L186.65 188.058L186.614 188.195C186.108 190.134 185.227 192.014 183.15 192.585C181.584 193.015 179.865 193.054 178.247 193.224L178.068 193.243L149.764 196.413C146.344 196.796 142.925 197.191 139.507 197.59L136.544 197.936C132.414 198.412 128.26 198.787 124.191 199.649C124.041 199.681 123.917 199.741 123.816 199.819C124.636 196.729 125.42 193.644 126.131 190.523C126.931 187.011 127.691 183.492 128.546 179.992C130.271 172.942 132.203 165.938 134.319 158.994C134.763 157.536 135.218 156.082 135.682 154.631L136.008 153.616L136.258 152.808C136.646 151.575 137.126 150.309 138.264 149.629C139.595 148.833 141.411 148.701 142.921 148.426L143.944 148.235C145.474 147.951 147.005 147.677 148.539 147.414C155.882 146.156 163.267 145.147 170.679 144.389C178.392 143.6 186.131 143.088 193.88 142.837L194.655 142.813ZM124.402 191.21L124.475 191.216L123.417 199.634C123.248 199.516 123.034 199.444 122.772 199.445C119.304 199.455 115.98 198.351 112.764 197.137L112.274 196.951L110.909 196.429C109.522 195.899 108.127 195.381 106.705 194.952L106.131 194.779L105.839 194.693C104.763 194.38 103.631 194.096 102.512 194.025L102.359 194.017L102.685 193.847C102.733 193.822 102.775 193.794 102.812 193.764C103.428 193.809 104.045 193.797 104.695 193.68C105.917 193.461 107.105 193.038 108.196 192.448L108.684 192.185L108.883 192.079L109.015 192.011L109.146 191.945C110.083 191.48 110.979 191.189 112.163 191.437C113.506 191.718 114.683 192.439 115.894 193.049L116.109 193.155L116.253 193.225L116.401 193.294L116.55 193.361C118.187 194.095 120.793 194.887 121.421 192.67C121.673 191.779 121.476 190.945 121.038 190.213C121.854 190.143 123.311 191.101 124.402 191.21ZM165.162 163.475L165.182 163.576C165.414 164.818 164.833 166.005 163.954 166.871C163.233 167.581 161.958 167.976 161.597 168.997C161.391 169.579 161.61 170.13 162.032 170.514L161.935 170.562L161.84 170.61L161.747 170.659L161.656 170.709L161.568 170.758C160.133 171.58 158.963 172.915 160.258 174.529C161.727 176.359 164.796 176.419 166.958 176.275L167.104 176.265C169.2 176.109 171.684 175.407 172.821 173.479C173.342 172.595 173.285 171.525 172.558 170.768C172.12 170.311 171.337 169.842 170.62 169.787C170.651 169.384 170.603 168.995 170.461 168.667C170.154 167.958 169.336 167.48 168.546 167.463C168.61 165.957 167.399 164.471 166.508 163.267L166.417 163.143L166.328 163.022C165.919 162.455 165.044 162.772 165.162 163.475Z" fill="white"/>
<path fill-rule="evenodd" clip-rule="evenodd" d="M90.3547 107.007C91.0667 105.224 93.4738 105.917 93.2054 107.79C93.0448 108.911 92.4281 110.096 91.8741 111.079C91.423 111.879 90.9085 112.66 90.2108 113.26C91.4527 114.414 92.7417 115.526 94.0635 116.581C95.5057 117.733 97.0223 118.795 98.5899 119.771C99.9645 120.627 101.401 121.385 102.697 122.361C103.902 123.269 104.999 124.361 105.558 125.786C106.153 127.304 105.894 128.871 105.456 130.388L105.406 130.56C104.958 132.062 104.183 133.874 105.258 135.289C105.805 136.01 106.6 136.521 107.286 137.097C107.897 137.609 108.469 138.166 108.995 138.764C110.14 140.068 111.072 141.536 111.659 143.171L111.712 143.319C112.216 144.767 112.584 146.54 111.903 147.961C111.708 148.368 111.078 148.236 110.969 147.839C110.721 146.941 110.734 146 110.527 145.088C110.311 144.141 109.952 143.241 109.483 142.39C108.575 140.743 107.346 139.337 105.894 138.148L105.459 137.796C104.326 136.87 103.286 135.887 103.056 134.355C102.81 132.715 103.469 131.154 103.893 129.602C104.189 128.52 104.285 127.484 103.966 126.506C103.576 127.141 103.043 127.743 102.622 128.28C101.784 129.35 100.937 130.413 100.093 131.478C99.2273 132.571 98.383 133.681 97.579 134.819C97.2193 135.328 96.8636 135.841 96.509 136.354C96.2423 136.739 95.8704 137.124 95.5797 137.517C95.6504 137.728 95.645 137.97 95.517 138.142C93.9755 140.216 91.7826 135.888 91.2107 134.795C90.046 132.568 89.1792 130.202 88.0107 127.975C86.7999 125.667 85.4211 123.421 83.8844 121.314C82.9548 120.039 81.913 118.842 81.0626 117.527C79.0594 119.336 76.4232 120.549 74.0019 121.649C71.3416 122.857 68.5777 123.844 65.8501 124.893L65.0444 125.204C60.3446 127.031 55.53 129.038 51.6236 132.283C47.0332 136.096 44.3176 141.411 42.2959 146.915C39.9685 153.25 38.0431 159.757 36.2483 166.26C35.3298 169.587 34.4583 172.929 33.639 176.282C32.9171 179.236 32.3186 182.219 31.4829 185.143C33.1778 185.083 35.111 185.737 36.5581 185.925C43.1532 186.785 49.6596 188.156 55.8863 190.529C56.6554 190.822 56.8779 191.587 56.7104 192.207C57.154 192.082 57.5972 191.956 58.0407 191.832C57.5548 191.09 57.7867 189.765 57.8249 188.943L57.8273 188.886C57.8665 187.791 57.9859 186.694 58.0632 185.601C58.2105 183.517 58.4023 181.448 58.6573 179.376L58.7224 178.857C59.0114 176.603 59.225 174.335 59.5404 172.084L59.5776 171.827C59.4264 171.251 59.2504 170.682 59.0656 170.116C58.5732 168.607 57.8783 167.187 57.2693 165.726C57.1974 165.554 57.4435 165.456 57.5584 165.559C58.5898 166.483 59.4091 167.655 60.0673 168.882C60.0787 168.824 60.0888 168.766 60.1007 168.708L60.1758 168.34C60.361 167.442 60.5863 166.497 61.1394 165.769C61.1983 165.691 61.3147 165.675 61.3705 165.769C61.8998 166.661 61.959 167.791 62.0404 168.806C62.1325 169.954 62.1441 171.117 62.1278 172.268C62.0961 174.519 61.9368 176.775 61.81 179.022C61.6855 181.23 61.4411 183.409 61.1261 185.596L61.0662 186.006C60.9122 187.046 60.7861 188.1 60.583 189.133L60.5256 189.414C60.4171 189.927 60.3503 190.649 60.1341 191.25C65.6953 189.705 71.2651 188.195 76.8455 186.712C80.8787 185.64 84.9161 184.584 88.9519 183.521C89.1648 183.139 89.43 182.782 89.7609 182.462C90.8512 181.411 92.2962 180.942 93.6215 181.751C93.7292 181.817 93.7383 181.985 93.6215 182.049C93.3675 182.187 93.1131 182.329 92.8632 182.477L95.2866 181.823C97.0978 181.334 98.9308 180.723 100.785 180.382C104.199 178.704 107.872 177.489 111.469 176.288L111.893 176.146C113.735 175.52 115.64 174.82 117.543 174.473C118.936 174.22 120.571 174.526 121.131 175.947C121.84 176.413 122.507 176.96 123.151 177.498C123.617 177.887 124.063 178.3 124.517 178.703L124.601 178.776C124.972 179.096 125.265 179.311 125.357 179.821C125.404 180.085 125.235 180.441 124.909 180.406C123.91 180.3 123.098 179.147 122.421 178.458C121.898 177.926 121.37 177.376 120.893 176.791C120.614 176.942 120.233 176.915 120.055 176.581C119.136 174.847 116.619 176.048 115.226 176.459L113.231 177.048C112.233 177.342 111.236 177.638 110.24 177.939C107.504 178.767 104.781 179.693 102.02 180.453C102.267 180.724 102.233 181.205 101.764 181.388C99.6029 182.232 97.2319 182.669 94.9867 183.249C93.5691 183.615 92.1524 183.983 90.7361 184.354C90.4933 184.746 90.3186 185.189 90.2451 185.705C89.9748 187.602 90.4961 189.791 91.0038 191.626L91.0803 191.9C91.4977 193.375 92.1117 195.184 93.3897 196.115C93.7017 196.342 94.0989 196.501 94.4993 196.536C97.001 195.254 99.5025 193.971 102.006 192.691C102.469 192.454 102.898 192.775 103.002 193.157C103.884 193.013 104.765 192.786 105.567 192.514C106.914 192.059 107.967 191.189 109.23 190.588C111.675 189.425 114.171 190.854 116.359 191.94L116.864 192.187C117.845 192.661 119.887 193.572 120.358 192.275C120.814 191.02 119.374 189.679 118.444 189.114C117.335 188.44 116.044 188.08 114.791 187.78C114.076 187.608 113.352 187.468 112.623 187.366C111.797 187.25 110.943 187.268 110.148 187.001C109.752 186.869 109.691 186.243 110.148 186.14C111.372 185.862 112.834 186.165 114.112 186.474L114.78 186.638C116.068 186.953 117.368 187.348 118.541 187.976C119.394 188.433 120.294 189.126 120.882 189.975C121.393 189.503 122.028 189.519 122.69 189.694L123.05 189.794C123.643 189.957 124.124 190.07 124.701 189.957C124.779 189.538 124.857 189.12 124.941 188.701C125.763 184.587 126.666 180.488 127.661 176.412C129.379 169.38 131.366 162.426 133.607 155.542L133.831 154.854C134.348 153.28 134.764 151.565 135.597 150.118C136.385 148.751 137.647 147.963 139.147 147.546C140.849 147.072 142.638 146.825 144.374 146.505C144.761 146.434 145.15 146.366 145.537 146.296C145.21 145.707 144.965 145.038 144.745 144.525L144.706 144.436C144.233 143.361 143.808 142.267 143.397 141.168L143.09 140.341C142.349 138.35 141.584 136.392 140.542 134.53C139.445 132.57 137.99 130.968 136.176 129.642C132.478 126.938 128.02 125.559 124.433 122.669C124.286 122.551 124.474 122.349 124.623 122.424C127.046 123.636 129.66 124.46 132.18 125.447L132.677 125.642C134.668 126.428 136.69 127.284 138.414 128.557C140.335 129.977 141.849 131.739 142.986 133.836C144.107 135.902 144.824 138.215 145.615 140.422L145.827 141.01C146.146 141.892 146.475 142.771 146.853 143.629C147.153 144.31 147.712 145.088 147.966 145.866C148.662 145.746 149.357 145.626 150.053 145.51C165.135 143.002 180.385 141.528 195.669 141.097C196.267 141.08 196.576 141.649 196.488 142.168C195.021 150.807 193.718 159.475 192.288 168.12C191.663 171.893 191.027 175.663 190.375 179.432C190.045 181.341 189.663 183.243 189.351 185.155C189.098 186.699 188.915 188.255 188.482 189.763C188.093 191.116 187.497 192.42 186.517 193.452C185.461 194.564 183.987 195.102 182.504 195.357C178.738 196.002 174.875 196.266 171.078 196.696L150.865 198.986C151.16 201.66 151.182 204.293 151.047 206.998L150.969 208.475C150.906 209.663 150.831 210.853 150.659 212.028C150.445 213.503 149.767 214.752 148.77 215.853C147.854 216.865 146.741 217.728 145.658 218.555C144.534 219.414 143.373 220.243 142.052 220.774L141.88 220.842C140.721 221.293 138.547 221.991 136.963 221.735C137.17 222.769 137.57 223.88 137.215 224.903C137.05 225.378 136.427 225.614 136.045 225.21C135.288 224.41 135.229 223.352 135.05 222.307C134.863 221.22 134.703 220.129 134.56 219.035C134.284 216.921 134.069 214.787 134.003 212.654C133.936 210.464 133.962 208.271 134.08 206.084C134.141 204.96 134.216 203.837 134.36 202.721C134.421 202.245 134.483 201.769 134.554 201.294C134.58 201.121 134.609 200.948 134.64 200.776L132.826 200.98C130.044 201.29 127.261 201.569 124.459 201.612C124.128 201.617 123.872 201.467 123.706 201.248C123.528 201.536 123.218 201.742 122.775 201.741C118.863 201.726 115.219 200.452 111.661 198.95C109.867 198.193 108.101 197.373 106.305 196.623C104.628 195.922 102.836 195.422 101.2 194.633L96.9001 196.879C96.8686 196.99 96.8282 197.094 96.7852 197.181C96.5053 197.751 95.9533 198.059 95.3896 198.292C94.8485 198.515 94.2882 198.585 93.7423 198.528C90.4815 200.23 87.22 201.931 83.9562 203.627L80.6917 205.322C74.1877 208.695 67.7094 212.123 61.1644 215.417L60.6825 215.658C58.4219 216.787 55.9944 217.932 53.4856 218.786C53.441 219.418 53.4691 220.034 53.5223 220.703L53.5352 220.849C53.6099 221.64 53.7703 222.631 53.1332 223.194C52.8017 223.487 52.2097 223.488 51.9843 223.047C51.5753 222.246 51.9425 220.983 52.072 220.113C52.118 219.804 52.1741 219.486 52.257 219.177C49.3809 220.03 46.4177 220.444 43.4909 219.965C40.6413 219.499 38.4343 217.711 36.6551 215.524C34.7773 213.216 33.443 210.527 32.7271 207.643C31.9123 204.363 31.8591 200.974 31.8782 197.614C31.8986 194.035 32.0315 190.439 32.4685 186.885C31.9897 186.772 31.4587 186.675 30.9749 186.709C30.7352 187.091 30.2704 187.252 29.8503 187.202C28.9369 188.205 31.2538 189.231 31.9942 189.488C32.2513 189.577 32.2238 189.993 31.9273 189.98L31.7405 189.971C30.5964 189.911 29.4144 189.716 28.7417 188.657C28.2027 187.808 28.3646 186.803 29.0072 186.111C29.4316 182.114 30.4462 178.222 31.3906 174.323C32.3173 170.496 33.3478 166.694 34.4402 162.91L34.9299 161.217C36.6498 155.285 38.4475 149.305 40.8199 143.609C42.0045 140.765 43.3692 137.973 45.2191 135.493C46.9435 133.181 48.9793 131.203 51.3194 129.513C55.6819 126.363 60.8008 124.46 65.8303 122.647L66.0555 122.565C68.6619 121.626 71.2619 120.676 73.8386 119.659C76.1175 118.759 78.3006 117.618 80.5687 116.705C80.4951 116.572 80.4239 116.437 80.3554 116.301L80.3135 116.336C80.3063 116.342 80.299 116.347 80.2913 116.352C80.0633 116.51 79.7275 116.432 79.5395 116.256C79.0088 115.757 79.1885 115.203 79.5427 114.686L79.5888 114.62C80.0221 114.015 80.4086 113.376 80.8086 112.75L81.059 112.358C81.7303 111.311 82.4357 110.258 83.3307 109.393C83.7452 108.992 84.199 108.692 84.6798 108.469C84.6387 108.382 84.9992 108.205 85.1014 108.294C86.6247 107.739 88.3772 107.855 90.038 108.008M149.887 199.097L147.769 199.337C145.439 199.601 143.108 199.856 140.777 200.109L135.713 200.657C135.7 200.945 135.665 201.226 135.659 201.443C135.626 202.562 135.601 203.682 135.578 204.802C135.531 207.046 135.582 209.293 135.73 211.533C135.874 213.704 136.064 215.875 136.358 218.031L136.418 218.462L136.453 218.688C136.693 218.712 136.929 218.825 137.125 219.059C137.554 219.568 139.104 219.073 139.71 218.858C140.706 218.505 141.644 217.909 142.51 217.311C143.355 216.727 144.116 216.046 144.847 215.329L145.445 214.739C146.041 214.15 146.637 213.522 147.001 212.781C147.496 211.776 147.56 210.543 147.705 209.448C147.883 208.102 148.096 206.756 148.321 205.417M88.4051 184.966L88.1854 185.023C80.2054 187.135 72.2373 189.309 64.2328 191.328C60.2715 192.327 56.2915 193.254 52.3254 194.234L51.6833 194.394C48.5545 195.181 45.3881 196.129 42.9921 198.39C42.9037 198.473 42.7753 198.345 42.8585 198.257C45.4408 195.519 49.1133 194.36 52.6396 193.355C53.2914 193.169 53.944 192.988 54.596 192.803C49.8004 191.1 44.9291 189.619 39.9453 188.562C38.662 188.29 37.3638 188.09 36.0814 187.817C35.1871 187.627 34.3138 187.351 33.4289 187.123L32.7329 186.948L32.7237 189.139C32.7121 192.242 32.7176 195.343 32.8766 198.446L32.9067 199.021C33.0921 202.473 33.3816 205.998 34.6118 209.254C35.6115 211.899 37.205 214.392 39.2888 216.319C40.3432 217.294 41.4769 218.053 42.8782 218.428C44.1793 218.775 45.5425 218.816 46.88 218.723C53.2956 218.278 59.0065 214.806 64.5795 211.932C73.695 207.232 82.8115 202.533 91.9362 197.851C91.6895 197.683 91.4572 197.489 91.2459 197.272C90.0223 196.013 89.3769 194.29 88.953 192.621C88.5017 190.845 88.2319 188.941 88.2005 187.108M100.015 199.665C100.096 199.622 100.189 199.676 100.193 199.767C100.221 200.461 99.8359 201.145 99.5482 201.771L99.5177 201.838C99.1682 202.612 98.7854 203.376 98.3895 204.128C97.5982 205.631 96.7759 207.118 95.9177 208.584C94.1918 211.533 92.274 214.357 90.007 216.924C89.495 217.505 88.6529 216.761 88.9815 216.136C90.5657 213.126 92.4126 210.284 94.3136 207.466C95.2653 206.055 96.2164 204.643 97.1775 203.239C97.5784 202.653 97.9845 202.069 98.4016 201.494L98.6531 201.15M194.659 142.822C186.651 143.062 178.652 143.583 170.682 144.398C163.271 145.156 155.886 146.165 148.543 147.423C147.009 147.686 145.477 147.959 143.947 148.243L143.029 148.415C141.499 148.704 139.63 148.823 138.268 149.637C136.831 150.496 136.443 152.29 135.965 153.769C135.403 155.509 134.856 157.253 134.323 159.002C132.207 165.946 130.274 172.95 128.55 180.001C127.694 183.5 126.935 187.019 126.134 190.532C125.424 193.652 124.639 196.738 123.82 199.827C123.921 199.749 124.045 199.69 124.194 199.658C128.263 198.796 132.417 198.421 136.547 197.944L136.947 197.898C141.219 197.397 145.492 196.901 149.767 196.422L178.071 193.252C179.741 193.065 181.529 193.039 183.154 192.593C185.915 191.834 186.563 188.759 187.026 186.31L187.04 186.236C188.437 178.835 189.549 171.371 190.852 163.952M124.478 191.225C123.379 191.152 121.875 190.15 121.042 190.222C121.479 190.953 121.677 191.788 121.424 192.679C120.723 195.158 117.548 193.875 116.019 193.118C114.765 192.496 113.554 191.736 112.166 191.445C110.594 191.116 109.528 191.739 108.2 192.457C107.109 193.046 105.92 193.469 104.698 193.689C104.049 193.805 103.431 193.818 102.815 193.772C102.778 193.802 102.736 193.83 102.689 193.855L102.363 194.025C103.836 194.093 105.337 194.546 106.709 194.96C108.13 195.39 109.525 195.908 110.913 196.437L112.278 196.96C115.645 198.244 119.131 199.464 122.775 199.453C123.037 199.452 123.252 199.525 123.421 199.643M118.33 183.457C119.415 183.324 120.417 183.466 121.285 184.17C122.331 185.019 123.034 186.427 124.538 186.519C124.976 186.546 125.078 187.16 124.642 187.288C123.523 187.618 122.617 187.015 121.854 186.232L121.341 185.698C120.587 184.921 119.892 184.32 118.613 184.366C117.243 184.416 115.871 184.731 114.51 184.892C112.969 185.073 111.427 185.228 109.881 185.362C109.809 185.368 109.797 185.255 109.864 185.239L111.596 184.809M117.282 179.036L117.461 179.018C119.037 178.866 120.479 178.86 121.887 179.705L122.157 179.867C123.426 180.636 124.808 181.541 125.602 182.785C125.732 182.989 125.517 183.228 125.3 183.177C123.774 182.812 122.659 181.697 121.376 180.863C119.936 179.926 118.448 180.081 116.807 180.226C115.217 180.367 113.628 180.561 112.054 180.824C110.575 181.072 109.092 181.463 107.598 181.588L107.598 181.585C107.427 181.585 107.33 181.329 107.504 181.243C109.02 180.489 110.776 180.132 112.425 179.787M63.3007 136.34C63.2987 136.216 63.4741 136.17 63.5354 136.277C64.5611 138.074 65.0973 140.278 65.6437 142.258C66.2159 144.332 66.6779 146.428 67.093 148.538C67.9336 152.813 68.3815 157.062 68.4119 161.418C68.4161 162.04 67.3987 162.206 67.2992 161.569C66.6385 157.331 66.0055 153.089 65.3398 148.853C65.0048 146.722 64.6149 144.6 64.2419 142.476M73.4552 139.471C73.3797 139.223 73.7418 139.14 73.8345 139.367C75.8929 144.4 76.5901 150.103 75.2685 155.413C75.0663 156.225 73.8719 155.873 74.0244 155.071M100.007 134.999C99.9965 134.814 100.238 134.784 100.329 134.912C101.305 136.281 101.709 138.114 103.421 138.821C104.275 139.175 105.237 139.113 105.991 139.71C106.496 140.109 106.883 140.738 106.504 141.343C106.382 141.538 106.04 141.636 105.874 141.424C105.632 141.114 105.504 140.744 105.175 140.513C104.712 140.186 104.086 140.166 103.555 140.012C102.867 139.814 102.261 139.466 101.765 138.95M116.302 112.169C116.403 112.118 116.499 112.151 116.563 112.237C116.655 112.36 116.644 112.48 116.531 112.565C116.682 112.871 116.859 113.637 116.884 113.748C116.987 114.2 117.096 114.649 117.211 115.098C117.441 116.004 117.643 116.916 117.874 117.822C118.119 118.782 118.41 119.732 118.735 120.668C118.756 120.729 118.779 120.791 118.803 120.854L118.84 120.948L118.849 120.934C118.915 120.83 119.052 120.903 119.036 121.012C119.021 121.112 119 121.212 118.983 121.312L119.017 121.401C119.229 121.97 119.375 122.569 118.985 123.071C118.84 123.259 118.679 123.37 118.48 123.403C118.159 124.455 117.758 125.486 117.328 126.477L117.202 126.767C116.569 128.213 115.894 129.639 114.887 130.87C113.787 132.214 112.274 133.132 111.316 134.604C110.87 135.289 110.56 136.01 110.308 136.783L110.213 137.077C110.035 137.624 109.829 138.154 109.313 138.475C109.149 138.578 108.903 138.545 108.77 138.405C107.713 137.292 108.819 135.213 109.457 134.135C110.342 132.636 111.624 131.677 112.908 130.546C114.292 129.327 115.174 127.697 116.028 126.09C116.551 125.106 117.056 124.1 117.587 123.112C117.032 122.623 116.854 121.652 116.666 120.977L116.649 120.917C116.338 119.836 116.091 118.727 115.935 117.613C115.785 116.542 115.722 115.487 115.762 114.41L115.773 114.136M118.367 117.266C118.244 117.098 118.447 116.908 118.615 116.943C119.639 117.154 120.639 117.771 121.558 118.27L121.656 118.323C122.389 118.717 123.127 119.199 123.512 119.964C123.931 120.796 123.896 121.753 123.839 122.657L123.834 122.742C123.764 123.825 123.752 124.951 123.522 126.015C123.404 126.56 122.909 126.713 122.486 126.585C121.982 128.169 120.567 129.336 119.533 130.587C118.215 132.181 118.463 134.333 118.601 136.252C118.656 137.03 117.686 137.251 117.186 136.836L116.034 135.883C115.842 135.724 115.65 135.564 115.459 135.404C115.295 135.267 115.133 135.129 114.972 134.989L114.732 134.778C114.625 134.683 114.155 134.16 114.018 134.138C113.685 134.085 112.894 134.959 112.623 135.233L112.589 135.267C112.08 135.765 111.619 136.3 111.19 136.868C111.112 136.973 110.957 136.886 111.014 136.765C111.398 135.946 111.845 135.162 112.375 134.428L112.482 134.282C112.835 133.809 113.309 132.972 113.932 132.832C114.693 132.662 115.452 133.421 116.006 133.843L116.041 133.87C116.304 134.066 116.564 134.267 116.824 134.468C116.797 133.039 116.978 131.595 117.719 130.363C118.241 129.494 119.024 128.851 119.694 128.104C120.44 127.273 120.829 126.251 121.504 125.386C121.591 125.274 121.711 125.214 121.84 125.195C121.866 124.499 121.969 123.797 122.049 123.108L122.072 122.902C122.152 122.154 122.342 121.24 121.974 120.54C121.627 119.878 120.83 119.411 120.24 118.962L119.758 118.59M85.1524 109.356C84.8443 109.534 84.5563 109.755 84.2951 110.031C83.4726 110.9 82.8845 111.981 82.3123 113.021C82.0041 113.582 81.7071 114.148 81.3965 114.707C81.2614 114.95 81.1224 115.191 80.9819 115.431C80.917 115.542 80.724 115.762 80.6283 115.897C80.7346 116.046 80.8445 116.192 80.9566 116.336C80.9994 116.391 83.9498 119.592 84.9782 120.845C86.5531 122.764 87.9607 124.791 89.1642 126.961C90.3426 129.086 91.2398 131.335 92.3315 133.501C92.8779 134.585 93.4881 135.662 94.2659 136.6C94.296 136.637 94.3277 136.671 94.3584 136.708C94.6553 135.909 95.4159 135.053 95.7895 134.562L95.8245 134.516C96.6718 133.378 97.5666 132.275 98.4809 131.19C99.316 130.2 100.172 129.231 101.049 128.278L101.379 127.921C101.99 127.264 102.766 126.28 103.661 125.81C103.565 125.64 103.454 125.472 103.327 125.306C102.488 124.215 101.304 123.423 100.135 122.709L99.3766 122.25C96.519 120.515 93.7059 118.701 91.225 116.447C89.9125 115.254 88.6181 114.005 87.5148 112.614L87.1247 112.123M89.9206 108.498C88.5824 108.61 87.1373 108.583 85.9007 109.017C87 110.053 88.0451 111.17 89.1186 112.223C89.2141 111.511 89.4094 110.808 89.5749 110.114" fill="black"/>
<path fill-rule="evenodd" clip-rule="evenodd" d="M128.994 65.0445C129.176 63.3521 127.192 58.8371 127.239 59.753C124.057 54.8556 117.847 52.9297 112.489 51.313C101.115 47.5652 92.2325 52.0915 84.2407 60.1135C79.5225 64.5124 75.0331 69.4261 72.6646 75.5156C68.0052 87.1322 74.9894 100.378 85.6106 105.928C86.4676 106.391 87.4016 106.83 88.2178 107.389C92.6085 109.921 97.7642 110.797 102.657 111.899C111.81 113.987 123.305 112.992 128.699 104.294C132.358 98.1215 131.386 90.6383 131.1 83.7878C130.669 77.7856 129.914 71.0027 128.994 65.0445Z" fill="#EDB98A"/>
<path fill-rule="evenodd" clip-rule="evenodd" d="M80.0692 47.9144C85.9992 42.3814 94.7639 39.6997 102.777 40.1687C107.118 40.4228 111.301 41.5082 115.223 43.3731C116.45 43.9563 117.645 44.639 118.747 45.4428C119.491 45.7891 120.218 46.1639 120.922 46.5714C124.449 48.6106 127.175 51.6994 128.92 55.3633C129.753 57.1121 130.411 58.9562 130.783 60.8563L130.843 61.169C131.033 62.1225 131.408 63.3787 130.933 64.2709C130.618 64.8625 129.959 65.2354 129.334 65.1852C129.47 65.7335 129.632 66.2816 129.736 66.8334L130.019 68.3377C130.066 68.5884 130.112 68.8392 130.158 69.0899C130.431 70.5842 130.682 72.0767 130.883 73.5827C131.303 76.7186 131.683 79.861 132.018 83.0085C132.258 85.2594 132.483 87.5127 132.702 89.7654L132.832 91.1169C133.057 93.4435 133.233 95.7905 133.08 98.1272C132.85 101.633 131.77 104.831 129.674 107.432C129.873 107.912 129.941 108.452 130.091 109.048C130.299 109.873 130.57 110.681 130.859 111.482C130.994 111.796 131.129 112.111 131.263 112.427L131.615 113.263L131.89 113.811C132.187 114.407 132.475 115.012 132.657 115.629C133.842 116.261 134.81 117.291 134.857 118.702C134.899 119.977 134.236 121.328 133.115 121.978C132.01 122.62 130.872 122.367 129.813 121.877C128.89 122.145 127.902 122.179 126.988 121.892C126.284 122.528 125.377 122.967 124.37 123.086C122.853 123.266 121.413 122.842 120.021 122.284L119.924 122.245C119.88 122.228 119.837 122.21 119.795 122.192C118.194 122.115 116.6 121.483 115.464 120.363C115.094 120.001 114.774 119.586 114.517 119.121C113.58 117.431 113.435 115.357 114.356 113.681C114.158 113.689 113.959 113.697 113.761 113.702C111.126 113.777 108.487 113.643 105.858 113.47L105.239 113.428C103.538 113.306 101.03 113.018 100.982 110.914C100.975 110.645 101.253 110.443 101.508 110.515C102.474 110.787 103.424 111.215 104.425 111.369C105.735 111.571 107.091 111.593 108.414 111.666L108.795 111.688C111.463 111.833 114.226 111.922 116.851 111.394C118.81 111.001 120.852 110.286 122.647 109.4C124.37 108.547 125.936 107.432 127.199 105.977C129.98 102.774 130.349 98.2559 130.213 94.2042C130.049 89.365 129.479 84.5329 129.158 79.7006L129.013 77.5297C128.893 75.7193 128.783 73.9064 128.738 72.0952C128.704 70.7731 128.726 69.4476 128.733 68.1254C128.736 67.4652 128.728 66.8016 128.743 66.1413C128.751 65.7703 128.795 65.4076 128.826 65.0447C128.679 64.968 128.542 64.8608 128.418 64.7189C128.321 64.6069 128.245 64.4882 128.193 64.3679C127.569 64.1855 127.279 63.9432 126.874 63.3934C126.532 62.9304 126.145 62.5025 125.732 62.1013C124.851 61.2489 123.844 60.5518 122.781 59.9449C120.582 58.6898 118.174 57.8507 115.746 57.162C112.028 56.109 108.166 55.5674 104.393 54.7215C103.353 56.169 102.251 57.5732 101.099 58.9322C97.5035 63.1711 93.3806 66.9502 88.9627 70.3201C88.0636 71.0071 87.1524 71.6841 86.2281 72.3408C85.0105 74.1939 83.7799 76.0381 82.531 77.8699L81.9946 78.6542L81.9862 78.6693C81.9125 78.7813 81.842 78.8932 81.7719 79.0052C81.6228 79.2426 81.4554 79.4716 81.2778 79.6939C81.1623 79.8626 81.0451 80.0314 80.9262 80.2004C81.1539 80.3222 81.3616 80.4594 81.524 80.6115C81.8556 80.924 81.8002 81.4206 81.524 81.7381C80.6331 82.7644 79.223 81.4272 78.1981 81.0712C77.0878 81.4087 76.1618 82.7277 75.7012 83.7354C75.0381 85.1881 74.7718 86.9397 75.0716 88.5126C75.346 89.9501 76.0864 91.1922 77.3173 91.9711C77.3608 91.9977 77.4075 92.0262 77.4529 92.0511C77.4546 92.0547 77.4546 92.0547 77.4563 92.0528C77.4981 92.0796 77.5417 92.1048 77.5852 92.1282C78.163 92.4458 78.7977 92.633 79.4557 92.678C79.8324 92.7049 80.2262 92.6847 80.603 92.7299C80.9898 92.7749 81.308 92.9523 81.6798 93.0459C82.0901 93.151 82.3547 93.7011 82.0966 94.0703C81.9695 94.2525 81.8489 94.4265 81.7198 94.582C82.1436 95.0801 82.5119 95.63 82.8453 96.153C83.3007 96.8701 83.7044 97.6308 84.0729 98.4064C84.4128 98.8527 84.7377 99.3073 85.0525 99.772C86.836 102.41 88.2009 105.348 89.0399 108.419C89.8705 111.456 90.3897 114.867 89.621 117.968C88.9126 120.82 86.8444 123.181 83.7831 123.333C83.1443 123.365 82.5159 123.294 81.9251 123.132C80.6272 123.932 79.0189 124.334 77.5795 124.381C76.415 124.419 75.1402 124.175 74.1892 123.472C73.061 123.962 71.8371 124.24 70.7729 124.303C69.582 124.374 68.3357 124.05 67.3649 123.409C66.4412 124.199 65.4444 124.865 64.3119 125.323C62.3642 126.108 60.0465 126.011 58.263 124.836C56.4761 123.659 55.5668 121.547 56.1127 119.45C56.6151 117.518 58.1943 116.101 59.6781 114.881L59.9712 114.641C61.4389 113.445 62.9211 112.288 63.8631 110.603C64.8628 108.816 65.2279 106.74 65.3267 104.718C65.5411 100.265 64.6334 95.8523 64.3571 91.4228C64.0724 86.8479 64.2315 82.2595 64.8561 77.718C66.0703 68.896 69.2655 60.2476 75.0464 53.3709C75.8828 52.3759 76.778 51.4274 77.7215 50.5285C78.4426 49.5871 79.222 48.7047 80.0692 47.9144ZM156.966 98.2859C156.998 98.2876 157.028 98.2893 157.056 98.301C157.076 98.309 157.092 98.3218 157.106 98.3359L157.247 98.4765C157.298 98.5266 157.294 98.6035 157.247 98.6537C157.206 98.6993 157.132 98.7006 157.084 98.6653L157.07 98.6537L156.924 98.508C156.908 98.4907 156.894 98.472 156.887 98.4481C156.881 98.4247 156.881 98.3979 156.879 98.3729C156.877 98.3277 156.921 98.2859 156.966 98.2859ZM78.3943 84.6297C79.7374 84.2233 81.3484 85.1896 82.1489 86.2093C82.5508 86.7207 82.6647 87.4211 82.1489 87.9242C81.7101 88.3521 80.8527 88.4305 80.429 87.9242C79.9484 87.3475 79.5565 86.5484 78.8699 86.1792C78.1247 85.778 77.1266 85.8783 76.9507 86.856C76.9206 87.0216 76.6828 86.9663 76.6727 86.8177C76.6074 85.8282 77.4766 84.9053 78.3943 84.6297Z" fill="black"/>
<path fill-rule="evenodd" clip-rule="evenodd" d="M114.272 101.448C113.144 100.989 112.137 100.225 111.401 99.2479C111.146 98.9084 111.079 98.5498 111.133 98.2218C111.193 97.8531 111.412 97.5188 111.711 97.2947C112.011 97.0698 112.385 96.9589 112.748 97.0154C113.063 97.0645 113.376 97.2363 113.624 97.5924L113.676 97.6636C114.114 98.2531 114.684 98.7368 115.333 99.0486C115.959 99.3491 116.66 99.4894 117.384 99.4078C118.764 99.2525 119.716 98.5091 120.727 97.4996C120.852 97.3721 120.977 97.2407 121.103 97.1071C121.183 96.986 121.293 96.9082 121.416 96.8674C121.552 96.8221 121.706 96.8246 121.847 96.8737C121.983 96.9209 122.105 97.0106 122.187 97.1298C122.264 97.2432 122.308 97.3832 122.294 97.5443C122.201 98.5905 121.652 99.5242 120.872 100.257C120.006 101.072 118.857 101.635 117.776 101.833C116.585 102.05 115.371 101.894 114.272 101.448ZM118.338 85.3078C119.605 86.075 121.536 87.864 120.173 89.7661C118.568 91.4432 116.258 89.5202 115.119 88.6506C114.064 87.9766 112.878 89.71 113.857 90.497C122.084 96.5638 125.423 85.5084 118.979 84.4057C118.27 84.2842 118.006 85.0704 118.338 85.3078ZM103.595 78.2507C103.735 76.5196 106.382 76.1265 106.645 77.8395C106.881 79.3739 106.603 80.7835 105.91 82.165C105.246 83.4848 103.58 82.8691 103.454 81.6673C103.285 80.0563 103.508 79.3275 103.595 78.2507ZM123.744 77.4841C124.113 77.0028 124.646 76.6741 125.285 76.8598C127.279 77.4404 126.691 80.2607 125.991 81.6335C125.61 82.379 124.38 82.568 123.824 81.9116C122.918 80.8412 122.484 78.7035 123.636 77.6491C123.667 77.5946 123.702 77.5396 123.744 77.4841ZM105.881 70.676L106.196 70.621C107.171 70.4531 108.383 70.2918 109.072 71.0723C109.438 71.4861 109.564 72.2554 109.072 72.6515C108.208 73.3485 107.252 73.0784 106.216 73.1374C105.362 73.1862 104.541 73.327 103.719 73.5611C101.914 74.0748 100.444 75.0125 98.903 76.0421C98.7008 76.1772 98.4944 75.9196 98.5909 75.7312C99.4805 73.9957 101.205 72.5701 102.931 71.7011C103.853 71.2372 104.862 70.8525 105.881 70.676ZM121.926 69.8986L122.167 69.9477C124.791 70.4941 128.2 71.5855 129.443 74.1528C129.491 74.5158 129.44 74.5936 129.4 74.6445L129.386 74.6614C129.353 74.7048 129.326 74.7646 129.168 74.8141C129.124 74.8036 129.08 74.7926 129.035 74.7809C128.465 74.6323 128.015 74.4274 127.578 74.2149L127.105 73.9828C126.557 73.7147 126.003 73.4564 125.416 73.2657C124.164 72.8589 122.876 72.5723 121.568 72.4193C121.284 72.3861 121.011 72.2908 120.796 72.1275C120.591 71.9725 120.435 71.7578 120.364 71.4725C120.272 71.1033 120.298 70.8237 120.497 70.4906C120.647 70.2404 120.861 70.067 121.106 69.9675C121.357 69.866 121.642 69.842 121.926 69.8986Z" fill="black"/>
</svg>
