<svg width="500" height="200" viewBox="0 0 500 200" fill="none" xmlns="http://www.w3.org/2000/svg">
<path d="M122.296 58.234C123.266 57.4066 124.307 56.6619 125.371 56C129.133 79.2221 132.469 102.527 136.017 125.749C136.254 127.018 136.325 128.286 136.277 129.583C126.01 129.583 115.719 129.417 105.522 129.252C103.346 123.736 101.761 117.861 99.7497 112.207C96.6033 102.582 93.3385 92.9017 90.2866 83.3315C100.909 74.837 111.579 66.5906 122.367 58.234H122.296Z" fill="white"/>
<path d="M83.7568 65.4048H84.4429C86.1462 71.3896 88.2991 77.2089 90.1917 83.1386C74.0571 96.2389 57.5203 108.705 41.2201 121.53C38.4757 123.405 36.1809 126.218 33.0581 127.239C49.3347 107.133 65.9425 87.3858 82.2664 67.3629C82.7632 66.7286 83.2363 66.0943 83.7095 65.4324L83.7568 65.4048Z" fill="#CCCCCC"/>
<path d="M256.577 75.0578H270.156V115.959C270.014 117.972 270.133 119.985 270.558 121.943C271.931 122.081 273.279 122.136 274.651 122.109C274.651 124.619 274.651 127.101 274.651 129.583C271.552 129.583 268.429 129.776 265.188 129.583C263.177 129.031 261.829 126.797 262.042 124.398C258.682 130.465 251.585 131.844 246.025 129.555C240.608 126.604 237.059 120.344 236.846 113.366C236.231 107.878 237.154 102.307 239.496 97.4801C243.068 90.8058 250.047 87.7996 256.482 90.1715C258.611 90.9437 260.433 92.5433 261.639 94.7221C261.639 90.6955 261.639 86.6964 261.639 82.6698C259.983 82.6698 258.327 82.6698 256.671 82.6698C256.506 80.16 256.458 77.6227 256.529 75.0853M247.8 101.093C246.64 102.803 245.836 104.761 245.434 106.885C244.771 111.16 245.623 115.572 247.8 119.103C250.733 122.853 255.725 123.102 258.919 119.654C258.942 119.654 258.942 119.627 258.966 119.627C261.214 116.703 262.278 112.814 261.9 108.926C261.734 105.644 260.575 102.527 258.659 100.128C255.394 96.9561 250.591 97.3974 247.8 101.093ZM376.38 75.1129C376.38 77.8709 376.38 80.8495 376.38 83.7178C373.494 83.7178 370.607 83.7178 367.721 83.7178C367.721 80.9598 367.721 77.9812 367.721 75.1129C370.607 75.1129 373.494 75.1129 376.38 75.1129ZM155.014 75.1129C162.631 74.975 170.249 75.1129 177.867 75.1129C182.244 74.7268 186.55 76.4092 189.862 79.7739C192.511 83.1386 193.765 87.6893 193.268 92.2399C193.126 98.2799 189.885 103.603 185.059 105.754C187.874 110.718 190.477 115.821 192.843 121.088C194.144 121.695 195.54 121.916 196.935 121.778C196.935 124.37 196.935 126.963 196.935 129.555C194.191 129.555 191.423 129.555 188.679 129.39C186.691 128.562 185.13 126.77 184.397 124.453C182.267 119.985 180.209 115.462 178.009 111.022C176.377 107.464 172.473 109.091 169.729 108.733V121.75C171.527 121.75 173.348 121.75 175.17 121.75C175.17 124.315 175.17 126.88 175.17 129.417C168.641 129.417 162.111 129.417 155.581 129.417C154.564 127.101 155.416 124.26 155.108 121.723C157.025 121.723 158.941 121.723 160.857 121.723V82.8352C159.036 82.8352 157.238 82.8352 155.416 82.8352C155.085 80.2703 154.99 77.6778 155.132 75.1129M169.752 83.3868V100.514C173.136 100.679 176.542 100.569 179.925 100.183C184.278 98.7763 185.627 92.4882 184.207 87.9927C183.403 85.869 181.818 84.2694 179.878 83.6902C176.495 83.2489 173.088 83.1386 169.705 83.3041M434.578 79.8291C437.18 79.4705 439.806 79.6636 442.432 79.5257C443.379 82.9456 442.574 86.8067 442.858 90.3921H450.381V97.6731H442.858C442.858 103.575 442.858 109.477 442.858 115.379C442.929 117.503 443.899 119.406 445.461 120.509C447.117 121.419 448.962 121.778 450.784 121.502C450.784 124.26 450.784 127.018 450.784 129.776C446.052 130.19 440.729 129.528 437.228 125.391C434.341 121.75 434.034 116.51 434.2 111.794V97.7007H429.16C429.16 95.2737 429.16 92.8467 429.16 90.4197H434.578V79.8291ZM205.641 93.9223C210.16 89.6474 216.216 88.2409 221.8 90.199C225.892 91.6608 229.157 95.3013 230.624 99.9898C231.736 103.658 232.067 107.574 231.618 111.435H208.551C208.622 114.8 210.042 117.944 212.384 119.902C216.051 122.55 220.64 122.743 224.449 120.399C225.703 119.544 227.004 118.799 228.353 118.165C229.323 120.509 230.482 122.743 231.523 125.032C227.383 128.866 222.202 130.824 216.926 130.576C210.278 130.576 204.222 126.08 201.407 119.047C198.071 110.525 199.798 100.459 205.665 94.0602M208.693 105.589C213.425 105.589 218.322 105.589 223.148 105.589C223.077 102.968 222.06 100.486 220.38 98.7212C218.677 97.3422 216.571 96.8733 214.56 97.4801C211.414 98.5557 209.119 101.7 208.693 105.506M291.141 95.908C295.612 87.6341 306.802 87.4135 312.243 94.4187C316.715 99.9347 317.448 108.209 316.478 115.407C315.556 121.668 312.007 126.963 307.015 129.528C301.881 131.596 295.423 130.686 292.063 125.28C292.063 129.335 292.063 133.389 292.063 137.471H296.795C296.795 139.815 296.795 142.132 296.795 144.476C290.691 144.476 284.588 144.476 278.484 144.476V137.498H283.523C283.523 125.032 283.523 112.677 283.523 100.1C283.689 99.0521 282.955 98.3075 282.293 97.7835C280.921 97.7835 279.548 97.7835 278.153 97.7835C278.153 95.3564 278.153 92.9294 278.153 90.5024C281.749 90.5024 285.25 90.2542 288.941 90.7231C290.999 91.3574 291.306 93.8396 291.093 95.9632M297.978 98.3626C295.375 99.1349 293.294 101.396 292.489 104.375C290.81 109.395 291.519 115.076 294.382 119.323C297.008 122.66 301.361 123.129 304.484 120.426C307.015 117.999 308.387 114.304 308.151 110.498C308.435 106.802 307.346 103.134 305.17 100.431C303.254 98.4178 300.58 97.6456 298.072 98.3626M325.634 96.763C333.039 87.5238 345.483 87.0274 353.432 95.6598C353.503 95.715 353.55 95.7977 353.597 95.8529C359.63 103.134 360.198 114.469 354.946 122.522C348.274 132.672 333.796 133.306 326.273 124.15C319.956 116.62 319.696 104.678 325.634 96.763ZM337.652 98.3351C335.641 98.9142 333.843 100.21 332.518 102.058C328.97 107.243 329.395 114.717 333.536 119.296C337.061 122.826 342.194 123.019 345.909 119.792C350.522 115.324 351.161 107.381 347.328 102.003C346.831 101.314 346.287 100.679 345.672 100.128C343.33 98.2247 340.42 97.5904 337.652 98.3351ZM399.304 97.8386C402.356 90.1439 411.251 87.4135 417.544 91.0264C420.927 93.6465 422.891 98.142 422.725 102.858C422.725 109.312 422.725 115.765 422.725 122.164H427.457C427.457 124.646 427.457 127.156 427.457 129.638H414.28C414.28 121.612 414.28 113.587 414.28 105.561C414.516 102.775 413.262 100.1 411.109 98.8591C408.909 98.1972 406.567 98.5833 404.604 99.9623C401.623 102.389 399.777 106.25 399.564 110.47C399.446 114.359 399.564 118.22 399.564 122.109H404.296C404.296 124.591 404.296 127.101 404.296 129.61H386.08C386.08 127.128 386.08 124.619 386.08 122.136H390.929C390.929 114.221 390.929 106.306 390.929 98.3902C389.273 97.6731 387.499 97.4249 385.748 97.7007V90.4197C389.321 90.4197 392.846 90.2542 396.465 90.4197C399.257 91.1092 399.423 94.9152 399.257 97.618M362.753 90.2818C367.319 90.2818 371.909 90.2818 376.474 90.2818V121.943H381.206C381.206 124.425 381.206 126.935 381.206 129.417C375.15 129.417 369.07 129.417 363.013 129.417V121.943H367.91C367.91 115.269 367.91 108.595 367.91 101.92C368.005 100.431 367.91 98.9418 367.603 97.4801C365.947 97.4801 364.314 97.4801 362.658 97.4801V90.3921L362.753 90.2818Z" fill="white"/>
<path d="M90.2392 83.1108V83.3315C93.291 93.012 96.5558 102.637 99.7023 112.207C101.713 117.723 103.298 123.681 105.475 129.252C115.742 129.417 126.033 129.61 136.23 129.583H136.608C101.406 129.693 66.2028 129.693 31 129.583C31.6151 128.755 32.1119 127.68 32.9636 127.183C36.0864 126.163 38.3812 123.35 41.1255 121.474C57.4258 108.65 73.9626 96.1836 90.0972 83.0833L90.2392 83.1108Z" fill="#E8E8E8"/>
<path d="M464.032 118.744C466.469 118.44 468.645 120.481 468.906 123.294C468.929 123.625 468.929 123.929 468.929 124.26C469.355 126.963 467.817 129.583 465.499 130.079C465.12 130.162 464.742 130.189 464.34 130.134C461.903 130.548 459.655 128.59 459.3 125.777C459.253 125.39 459.229 125.004 459.253 124.618C458.969 121.722 460.767 119.102 463.251 118.771C463.512 118.744 463.772 118.716 464.032 118.744Z" fill="white"/>
</svg>
